<svg xmlns="http://www.w3.org/2000/svg" xmlns:xlink="http://www.w3.org/1999/xlink" width="1100" zoomAndPan="magnify" viewBox="0 0 824.88 824.999997" height="1100" preserveAspectRatio="xMidYMid meet" version="1.0"><path fill="#000000" d="M 269.464844 113.4375 C 255.144531 115.085938 240.90625 120.746094 229.328125 129.410156 C 225.355469 132.367188 217.753906 139.71875 214.542969 143.648438 C 204.78125 155.777344 198.527344 170.902344 196.839844 186.578125 C 196.5 189.410156 196.375 253.511719 196.375 394.175781 L 196.375 597.632812 L 238.539062 597.632812 C 303.898438 597.632812 311.925781 597 332.839844 590.453125 C 347.035156 585.972656 353.625 582.042969 359.117188 574.859375 C 364.695312 567.507812 368.371094 556.648438 370.1875 542.070312 C 371.75 529.898438 371.917969 524.660156 371.917969 490.730469 C 371.917969 455.953125 371.835938 454.390625 370.144531 449.109375 C 368.285156 443.363281 364.820312 440.785156 345.515625 430.726562 C 329.207031 422.277344 322.65625 418.050781 315.644531 411.503906 C 310.699219 406.9375 307.195312 402.207031 304.53125 396.753906 C 300.519531 388.472656 299.460938 380.824219 300.730469 368.613281 C 300.730469 368.527344 301.449219 369.628906 302.335938 371.105469 C 304.234375 374.402344 309.222656 379.136719 314.082031 382.386719 C 324.855469 389.570312 345.050781 395.53125 373.144531 399.882812 C 378.804688 400.726562 383.03125 401.65625 385.902344 402.628906 C 394.691406 405.542969 404.453125 411.332031 409.773438 416.785156 L 412.945312 420.039062 L 414.210938 418.390625 C 418.140625 413.148438 430.054688 405.753906 440.023438 402.417969 C 442.347656 401.65625 446.742188 400.726562 451.011719 400.09375 C 479.613281 395.824219 500.695312 389.613281 511.59375 382.261719 C 517.761719 378.078125 521.777344 374.105469 523.847656 370.007812 C 524.523438 368.699219 524.648438 368.570312 524.945312 369.289062 C 525.539062 370.851562 525.242188 383.445312 524.523438 386.613281 C 522.285156 396.460938 518.226562 403.390625 510.160156 411.121094 C 502.890625 418.09375 497.398438 421.644531 479.019531 431.277344 C 457.726562 442.390625 455.785156 444.207031 454.007812 454.8125 C 453.25 459.25 453.25 518.871094 454.007812 528.757812 C 456.503906 561.253906 462.417969 575.449219 477.121094 584.199219 C 480.457031 586.183594 483.371094 587.367188 491.273438 589.945312 C 512.863281 596.957031 520.890625 597.632812 586.882812 597.632812 L 629.003906 597.632812 L 629.003906 393.121094 C 629.003906 209.902344 628.921875 188.144531 628.328125 183.917969 C 625.835938 166 617.808594 149.902344 604.921875 137.058594 C 591.363281 123.578125 574.460938 115.507812 555.40625 113.4375 C 550.335938 112.886719 274.238281 112.886719 269.464844 113.4375 Z M 431.320312 130.421875 C 437.449219 137.984375 442.644531 146.480469 446.066406 154.339844 C 447.757812 158.183594 449.953125 164.226562 450.460938 166.296875 L 450.714844 167.480469 L 442.347656 167.480469 L 442.09375 165.664062 C 441.925781 164.691406 441.378906 162.875 440.785156 161.648438 L 439.773438 159.453125 L 427.605469 159.535156 L 415.476562 159.664062 L 414.550781 161.3125 C 414.042969 162.242188 413.28125 163.972656 412.902344 165.242188 L 412.183594 167.480469 L 408 167.480469 C 405.71875 167.480469 403.816406 167.4375 403.816406 167.351562 C 403.816406 167.269531 404.578125 165.28125 405.507812 162.875 C 408.761719 154.507812 413.367188 145.507812 418.4375 137.691406 C 421.816406 132.410156 427.054688 125.605469 427.476562 125.859375 C 427.6875 125.984375 429.421875 128.054688 431.320312 130.421875 Z M 508.128906 131.859375 C 509.058594 134.859375 511.382812 142.761719 513.242188 149.523438 C 517.003906 162.957031 517.890625 166.128906 518.226562 166.972656 C 518.355469 167.394531 517.550781 167.480469 514.46875 167.394531 L 510.539062 167.269531 L 509.988281 163.382812 C 509.734375 161.226562 509.269531 158.691406 509.019531 157.675781 C 507.878906 153.242188 505.847656 146.773438 505.597656 146.773438 C 505.46875 146.773438 504.496094 147.957031 503.484375 149.394531 C 497.90625 157.464844 488.652344 168.746094 487.683594 168.746094 C 486.371094 168.746094 477.710938 158.269531 471.839844 149.605469 C 470.78125 148.042969 469.8125 146.773438 469.683594 146.773438 C 469.558594 146.773438 468.246094 151.507812 466.8125 157.339844 L 464.105469 167.859375 L 460.683594 167.605469 C 458.824219 167.480469 457.179688 167.3125 457.09375 167.226562 C 457.007812 167.140625 457.136719 166.339844 457.433594 165.453125 C 459.460938 158.988281 461.402344 152.394531 464.488281 141.070312 C 466.472656 133.84375 468.164062 127.675781 468.289062 127.339844 C 468.417969 127 469.09375 128.183594 469.894531 130.085938 C 474.332031 140.691406 480.457031 151.210938 485.90625 157.636719 L 487.808594 159.832031 L 490.722656 156.15625 C 494.695312 151.210938 496.300781 148.886719 498.625 144.832031 C 500.820312 140.945312 503.949219 133.71875 505.257812 129.410156 C 505.765625 127.804688 506.230469 126.492188 506.3125 126.492188 C 506.398438 126.492188 507.203125 128.902344 508.128906 131.859375 Z M 311.292969 147.199219 L 311.292969 167.480469 L 304.953125 167.480469 L 304.953125 126.914062 L 311.292969 126.914062 Z M 343.316406 127.589844 C 346.695312 128.269531 352.949219 130.507812 353.328125 131.140625 C 353.457031 131.351562 352.949219 132.621094 352.1875 133.972656 L 350.835938 136.464844 L 348.472656 135.324219 C 345.261719 133.761719 342.132812 133.085938 337.910156 133.085938 C 335.164062 133.085938 333.9375 133.253906 332.671875 133.886719 C 329.246094 135.621094 329.035156 138.535156 332.207031 140.308594 C 333.132812 140.859375 336.808594 142.210938 340.359375 143.351562 C 351.300781 146.945312 355.316406 149.523438 355.90625 153.410156 C 356.710938 158.902344 353.542969 163.929688 347.796875 166.253906 C 345.515625 167.183594 344.710938 167.269531 338.753906 167.226562 C 332.921875 167.226562 331.78125 167.101562 328.53125 166.085938 C 324.472656 164.859375 318.8125 162.410156 318.980469 162.03125 C 320.039062 159.917969 322.320312 155.648438 322.445312 155.648438 C 322.53125 155.648438 323.714844 156.324219 325.066406 157.128906 C 329.289062 159.707031 333.597656 160.847656 338.964844 160.886719 C 342.9375 160.886719 343.910156 160.761719 345.726562 159.957031 C 346.867188 159.410156 348.132812 158.691406 348.554688 158.351562 C 349.652344 157.339844 349.90625 155.480469 349.148438 154.042969 C 348.386719 152.605469 346.824219 151.886719 339.386719 149.734375 C 333.851562 148.167969 330.429688 146.605469 327.050781 144.070312 C 322.867188 141.027344 321.726562 138.621094 322.65625 135.113281 C 323.585938 131.648438 327.8125 128.226562 332.164062 127.339844 C 335.078125 126.789062 339.851562 126.875 343.316406 127.589844 Z M 368.328125 143.605469 L 368.328125 160.296875 L 396.636719 160.296875 L 396.636719 167.058594 L 361.570312 167.058594 L 361.570312 126.914062 L 368.328125 126.914062 Z M 225.820312 174.707031 L 228.0625 176.4375 L 226.835938 177.875 C 224.300781 180.75 221.765625 187.679688 221.722656 191.691406 C 221.722656 193.71875 222.695312 196.003906 223.75 196.59375 C 226.246094 197.902344 228.273438 196.253906 231.441406 190.46875 C 236.59375 180.960938 239.636719 176.734375 242.46875 175.296875 C 244.242188 174.367188 247.367188 174.535156 249.820312 175.675781 C 252.4375 176.902344 254.339844 178.890625 255.609375 181.636719 C 256.453125 183.496094 256.578125 184.382812 256.578125 189.03125 C 256.535156 193.890625 256.453125 194.648438 255.183594 198.328125 C 253.707031 202.59375 252.3125 205.296875 249.3125 209.820312 L 247.410156 212.652344 L 244.917969 210.707031 C 241.117188 207.75 241.199219 207.960938 243.652344 205.296875 C 248.128906 200.398438 251.128906 191.4375 250.074219 186.242188 C 249.523438 183.367188 248.679688 181.972656 247.242188 181.425781 C 244.582031 180.410156 243.015625 181.929688 239.59375 188.777344 C 236.636719 194.648438 234.566406 197.734375 231.527344 200.691406 C 227.554688 204.621094 224.976562 205.425781 221.46875 203.863281 C 214.921875 200.863281 213.738281 190.761719 218.765625 180.242188 C 220.414062 176.820312 222.78125 172.972656 223.285156 172.972656 C 223.414062 172.972656 224.554688 173.777344 225.820312 174.707031 Z M 598.078125 178.59375 C 598.882812 179.902344 599.472656 181.085938 599.390625 181.171875 C 598.796875 181.71875 565.335938 202.972656 565.039062 203.015625 C 564.828125 203.015625 563.941406 201.917969 563.054688 200.523438 L 561.449219 198.03125 L 578.644531 186.960938 C 588.109375 180.917969 596.007812 176.015625 596.21875 176.058594 C 596.390625 176.101562 597.234375 177.242188 598.078125 178.59375 Z M 607.921875 204.328125 C 600.910156 220.425781 594.613281 232.511719 589.96875 238.722656 L 587.601562 241.847656 L 611.132812 241.847656 L 611.429688 244.425781 C 611.554688 245.863281 611.683594 247.46875 611.683594 247.976562 L 611.683594 248.90625 L 590.898438 249.160156 C 579.488281 249.328125 570.066406 249.371094 569.984375 249.328125 C 569.898438 249.242188 571.292969 247.933594 573.066406 246.453125 C 579.996094 240.664062 587.558594 230.523438 593.21875 219.539062 C 594.824219 216.410156 596.050781 213.832031 595.964844 213.792969 C 595.925781 213.707031 589.460938 215.652344 581.6875 218.015625 C 573.914062 220.425781 567.492188 222.410156 567.449219 222.410156 C 567.363281 222.410156 567.320312 220.550781 567.320312 218.226562 L 567.320312 214.046875 L 574.417969 212.101562 C 578.304688 211.003906 587.476562 208.425781 594.785156 206.398438 C 602.09375 204.328125 608.21875 202.636719 608.386719 202.59375 C 608.558594 202.550781 608.34375 203.355469 607.921875 204.328125 Z M 251.042969 224.101562 C 251.214844 226.214844 251.214844 228.074219 251.128906 228.285156 C 251.003906 228.496094 250.113281 228.75 249.144531 228.917969 C 248.171875 229.085938 246.441406 229.59375 245.339844 230.101562 L 243.269531 230.945312 L 243.269531 255.285156 L 245.722656 256.132812 C 247.03125 256.597656 248.636719 257.101562 249.269531 257.230469 C 250.328125 257.484375 250.410156 257.652344 250.664062 260.566406 C 251.171875 266.019531 251.59375 265.808594 244.539062 263.144531 C 232.878906 258.75 221.765625 252.539062 212.894531 245.484375 L 209.765625 242.988281 L 211.414062 241.59375 C 216.570312 237.160156 225.1875 231.664062 233.34375 227.695312 C 238.074219 225.371094 249.734375 220.339844 250.496094 220.296875 C 250.621094 220.296875 250.875 222.03125 251.042969 224.101562 Z M 408.84375 255.453125 L 408.84375 289.808594 L 406.859375 291.074219 C 401.453125 294.582031 400.5625 302.105469 405.042969 307.046875 C 407.070312 309.328125 409.5625 310.386719 412.773438 310.34375 C 418.859375 310.34375 423.253906 305.90625 423.253906 299.863281 C 423.253906 295.808594 421.5625 293.019531 417.335938 290.019531 L 416.449219 289.386719 L 416.578125 255.203125 L 416.703125 221.058594 L 436.773438 235.933594 C 447.800781 244.171875 460.855469 253.847656 465.796875 257.523438 L 474.710938 264.160156 L 473.699219 266.1875 C 471.882812 269.820312 472.472656 273.75 475.261719 276.328125 C 477.078125 277.976562 478.894531 278.609375 481.976562 278.609375 C 485.019531 278.609375 486.921875 277.976562 488.613281 276.371094 L 489.964844 275.101562 L 493.679688 278.273438 C 500.695312 284.230469 502.214844 286.46875 503.101562 291.921875 C 504.160156 298.597656 501.667969 305.359375 495.964844 311.148438 C 488.148438 319.046875 475.386719 325.34375 455.191406 331.261719 C 450.082031 332.738281 446.488281 334.554688 446.488281 335.613281 C 446.488281 335.90625 447.25 337.089844 448.179688 338.191406 C 450.164062 340.554688 451.515625 343.386719 451.558594 345.078125 C 451.558594 348.839844 448.347656 351.5 436.773438 357.121094 C 426.039062 362.359375 422.152344 364.683594 418.605469 368.0625 C 415.730469 370.769531 413.113281 374.910156 413.113281 376.726562 C 413.113281 377.191406 412.945312 377.402344 412.691406 377.277344 C 412.480469 377.148438 412.265625 376.726562 412.265625 376.386719 C 412.265625 375.035156 409.902344 370.980469 407.832031 368.824219 C 404.664062 365.570312 399.761719 362.527344 388.945312 357.246094 C 381.085938 353.402344 378.933594 352.175781 376.863281 350.234375 C 375.089844 348.585938 374.242188 347.484375 374.074219 346.515625 C 373.652344 344.273438 374.835938 341.191406 377.199219 338.402344 C 378.339844 337.050781 379.3125 335.78125 379.3125 335.613281 C 379.3125 334.726562 374.625 332.527344 369.554688 331.046875 C 342.304688 323.0625 326.796875 313.046875 323.121094 301.089844 C 321.515625 295.933594 322.191406 288.835938 324.683594 285.285156 C 325.867188 283.554688 330.136719 279.539062 333.726562 276.710938 L 335.710938 275.1875 L 336.9375 276.457031 C 338.542969 278.0625 341.203125 278.738281 344.753906 278.527344 C 348.261719 278.273438 349.992188 277.300781 351.640625 274.597656 C 353.246094 271.976562 353.328125 269.527344 351.894531 266.398438 C 351.257812 265.089844 351.007812 264.074219 351.257812 263.863281 C 351.765625 263.355469 408.632812 221.144531 408.761719 221.144531 C 408.84375 221.144531 408.886719 236.609375 408.84375 255.453125 Z M 218.683594 261.582031 C 219.863281 262.382812 220.878906 263.101562 220.878906 263.230469 C 220.878906 263.3125 220.414062 264.160156 219.824219 265.089844 C 218.683594 266.90625 216.652344 272.527344 216.652344 273.921875 C 216.652344 274.808594 216.738281 274.808594 233.765625 274.808594 L 250.875 274.808594 L 250.875 278.1875 C 250.875 280.046875 250.832031 281.609375 250.792969 281.652344 C 250.707031 281.695312 243.058594 281.820312 233.765625 281.949219 L 216.863281 282.203125 L 216.992188 283.679688 C 217.203125 285.878906 218.257812 289.511719 219.441406 291.792969 C 219.992188 292.894531 220.457031 293.863281 220.457031 293.949219 C 220.457031 294.203125 215.851562 297.203125 215.472656 297.203125 C 214.964844 297.203125 212.726562 292.214844 211.582031 288.539062 C 210.402344 284.863281 209.976562 277.046875 210.738281 272.863281 C 211.625 267.582031 214.964844 259.300781 215.9375 259.890625 C 216.230469 260.0625 217.457031 260.820312 218.683594 261.582031 Z M 610.203125 265.597656 C 610.332031 267.285156 610.414062 273.242188 610.332031 278.820312 L 610.203125 288.964844 L 608.808594 291.835938 C 606.78125 295.976562 602.980469 299.695312 598.753906 301.722656 C 595.460938 303.289062 595.332031 303.328125 590.347656 303.328125 C 585.574219 303.328125 585.066406 303.246094 581.898438 301.933594 C 576.109375 299.527344 572.773438 296.273438 570.617188 290.863281 C 569.730469 288.667969 569.6875 287.738281 569.519531 275.527344 L 569.351562 262.554688 L 609.910156 262.554688 Z M 250.875 306.710938 L 250.875 309.878906 L 230.511719 309.792969 L 210.105469 309.667969 L 209.976562 306.582031 L 209.851562 303.539062 L 250.875 303.539062 Z M 315.09375 321.5 C 318.261719 333.753906 326.671875 341.992188 341.753906 347.613281 C 347.5 349.769531 353.078125 351.289062 366.300781 354.246094 C 379.691406 357.289062 387.296875 359.65625 393.128906 362.65625 C 401.113281 366.753906 407.367188 372.882812 410.875 380.105469 C 411.761719 381.882812 412.5625 383.359375 412.691406 383.359375 C 412.816406 383.402344 413.578125 382.136719 414.335938 380.527344 C 418.011719 373.007812 424.730469 366.417969 432.757812 362.402344 C 438.757812 359.359375 447.121094 356.910156 465.710938 352.769531 C 484.554688 348.542969 495.414062 343.554688 502.597656 335.867188 C 506.101562 332.105469 507.917969 329.105469 509.484375 324.582031 C 510.875 320.402344 511.554688 316.722656 511.59375 312.414062 C 511.59375 310.683594 511.765625 308.863281 511.933594 308.398438 C 512.230469 307.683594 512.480469 307.894531 513.875 310.046875 C 518.398438 317.148438 522.285156 329.613281 523.804688 342.203125 C 524.4375 347.273438 524.4375 357.289062 523.804688 360.289062 C 522.75 365.488281 514.003906 374.445312 504.917969 379.601562 C 494.992188 385.304688 485.148438 388.050781 461.066406 391.855469 C 438.589844 395.402344 430.011719 398.023438 421.773438 403.726562 C 418.6875 405.839844 413.113281 411.332031 413.113281 412.261719 C 413.113281 412.515625 411.675781 411.121094 409.902344 409.21875 C 404.746094 403.683594 399.71875 400.558594 391.269531 397.640625 C 385.355469 395.570312 379.734375 394.390625 361.992188 391.429688 C 346.316406 388.851562 339.472656 387.375 332.671875 385.050781 C 327.515625 383.277344 321.136719 380.148438 317.039062 377.402344 C 311.082031 373.429688 303.8125 365.910156 302.125 361.980469 C 301.066406 359.527344 300.898438 349.132812 301.742188 341.992188 C 303.347656 328.894531 307.445312 316.007812 312.222656 309.160156 L 313.617188 307.132812 L 313.910156 312.625 C 314.082031 315.835938 314.585938 319.511719 315.09375 321.5 Z M 598.375 316.386719 C 606.402344 319.300781 610.289062 324.667969 611.683594 334.851562 C 613.246094 346.007812 608.515625 356.992188 600.53125 360.753906 C 589.375 366.035156 575.984375 360.164062 572.347656 348.414062 C 571.460938 345.625 571.335938 344.316406 571.335938 339.035156 C 571.335938 333.878906 571.503906 332.359375 572.347656 329.402344 C 574.335938 322.386719 580.207031 316.851562 587.261719 315.371094 C 590.136719 314.78125 595.164062 315.203125 598.375 316.386719 Z M 242.722656 316.722656 C 245.085938 317.824219 247.664062 320.78125 248.847656 323.78125 C 249.691406 325.894531 249.820312 326.90625 249.820312 332.695312 C 249.820312 338.316406 249.691406 339.710938 248.847656 342.542969 C 247.832031 345.921875 245.550781 351.625 244.960938 352.261719 C 244.664062 352.597656 240.523438 350.738281 238.917969 349.515625 C 238.160156 348.921875 238.160156 348.839844 239.425781 346.980469 C 242.550781 342.375 244.199219 334.976562 243.355469 329.484375 C 242.59375 324.625 240.988281 322.132812 238.582031 322.132812 C 235.707031 322.132812 234.738281 323.652344 232.707031 331.046875 C 230.808594 337.9375 228.1875 343.175781 224.933594 346.472656 C 222.398438 349.132812 222.273438 349.175781 220.117188 349.175781 C 215.046875 349.175781 211.035156 345.121094 209.851562 338.78125 C 209.300781 335.78125 209.597656 330.078125 210.527344 326.613281 C 211.203125 324.035156 213.1875 318.753906 213.652344 318.246094 C 213.78125 318.078125 215.089844 318.582031 216.484375 319.386719 L 219.0625 320.824219 L 217.835938 323.316406 C 217.160156 324.667969 216.316406 327.371094 215.976562 329.359375 C 214.710938 336.457031 216.441406 341.570312 220.117188 341.570312 C 221.933594 341.570312 223.160156 339.457031 225.90625 331.300781 C 230.511719 317.652344 232.75 315.035156 239.257812 315.710938 C 240.1875 315.792969 241.75 316.257812 242.722656 316.722656 Z M 250.453125 361.558594 L 250.453125 365.0625 L 248.046875 365.570312 C 243.058594 366.585938 238.414062 369.542969 235.582031 373.429688 C 234.398438 375.078125 234.398438 375.121094 234.398438 381.375 L 234.398438 387.628906 L 250.875 387.628906 L 250.875 394.390625 L 213.316406 394.390625 L 212.429688 391.390625 C 210.570312 385.136719 209.808594 380.105469 209.976562 374.742188 C 210.105469 370.558594 210.316406 369.289062 211.121094 367.429688 C 213.441406 362.191406 219.398438 359.613281 225.570312 361.175781 C 227.851562 361.769531 228.652344 362.234375 230.636719 364.21875 L 233.003906 366.542969 L 235.496094 364.386719 C 238.539062 361.769531 242.300781 359.867188 246.355469 358.851562 C 250.75 357.796875 250.453125 357.585938 250.453125 361.558594 Z M 609.992188 377.023438 C 609.992188 377.699219 603.742188 386.191406 599.347656 391.429688 C 596.894531 394.347656 593.347656 398.191406 591.445312 399.964844 L 588.023438 403.261719 L 610.121094 403.261719 L 609.910156 406.644531 C 609.78125 408.5 609.613281 410.109375 609.488281 410.234375 C 609.359375 410.359375 600.277344 410.402344 589.25 410.359375 L 569.222656 410.234375 L 576.617188 403.9375 C 585.191406 396.628906 590.644531 391.21875 593.980469 386.78125 C 595.25 385.050781 596.472656 383.359375 596.644531 383.066406 C 596.894531 382.640625 594.359375 382.601562 582.996094 382.8125 L 569.011719 383.105469 L 569.011719 376.640625 L 589.503906 376.640625 C 600.910156 376.640625 609.992188 376.8125 609.992188 377.023438 Z M 216.652344 415.304688 L 216.652344 428.191406 L 225.441406 428.191406 L 225.609375 418.347656 C 225.78125 407.867188 225.78125 407.867188 228.1875 404.824219 C 229.878906 402.753906 230.976562 402.796875 233.34375 404.996094 L 235.242188 406.726562 L 234.019531 408.5 C 232.203125 411.164062 231.863281 412.9375 231.863281 420.882812 L 231.863281 428.191406 L 233.890625 428.191406 C 234.988281 428.191406 237.734375 428.320312 239.976562 428.488281 L 244.074219 428.742188 L 243.820312 415.558594 L 243.566406 402.417969 L 251.003906 402.417969 L 250.75 408.417969 C 250.578125 411.753906 250.453125 419.148438 250.453125 424.9375 L 250.453125 435.375 L 230.300781 435.292969 L 210.105469 435.164062 L 209.976562 418.769531 L 209.894531 402.417969 L 216.652344 402.417969 Z M 609.570312 443.40625 L 609.570312 459.882812 L 603.234375 459.882812 L 603.234375 433.6875 L 593.9375 433.6875 L 593.9375 442.855469 C 593.9375 447.925781 593.769531 452.742188 593.558594 453.628906 C 593.136719 455.488281 590.261719 459.039062 589.164062 459.039062 C 588.742188 459.039062 587.515625 458.195312 586.460938 457.179688 L 584.476562 455.363281 L 585.828125 453.335938 C 587.601562 450.671875 587.769531 449.363281 587.6875 439.6875 L 587.601562 433.6875 L 575.773438 433.6875 L 575.6875 446.65625 L 575.558594 459.671875 L 572.308594 459.800781 L 569.011719 459.925781 L 569.011719 426.925781 L 609.570312 426.925781 Z M 218.34375 443.742188 C 231.652344 448.515625 239.382812 452.488281 247.664062 458.785156 L 250.960938 461.320312 L 249.355469 462.757812 C 246.734375 464.953125 238.792969 470.195312 234.398438 472.519531 C 229.03125 475.347656 222.398438 478.136719 215.640625 480.378906 L 210.105469 482.277344 L 209.976562 478.8125 C 209.894531 476.914062 210.019531 475.222656 210.191406 475.054688 C 210.402344 474.84375 213.0625 473.828125 216.1875 472.773438 C 225.609375 469.558594 233.636719 465.628906 238.199219 462.039062 C 239.257812 461.195312 239.257812 461.195312 238.414062 460.558594 C 237.949219 460.222656 235.203125 458.699219 232.285156 457.179688 C 226.667969 454.265625 221.132812 451.980469 214.457031 449.785156 L 210.316406 448.390625 L 210.316406 441.207031 L 211.710938 441.503906 C 212.429688 441.671875 215.429688 442.6875 218.34375 443.742188 Z M 578.390625 473.449219 C 580.082031 474.417969 581.558594 475.265625 581.644531 475.347656 C 581.730469 475.390625 581.09375 476.574219 580.292969 477.925781 C 577.25 482.914062 575.773438 489.757812 576.617188 495.039062 C 577.460938 500.449219 579.488281 503.027344 582.445312 502.308594 C 584.476562 501.800781 585.40625 500.109375 587.179688 493.730469 C 589.332031 486.039062 591.953125 480.925781 595.460938 477.417969 C 599.558594 473.320312 605.980469 475.433594 608.980469 481.941406 C 610.164062 484.476562 610.203125 484.855469 610.164062 490.308594 C 610.164062 495.378906 610.035156 496.433594 608.980469 499.601562 C 607.753906 503.320312 606.359375 506.363281 605.9375 506.363281 C 605.132812 506.363281 601.121094 503.660156 601.289062 503.238281 C 603.023438 499.351562 603.78125 496.816406 604.164062 493.773438 C 604.921875 487.601562 603.570312 483.671875 600.445312 482.871094 C 598.332031 482.320312 596.980469 484.433594 594.191406 492.84375 C 591.402344 501.125 590.261719 503.660156 588.191406 506.238281 C 586.460938 508.351562 584.558594 509.070312 581.304688 508.816406 C 575.6875 508.390625 571.632812 504.25 570.238281 497.492188 C 569.601562 494.492188 569.984375 486.292969 570.914062 482.703125 C 571.589844 480.25 574.84375 471.714844 575.136719 471.714844 C 575.222656 471.714844 576.660156 472.519531 578.390625 473.449219 Z M 250.367188 491.027344 L 250.496094 494.109375 L 209.894531 494.109375 L 209.894531 487.773438 L 230.089844 487.855469 L 250.242188 487.984375 Z M 250.453125 501.886719 C 250.453125 501.96875 247.074219 504.886719 242.976562 508.308594 C 232.792969 516.84375 227.003906 522.757812 223.625 528 L 222.90625 529.183594 L 250.917969 529.183594 L 250.792969 532.011719 L 250.664062 534.886719 L 230.089844 535.011719 C 218.722656 535.054688 209.472656 534.972656 209.472656 534.800781 C 209.472656 534.292969 214.246094 527.746094 217.878906 523.265625 C 219.652344 521.070312 223.414062 516.886719 226.285156 513.96875 C 229.117188 511.097656 231.441406 508.644531 231.441406 508.605469 C 231.441406 508.519531 226.496094 508.476562 220.457031 508.476562 L 209.472656 508.476562 L 209.472656 501.714844 L 229.960938 501.714844 C 241.242188 501.714844 250.453125 501.800781 250.453125 501.886719 Z M 609.992188 524.324219 L 609.992188 527.492188 L 569.011719 527.492188 L 569.011719 521.152344 L 609.992188 521.152344 Z M 574.417969 538.648438 C 584.855469 542.578125 592.585938 546.464844 600.148438 551.660156 C 604.375 554.535156 609.949219 558.84375 609.992188 559.183594 C 609.992188 559.605469 603.277344 564.675781 598.796875 567.632812 C 593.390625 571.140625 582.109375 576.84375 574.503906 579.84375 L 569.222656 581.914062 L 568.96875 578.070312 C 568.800781 575.914062 568.800781 574.054688 568.96875 573.929688 C 569.097656 573.804688 570.449219 573.378906 571.96875 572.957031 C 573.488281 572.578125 575.136719 571.945312 575.6875 571.605469 L 576.617188 570.972656 L 576.53125 558.886719 L 576.40625 546.800781 L 573.660156 545.832031 C 572.136719 545.28125 570.574219 544.859375 570.195312 544.816406 C 569.644531 544.816406 569.433594 544.476562 569.433594 543.632812 C 569.433594 543 569.308594 541.222656 569.136719 539.617188 C 569.011719 538.054688 569.011719 536.789062 569.179688 536.789062 C 569.351562 536.789062 571.671875 537.632812 574.417969 538.648438 Z M 237.734375 543.378906 C 242.679688 544.476562 246.988281 547.730469 249.144531 551.914062 C 250.621094 554.832031 251.382812 558.886719 250.917969 561.421875 C 249.398438 569.660156 244.285156 574.691406 236.003906 576.085938 C 231.738281 576.84375 223.582031 576.378906 217.203125 575.027344 C 209.429688 573.421875 209.894531 573.761719 209.894531 569.746094 C 209.894531 567.886719 209.976562 566.367188 210.0625 566.367188 C 210.148438 566.367188 211.035156 566.660156 212.046875 567.042969 C 215.34375 568.183594 221.386719 569.324219 225.949219 569.578125 C 237.230469 570.296875 244.117188 566.449219 244.117188 559.519531 C 244.117188 556.226562 241.199219 551.789062 237.988281 550.183594 C 233.554688 547.941406 226.246094 548.367188 213.738281 551.578125 C 211.878906 552.042969 210.273438 552.421875 210.148438 552.421875 C 210.019531 552.421875 209.894531 550.816406 209.894531 548.871094 L 209.894531 545.324219 L 215.765625 544.222656 C 225.992188 542.238281 231.652344 542.027344 237.734375 543.378906 Z M 237.734375 543.378906 " fill-opacity="1" fill-rule="nonzero"/><path fill="#000000" d="M 426.125 137.394531 C 423.503906 140.308594 419.535156 147.917969 417.972656 152.988281 L 417.71875 153.957031 L 437.703125 153.957031 L 437.40625 152.777344 C 436.433594 148.804688 431.28125 139.253906 428.828125 136.929688 L 427.605469 135.746094 Z M 426.125 137.394531 " fill-opacity="1" fill-rule="nonzero"/><path fill="#000000" d="M 231.949219 235.722656 C 228.949219 237.199219 225.316406 239.3125 223.835938 240.410156 L 221.132812 242.398438 L 222.398438 243.414062 C 226.03125 246.414062 233.679688 250.847656 236.847656 251.777344 L 237.777344 252.03125 L 237.777344 242.523438 C 237.777344 237.285156 237.695312 232.976562 237.609375 232.976562 C 237.484375 232.976562 234.949219 234.199219 231.949219 235.722656 Z M 231.949219 235.722656 " fill-opacity="1" fill-rule="nonzero"/><path fill="#000000" d="M 576.617188 278.484375 C 576.617188 283.34375 576.828125 287.949219 577.039062 288.792969 C 577.546875 290.652344 580.757812 293.738281 583.628906 295.214844 C 589.757812 298.257812 595.585938 297.582031 599.855469 293.273438 C 603.527344 289.640625 604.289062 286.425781 603.867188 276.667969 L 603.570312 269.738281 L 576.617188 269.738281 Z M 576.617188 278.484375 " fill-opacity="1" fill-rule="nonzero"/><path fill="#000000" d="M 588.65625 321.667969 C 585.320312 322.554688 581.433594 325.683594 579.871094 328.726562 C 579.53125 329.402344 578.898438 332.105469 578.476562 334.765625 C 577.84375 338.867188 577.800781 340.089844 578.222656 342.921875 C 579.066406 348.625 581.179688 352.007812 585.234375 354.164062 C 587.136719 355.175781 587.855469 355.304688 591.613281 355.304688 C 595.417969 355.304688 596.09375 355.175781 598.289062 354.078125 C 603.105469 351.710938 605.132812 346.980469 605.132812 337.980469 C 605.132812 332.824219 605.050781 332.316406 603.953125 329.90625 C 602.515625 326.78125 599.558594 323.78125 596.726562 322.511719 C 594.488281 321.542969 590.6875 321.117188 588.65625 321.667969 Z M 588.65625 321.667969 " fill-opacity="1" fill-rule="nonzero"/><path fill="#000000" d="M 219.230469 367.640625 C 218.46875 368.023438 217.371094 369.078125 216.78125 369.964844 C 215.765625 371.488281 215.683594 371.824219 215.9375 375.5 C 216.0625 377.613281 216.484375 381.164062 216.90625 383.277344 L 217.667969 387.207031 L 228.484375 387.207031 L 228.484375 378.921875 C 228.484375 371.359375 228.398438 370.558594 227.636719 369.457031 C 225.949219 367.09375 222.105469 366.246094 219.230469 367.640625 Z M 219.230469 367.640625 " fill-opacity="1" fill-rule="nonzero"/><path fill="#000000" d="M 582.109375 559.605469 L 582.109375 569.28125 L 585.320312 567.84375 C 590.304688 565.5625 594.359375 563.15625 597.699219 560.535156 L 598.710938 559.730469 L 595.585938 557.367188 C 592.292969 554.914062 588.574219 552.761719 584.558594 550.984375 L 582.109375 549.886719 Z M 582.109375 559.605469 " fill-opacity="1" fill-rule="nonzero"/><path fill="#000000" d="M 391.355469 441.039062 C 390.425781 441.417969 389.15625 442.222656 388.566406 442.898438 C 387.46875 444.121094 387.425781 444.335938 387.128906 451.6875 C 386.960938 455.871094 386.917969 475.519531 387.085938 495.378906 C 387.382812 532.222656 387.171875 540.84375 385.820312 549.464844 C 383.328125 565.5625 376.3125 576.886719 362.074219 587.875 C 360.175781 589.394531 358.652344 590.664062 358.738281 590.746094 C 358.949219 590.917969 364.316406 589.394531 368.539062 587.875 C 376.734375 585 383.15625 581.15625 388.226562 576.128906 C 393.507812 570.886719 396.890625 564.800781 399.972656 555.210938 C 403.394531 544.519531 403.816406 537.082031 403.816406 485.320312 C 403.816406 440.363281 404.027344 443.320312 400.777344 441.671875 C 398.496094 440.53125 393.679688 440.191406 391.355469 441.039062 Z M 391.355469 441.039062 " fill-opacity="1" fill-rule="nonzero"/><path fill="#000000" d="M 426.210938 441.082031 C 425.152344 441.417969 423.757812 442.222656 423.167969 442.855469 L 422.027344 444.039062 L 421.898438 488.40625 C 421.816406 533.957031 421.898438 538.140625 423.503906 547.308594 C 424.265625 551.703125 427.390625 561.167969 429.460938 565.265625 C 433.984375 574.269531 440.617188 580.519531 450.546875 585.253906 C 454.261719 586.988281 462.753906 589.988281 465.921875 590.664062 C 467.277344 590.957031 467.105469 590.746094 464.105469 588.421875 C 451.261719 578.535156 444.164062 568.691406 441.039062 556.351562 C 438.417969 546 438.125 538.183594 438.335938 487.136719 C 438.589844 441.039062 438.714844 443.53125 435.546875 441.757812 C 433.265625 440.488281 428.996094 440.191406 426.210938 441.082031 Z M 426.210938 441.082031 " fill-opacity="1" fill-rule="nonzero"/><path fill="#000000" d="M 471.164062 620.664062 C 465.121094 625.566406 462.375 629.496094 461.023438 635.453125 C 460.472656 637.859375 460.304688 641.792969 460.179688 656.367188 C 459.964844 677.285156 459.671875 681.425781 457.644531 689.242188 C 455.828125 696.34375 454.304688 700.273438 452.234375 703.441406 C 450.671875 705.722656 445.601562 710.707031 442.730469 712.695312 C 442.011719 713.203125 441.417969 713.75 441.417969 713.921875 C 441.417969 714.089844 442.304688 714.132812 443.445312 714.046875 C 444.546875 713.921875 448.8125 713.75 452.910156 713.667969 C 464.824219 713.328125 471.882812 711.933594 478.304688 708.722656 C 485.824219 704.917969 491.316406 699.59375 493.386719 694.058594 C 495.5 688.484375 495.582031 687.339844 495.878906 659.539062 L 496.175781 633.339844 L 498.328125 628.269531 C 499.511719 625.480469 501.074219 621.929688 501.792969 620.324219 C 503.441406 616.691406 502.890625 616.945312 497.695312 622.3125 C 493.386719 626.789062 491.992188 629.15625 490.34375 635.03125 C 489.414062 638.324219 489.371094 638.75 489.5 656.367188 C 489.667969 674.582031 489.246094 683.792969 488.105469 689.539062 C 487.34375 693.089844 484.851562 698.160156 482.78125 700.3125 C 480.796875 702.382812 476.824219 704.539062 472.09375 706.1875 C 468.417969 707.496094 468.164062 707.496094 461.824219 707.414062 L 455.363281 707.285156 L 456.839844 705.214844 C 460.515625 700.019531 464.023438 691.734375 465.289062 685.019531 C 466.304688 679.695312 466.769531 665.621094 466.261719 655.101562 C 465.375 636.425781 466.09375 632.875 473.0625 621.339844 C 474.246094 619.394531 475.175781 617.746094 475.132812 617.664062 C 475.050781 617.621094 473.273438 618.972656 471.164062 620.664062 Z M 471.164062 620.664062 " fill-opacity="1" fill-rule="nonzero"/><path fill="#000000" d="M 510.960938 620.113281 C 508.003906 623.367188 505.765625 626.707031 504.75 629.285156 C 503.398438 632.875 503.0625 637.777344 502.679688 657.425781 C 502.300781 678.003906 501.921875 684.46875 500.527344 694.484375 C 499.46875 702.257812 498.117188 707.707031 496.175781 711.933594 C 495.328125 713.75 494.652344 715.316406 494.652344 715.441406 C 494.652344 715.609375 495.539062 714.851562 496.597656 713.835938 C 500.484375 710.03125 504.160156 703.90625 506.273438 697.652344 C 508.300781 691.523438 508.554688 688.230469 509.019531 662.285156 C 509.523438 631.691406 509.523438 631.902344 511.765625 624.042969 C 512.777344 620.535156 513.539062 617.664062 513.453125 617.578125 C 513.410156 617.496094 512.269531 618.636719 510.960938 620.113281 Z M 510.960938 620.113281 " fill-opacity="1" fill-rule="nonzero"/><path fill="#000000" d="M 633.144531 620.367188 C 626.300781 627.636719 625.246094 631.820312 625.203125 651.296875 C 625.203125 668.582031 624.230469 685.820312 622.667969 696.171875 C 621.570312 703.441406 620.386719 707.878906 618.441406 712.019531 C 617.554688 713.960938 616.964844 715.527344 617.175781 715.527344 C 617.9375 715.527344 622.625 709.863281 624.441406 706.738281 C 628.074219 700.609375 630.019531 694.355469 630.695312 686.625 C 630.90625 684.046875 631.285156 670.691406 631.539062 656.960938 C 632.003906 629.453125 631.878906 630.804688 635.046875 620.75 C 635.636719 618.972656 636.0625 617.496094 635.976562 617.496094 C 635.933594 617.496094 634.625 618.804688 633.144531 620.367188 Z M 633.144531 620.367188 " fill-opacity="1" fill-rule="nonzero"/><path fill="#000000" d="M 346.484375 619.902344 C 342.386719 624.890625 340.402344 628.691406 339.597656 633.339844 C 339.34375 635.03125 338.964844 644.453125 338.753906 655.523438 C 338.375 676.441406 337.867188 685.566406 336.597656 695.664062 C 335.585938 703.777344 334.613281 707.960938 332.671875 712.527344 L 331.148438 716.117188 L 332.671875 714.636719 C 335.921875 711.554688 339.554688 705.132812 341.414062 699.214844 C 343.695312 691.988281 343.867188 690.089844 344.246094 663.550781 C 344.710938 632.621094 344.753906 632.285156 346.527344 625.144531 C 347.371094 621.929688 348.132812 619.015625 348.300781 618.636719 C 348.726562 617.453125 348.261719 617.789062 346.484375 619.902344 Z M 346.484375 619.902344 " fill-opacity="1" fill-rule="nonzero"/><path fill="#000000" d="M 534.15625 620.875 C 531.832031 622.3125 529.929688 623.496094 529.890625 623.535156 C 529.804688 623.621094 528.03125 639.679688 528.03125 640.398438 C 528.03125 640.734375 527.355469 641.328125 526.507812 641.792969 C 523.382812 643.480469 521.523438 646.4375 515.863281 658.691406 C 512.777344 665.371094 512.695312 666.636719 515.691406 661.523438 C 517.085938 659.15625 519.117188 655.988281 520.214844 654.46875 C 522.199219 651.679688 526.171875 647.496094 526.804688 647.496094 C 527.269531 647.496094 527.269531 647.621094 526.550781 656.15625 C 525.707031 665.792969 525.707031 685.1875 526.507812 689.496094 C 527.609375 695.203125 530.480469 700.949219 533.816406 704.285156 C 537.621094 708.046875 546.15625 711.847656 553.972656 713.203125 C 556.042969 713.539062 559.84375 713.835938 562.421875 713.835938 C 568.632812 713.835938 580.589844 712.441406 585.871094 711.089844 C 592.628906 709.398438 608.429688 703.019531 618.230469 698.074219 L 620.9375 696.722656 L 607.667969 696.722656 L 602.175781 694.101562 C 599.175781 692.664062 595.542969 691.1875 594.191406 690.808594 C 591.109375 689.917969 587.515625 690.128906 584.898438 691.441406 C 581.304688 693.171875 577.503906 697.230469 575.941406 701.03125 L 575.265625 702.597656 L 576.277344 701.878906 C 582.53125 697.441406 584.011719 696.890625 589.503906 696.847656 C 593.179688 696.847656 598.839844 697.988281 602.601562 699.511719 L 603.867188 700.019531 L 600.066406 701.792969 C 592.164062 705.511719 574.714844 708.636719 564.027344 708.214844 C 556.886719 707.960938 553.082031 707.03125 547.042969 704.074219 C 539.351562 700.273438 534.15625 694.058594 532 686.160156 C 530.777344 681.554688 530.777344 672.804688 532 659.117188 C 532.636719 652.355469 533.226562 646.523438 533.351562 646.101562 C 533.480469 645.722656 533.816406 645.382812 534.113281 645.382812 C 535.339844 645.382812 535.71875 646.691406 535.886719 651.339844 C 536.058594 656.832031 536.777344 658.777344 539.523438 661.226562 C 542.773438 664.1875 544.296875 664.609375 551.691406 664.609375 C 557.265625 664.609375 558.746094 664.441406 561.703125 663.59375 C 565.632812 662.496094 569.265625 660.511719 571.757812 658.058594 L 573.488281 656.367188 L 575.6875 657.214844 C 578.304688 658.226562 582.109375 658.3125 584.601562 657.425781 C 585.574219 657.085938 588.023438 655.734375 590.050781 654.382812 C 593.390625 652.1875 593.980469 651.972656 596.472656 651.804688 C 599.8125 651.59375 599.980469 651.761719 603.234375 657.511719 C 604.457031 659.664062 605.597656 661.355469 605.769531 661.226562 C 605.894531 661.144531 607.121094 659.621094 608.472656 657.890625 L 610.921875 654.679688 L 608.558594 651.847656 C 604.585938 647.074219 603.148438 641.664062 604.882812 638.242188 C 605.429688 637.226562 605.726562 636.339844 605.640625 636.214844 C 605.515625 636.128906 604.710938 636.171875 603.867188 636.339844 C 601.289062 636.804688 600.488281 637.945312 599.640625 642.085938 C 599.21875 644.15625 598.796875 645.804688 598.628906 645.804688 C 598.5 645.804688 597.613281 645.296875 596.769531 644.707031 C 595.882812 644.113281 595.078125 643.691406 595.039062 643.777344 C 594.996094 643.820312 594.53125 644.578125 594.023438 645.425781 C 592.882812 647.285156 589.082031 650.960938 587.222656 651.890625 C 585.023438 653.03125 581.941406 653.242188 579.996094 652.355469 C 578.136719 651.507812 577.882812 651.042969 579.109375 650.664062 C 579.574219 650.539062 580.546875 649.734375 581.222656 648.933594 C 582.320312 647.707031 582.53125 647.113281 582.53125 645.339844 C 582.53125 644.199219 582.277344 642.636719 581.941406 641.875 C 581.304688 640.355469 579.195312 638.367188 577.503906 637.691406 C 575.898438 637.058594 570.066406 637.183594 563.773438 637.988281 C 560.730469 638.367188 557.183594 638.832031 555.914062 638.960938 L 553.589844 639.253906 L 553.082031 642.425781 C 552.28125 647.453125 552.070312 647.113281 555.617188 646.820312 C 560.859375 646.355469 565.925781 648.042969 569.816406 651.550781 L 571.714844 653.285156 L 568.546875 655.101562 C 562.503906 658.652344 558.578125 659.75 551.605469 659.75 C 547.085938 659.75 546.324219 659.453125 543.449219 656.75 C 540.746094 654.214844 539.523438 651.46875 538.972656 646.734375 C 538.550781 642.804688 537.15625 640.144531 535.507812 639.972656 C 534.875 639.890625 534.367188 639.679688 534.367188 639.507812 C 534.367188 639.003906 537.15625 625.3125 537.957031 621.972656 C 538.339844 620.410156 538.59375 618.929688 538.507812 618.71875 C 538.421875 618.507812 536.480469 619.480469 534.15625 620.875 Z M 576.195312 641.664062 C 578.476562 642.804688 578.730469 643.691406 577.378906 645.636719 C 576.574219 646.820312 576.238281 647.03125 575.347656 646.863281 C 573.742188 646.480469 565.96875 642.253906 566.011719 641.792969 C 566.011719 641.242188 568.125 640.863281 571.546875 640.777344 C 573.660156 640.734375 574.757812 640.945312 576.195312 641.664062 Z M 576.195312 641.664062 " fill-opacity="1" fill-rule="nonzero"/><path fill="#000000" d="M 386.496094 621.042969 C 382.523438 623.875 379.945312 626.621094 378.59375 629.578125 C 377.75 631.394531 377.539062 632.789062 377.328125 636.59375 L 377.074219 641.367188 L 374.453125 644.113281 C 371.582031 647.15625 366.386719 653.582031 362.582031 658.863281 L 360.089844 662.285156 L 359.964844 648.003906 L 359.878906 633.71875 L 361.355469 628.3125 C 362.160156 625.3125 362.792969 622.777344 362.667969 622.691406 C 362.246094 622.269531 357.300781 628.355469 356.160156 630.679688 C 354.257812 634.609375 353.964844 638.113281 353.964844 658.480469 C 353.964844 685.949219 352.863281 696.890625 349.273438 705.046875 C 348.554688 706.652344 348.046875 708.089844 348.175781 708.171875 C 348.472656 708.511719 352.105469 704.242188 353.964844 701.453125 C 354.894531 700.019531 356.246094 697.355469 356.921875 695.539062 C 359.246094 689.625 359.539062 687.46875 359.75 675.59375 L 359.964844 664.609375 L 364.230469 659.960938 C 370.273438 653.328125 374.664062 648.847656 376.058594 647.832031 L 377.285156 646.945312 L 377.074219 667.609375 C 376.820312 693.847656 376.480469 696.003906 371.75 700.863281 C 370.101562 702.554688 369.257812 703.0625 366.425781 703.90625 C 364.566406 704.496094 361.90625 705.171875 360.511719 705.382812 C 359.117188 705.636719 357.214844 706.144531 356.289062 706.484375 C 354.175781 707.328125 349.992188 710.285156 348.046875 712.355469 L 346.570312 713.921875 L 348.976562 713.625 C 353.035156 713.160156 360.890625 711.46875 364.738281 710.242188 C 371.414062 708.132812 374.285156 705.214844 376.820312 698.160156 L 378.171875 694.3125 L 378.933594 697.949219 C 379.90625 702.808594 381.257812 705.554688 384.046875 708.382812 C 388.566406 712.949219 392.917969 714.554688 399.382812 714.046875 C 404.15625 713.707031 414.464844 711.976562 418.476562 710.878906 C 420.125 710.414062 422.578125 709.566406 423.929688 708.976562 C 425.238281 708.382812 426.378906 707.960938 426.378906 708.003906 C 427.222656 710.328125 430.054688 710.496094 433.390625 708.425781 C 435.417969 707.160156 435.632812 707.117188 436.476562 707.707031 C 436.984375 708.046875 438.292969 708.34375 439.476562 708.34375 C 441.335938 708.34375 441.714844 708.171875 443.066406 706.738281 C 444.839844 704.878906 445.601562 702.722656 445.941406 698.539062 L 446.195312 695.539062 L 445.179688 695.792969 C 444.628906 695.960938 443.828125 696.089844 443.445312 696.089844 C 442.8125 696.089844 442.6875 696.46875 442.6875 698.453125 C 442.6875 701.285156 441.714844 703.523438 440.195312 704.285156 C 438.378906 705.214844 438.039062 704.792969 438.039062 701.328125 L 438.039062 698.203125 L 434.617188 698.203125 L 435.292969 699.46875 C 435.632812 700.144531 435.925781 701.160156 435.925781 701.707031 C 435.925781 702.976562 434.574219 704.792969 433.011719 705.597656 C 431.871094 706.144531 431.746094 706.101562 430.644531 704.960938 C 429.546875 703.820312 429.460938 703.566406 429.886719 702.214844 L 430.351562 700.695312 L 429.039062 701.582031 C 422.324219 705.976562 411.886719 708.933594 402.972656 708.933594 C 399.042969 708.933594 397.691406 708.765625 395.917969 708.046875 C 389.496094 705.46875 384.339844 698.707031 381.761719 689.539062 C 380.835938 686.242188 380.835938 685.566406 380.792969 665.75 C 380.792969 643.4375 380.664062 644.539062 383.242188 644.539062 C 385.945312 644.539062 386.917969 646.269531 386.917969 651.296875 C 386.917969 656.539062 389.074219 663.085938 391.648438 665.917969 C 394.015625 668.496094 396.507812 669.257812 402.128906 669.214844 C 407.875 669.171875 411.800781 667.90625 417.800781 664.269531 C 421.816406 661.863281 425.238281 660.171875 426.167969 660.171875 C 426.378906 660.171875 426.632812 660.890625 426.757812 661.734375 C 427.308594 665.117188 429.925781 666.890625 433.097656 666.046875 C 437.238281 664.988281 440.023438 662.410156 443.574219 656.328125 C 444.503906 654.722656 445.644531 653.242188 446.109375 652.988281 C 447.800781 652.058594 450.039062 653.621094 452.402344 657.257812 L 453.96875 659.707031 L 456.164062 657.003906 C 457.347656 655.523438 458.320312 654.085938 458.320312 653.875 C 458.320312 653.621094 457.558594 651.425781 456.671875 648.972656 C 455.65625 646.3125 454.898438 643.398438 454.683594 641.621094 C 454.433594 638.707031 454.390625 638.664062 453.671875 639.59375 C 452.023438 641.707031 451.09375 644.199219 451.09375 646.480469 L 451.09375 648.761719 L 449.445312 648.761719 C 446.066406 648.761719 444.460938 649.902344 441.546875 654.46875 C 437.953125 660.085938 436.265625 661.1875 433.519531 659.792969 C 432.589844 659.328125 431.617188 658.652344 431.320312 658.3125 C 430.730469 657.59375 430.5625 653.707031 431.109375 652.058594 C 431.363281 651.171875 431.320312 651.171875 430.5625 651.722656 C 430.097656 652.058594 428.28125 653.539062 426.589844 655.015625 C 422.914062 658.144531 414.886719 662.371094 411.167969 663.128906 C 407.113281 663.976562 400.394531 663.46875 396.847656 662.074219 C 391.355469 659.917969 390.382812 658.226562 389.875 649.691406 C 389.707031 646.523438 389.324219 643.398438 389.113281 642.804688 C 388.355469 640.863281 386.664062 639.890625 384.128906 639.890625 C 381.339844 639.890625 381.339844 639.933594 383.15625 633.171875 C 384.636719 627.679688 384.933594 626.960938 387.71875 622.777344 C 390.339844 618.847656 390.382812 618.761719 390.003906 618.761719 C 389.832031 618.761719 388.226562 619.820312 386.496094 621.042969 Z M 386.496094 621.042969 " fill-opacity="1" fill-rule="nonzero"/><path fill="#000000" d="M 332.882812 623.070312 C 329.035156 627.464844 327.390625 630.464844 325.996094 635.453125 C 325.066406 638.707031 325.023438 639.507812 324.980469 659.539062 C 324.9375 680.328125 324.558594 687.804688 323.289062 692.582031 C 322.53125 695.539062 320.078125 700.273438 318.558594 701.707031 C 316.53125 703.609375 312.601562 705.722656 309.6875 706.398438 C 307.320312 706.949219 298.957031 707.917969 296.421875 707.917969 C 295.871094 707.917969 296.125 707.328125 297.601562 705.214844 C 304.363281 695.496094 305.800781 684.339844 304.953125 647.707031 C 304.742188 636.972656 305.292969 634.269531 309.644531 625.691406 C 311.25 622.480469 312.558594 619.820312 312.558594 619.691406 C 312.558594 619.140625 306.644531 624.890625 305.082031 627 C 300.347656 633.253906 299.925781 635.707031 299.714844 660.59375 C 299.546875 681.679688 299.417969 683.242188 296.800781 693.554688 C 294.601562 702.132812 292.152344 706.3125 285.816406 712.273438 L 283.617188 714.300781 L 291.433594 714.089844 C 300.433594 713.835938 305.589844 713.117188 309.941406 711.597656 C 318.304688 708.679688 325.867188 701.835938 328.191406 695.03125 C 330.175781 689.285156 330.386719 686.03125 330.558594 659.917969 L 330.683594 635.367188 L 332.246094 630.972656 C 333.09375 628.566406 334.402344 624.972656 335.203125 623.03125 C 336.007812 621.042969 336.558594 619.394531 336.472656 619.3125 C 336.386719 619.226562 334.78125 620.917969 332.882812 623.070312 Z M 332.882812 623.070312 " fill-opacity="1" fill-rule="nonzero"/><path fill="#000000" d="M 421.519531 620.15625 C 421.097656 620.496094 420.757812 621.675781 420.589844 623.410156 C 420.421875 625.015625 419.957031 626.578125 419.535156 627.171875 C 417.546875 629.875 416.070312 629.242188 416.070312 625.691406 C 416.070312 624.128906 415.902344 623.410156 415.5625 623.410156 C 414.507812 623.410156 413.914062 624.128906 413.660156 625.777344 C 413.324219 627.890625 412.097656 630.425781 411.167969 630.761719 C 409.226562 631.523438 408.296875 627.59375 409.691406 624.425781 C 410.578125 622.4375 410.578125 622.394531 409.773438 621.59375 C 408.972656 620.75 408.929688 620.789062 407.664062 623.621094 C 406.183594 626.875 406.015625 628.902344 406.984375 632.199219 C 407.449219 633.679688 407.875 634.394531 408.339844 634.394531 C 409.140625 634.394531 412.691406 632.199219 413.703125 631.058594 C 414.378906 630.296875 414.507812 630.296875 415.605469 630.890625 C 417.253906 631.859375 419.535156 631.3125 421.5625 629.496094 C 423.589844 627.679688 424.265625 625.691406 423.929688 622.945312 C 423.464844 619.523438 423.039062 619.015625 421.519531 620.15625 Z M 421.519531 620.15625 " fill-opacity="1" fill-rule="nonzero"/><path fill="#000000" d="M 621.1875 621.675781 C 617.21875 624.890625 614.089844 629.367188 612.992188 633.382812 C 612.738281 634.355469 612.234375 641.285156 611.894531 648.804688 C 611.175781 663.933594 611.007812 665.582031 609.359375 671.960938 C 607.964844 677.496094 606.570312 680.199219 602.386719 685.734375 C 600.53125 688.1875 599.175781 690.171875 599.347656 690.171875 C 599.515625 690.171875 601.375 689.074219 603.445312 687.722656 C 609.738281 683.625 613.839844 678.554688 615.230469 673.101562 C 616.332031 668.917969 617.175781 659.917969 617.597656 647.664062 C 617.808594 641.199219 618.191406 634.777344 618.441406 633.46875 C 619.035156 630.339844 621.484375 623.367188 622.542969 621.847656 C 623.597656 620.324219 624.019531 619.605469 623.851562 619.605469 C 623.765625 619.605469 622.582031 620.535156 621.1875 621.675781 Z M 621.1875 621.675781 " fill-opacity="1" fill-rule="nonzero"/><path fill="#000000" d="M 235.160156 620.789062 C 234.058594 621.425781 233.976562 621.71875 233.976562 624 C 233.976562 627.890625 231.863281 630.636719 230.132812 629.074219 C 229.539062 628.523438 229.328125 627.761719 229.328125 626.113281 C 229.328125 623.960938 229.285156 623.875 228.398438 624.214844 C 227.679688 624.464844 227.386719 625.101562 227.003906 626.875 C 226.457031 629.664062 225.398438 631.4375 224.257812 631.4375 C 222.527344 631.4375 221.976562 627.804688 223.246094 624.679688 C 223.792969 623.324219 223.835938 622.859375 223.414062 622.355469 C 223.117188 622.015625 222.738281 621.71875 222.570312 621.71875 C 222.359375 621.71875 221.640625 623.242188 220.921875 625.101562 C 218.765625 630.636719 219.359375 633.972656 222.441406 633.972656 C 224.34375 633.972656 226.667969 632.875 227.511719 631.566406 C 228.101562 630.679688 228.273438 630.636719 228.566406 631.183594 C 228.820312 631.648438 229.582031 631.859375 231.019531 631.859375 C 232.75 631.859375 233.34375 631.648438 234.609375 630.550781 C 236.976562 628.480469 237.484375 627.128906 237.230469 623.707031 C 237.144531 622.140625 236.890625 620.664062 236.679688 620.453125 C 236.46875 620.242188 235.792969 620.367188 235.160156 620.789062 Z M 235.160156 620.789062 " fill-opacity="1" fill-rule="nonzero"/><path fill="#000000" d="M 283.449219 621.464844 C 282.183594 622.394531 279.265625 625.945312 279.730469 625.945312 C 279.859375 625.945312 281.335938 625.269531 283.027344 624.464844 C 286.535156 622.777344 286.871094 622.734375 287.800781 623.664062 C 288.816406 624.636719 288.605469 626.03125 287.210938 628.015625 L 285.898438 629.789062 L 287.082031 629.15625 C 288.773438 628.3125 290.632812 626.367188 291.308594 624.761719 C 291.773438 623.578125 291.773438 623.242188 291.265625 622.183594 C 290.464844 620.707031 289.871094 620.453125 287.039062 620.453125 C 285.394531 620.453125 284.507812 620.707031 283.449219 621.464844 Z M 283.449219 621.464844 " fill-opacity="1" fill-rule="nonzero"/><path fill="#000000" d="M 440.277344 621.464844 C 438.757812 622.140625 435.671875 625.226562 434.53125 627.171875 L 433.773438 628.4375 L 437.742188 626.535156 C 442.09375 624.507812 443.445312 624.296875 444.503906 625.4375 C 445.8125 626.875 445.433594 628.226562 442.730469 631.859375 L 441.714844 633.214844 L 443.066406 632.496094 C 445.265625 631.355469 447.839844 628.820312 448.6875 626.917969 C 449.363281 625.355469 449.40625 624.972656 448.898438 623.75 C 448.558594 622.988281 448.011719 622.101562 447.628906 621.761719 C 446.574219 620.917969 441.925781 620.707031 440.277344 621.464844 Z M 440.277344 621.464844 " fill-opacity="1" fill-rule="nonzero"/><path fill="#000000" d="M 389.15625 625.144531 C 388.144531 625.859375 387.339844 626.496094 387.339844 626.621094 C 387.339844 627.085938 390.46875 631.4375 390.71875 631.355469 C 391.226562 631.101562 394.101562 627.761719 394.101562 627.339844 C 394.101562 627.128906 393.382812 626.285156 392.535156 625.4375 L 390.929688 623.917969 Z M 389.15625 625.144531 " fill-opacity="1" fill-rule="nonzero"/><path fill="#000000" d="M 397.566406 625.183594 L 395.746094 626.453125 L 396.464844 627.550781 C 396.890625 628.183594 397.605469 629.324219 398.070312 630.042969 C 398.578125 630.804688 399.085938 631.4375 399.253906 631.4375 C 399.382812 631.4375 400.269531 630.507812 401.242188 629.410156 L 402.929688 627.339844 L 401.15625 625.605469 L 399.382812 623.917969 Z M 397.566406 625.183594 " fill-opacity="1" fill-rule="nonzero"/><path fill="#000000" d="M 539.480469 626.832031 C 538.929688 627.296875 538.167969 627.847656 537.832031 628.015625 C 537.324219 628.3125 537.492188 628.820312 538.804688 630.972656 L 540.410156 633.59375 L 542.269531 631.777344 C 543.28125 630.804688 544.085938 629.789062 544.085938 629.539062 C 544.085938 629.074219 541.085938 625.945312 540.703125 625.945312 C 540.578125 625.988281 540.027344 626.367188 539.480469 626.832031 Z M 539.480469 626.832031 " fill-opacity="1" fill-rule="nonzero"/><path fill="#000000" d="M 545.859375 627.253906 L 544.085938 628.523438 L 545.859375 631.101562 L 547.589844 633.71875 L 549.40625 631.648438 L 551.183594 629.578125 L 549.660156 627.761719 C 548.816406 626.75 548.015625 625.945312 547.886719 625.945312 C 547.761719 625.988281 546.875 626.535156 545.859375 627.253906 Z M 545.859375 627.253906 " fill-opacity="1" fill-rule="nonzero"/><path fill="#000000" d="M 202.628906 627.507812 C 201.867188 628.144531 201.191406 628.691406 201.105469 628.734375 C 201.0625 628.777344 201.699219 629.960938 202.542969 631.394531 C 203.386719 632.832031 204.234375 633.847656 204.402344 633.679688 C 204.527344 633.507812 205.289062 632.539062 206.050781 631.523438 L 207.445312 629.75 L 206.007812 628.101562 C 205.246094 627.171875 204.484375 626.410156 204.316406 626.410156 C 204.191406 626.367188 203.429688 626.875 202.628906 627.507812 Z M 202.628906 627.507812 " fill-opacity="1" fill-rule="nonzero"/><path fill="#000000" d="M 209.765625 628.355469 C 208.921875 628.988281 208.246094 629.664062 208.203125 629.832031 C 208.203125 630.253906 210.867188 634.820312 211.160156 634.820312 C 211.289062 634.777344 212.046875 633.890625 212.894531 632.789062 L 214.457031 630.804688 L 211.332031 627.171875 Z M 209.765625 628.355469 " fill-opacity="1" fill-rule="nonzero"/><path fill="#000000" d="M 290.464844 632.496094 C 289.617188 633.085938 288.898438 633.71875 288.898438 633.890625 C 288.898438 634.058594 289.617188 635.285156 290.503906 636.636719 L 292.152344 639.042969 L 293.96875 636.890625 L 295.785156 634.734375 L 294.140625 633.085938 C 293.25 632.199219 292.40625 631.4375 292.28125 631.4375 C 292.152344 631.4375 291.351562 631.902344 290.464844 632.496094 Z M 290.464844 632.496094 " fill-opacity="1" fill-rule="nonzero"/><path fill="#000000" d="M 250.832031 632.242188 C 248.679688 632.917969 245.804688 634.859375 245.804688 635.707031 C 245.804688 636.214844 249.226562 635.621094 252.4375 634.523438 C 255.734375 633.425781 257.214844 633.636719 257.214844 635.15625 C 257.214844 636.636719 256.324219 636.933594 251.972656 636.972656 C 246.777344 636.972656 245.085938 637.523438 243.820312 639.46875 C 242.085938 642.214844 240.988281 643.355469 239.722656 643.902344 C 237.949219 644.621094 228.398438 644.917969 228.1875 644.242188 C 227.851562 643.3125 229.960938 642.507812 233.808594 642.042969 C 235.878906 641.792969 238.664062 641.242188 239.933594 640.863281 L 242.214844 640.101562 L 239.46875 639.972656 C 237.949219 639.890625 234.523438 640.058594 231.863281 640.3125 C 225.1875 640.945312 222.949219 642.128906 223.582031 644.707031 C 224.046875 646.648438 226.074219 647.199219 232.242188 646.988281 C 237.3125 646.820312 237.695312 646.734375 240.523438 645.382812 C 242.128906 644.578125 244.285156 643.101562 245.296875 642.171875 C 247.03125 640.523438 247.328125 640.398438 250.367188 640.101562 C 257.214844 639.46875 260.59375 637.648438 260.59375 634.566406 C 260.59375 632.285156 259.789062 631.859375 255.609375 631.902344 C 253.578125 631.902344 251.425781 632.074219 250.832031 632.242188 Z M 250.832031 632.242188 " fill-opacity="1" fill-rule="nonzero"/><path fill="#000000" d="M 412.691406 637.777344 C 412.351562 638.410156 412.351562 639.042969 412.691406 640.144531 C 413.113281 641.410156 413.070312 641.75 412.4375 642.46875 C 411.507812 643.480469 409.902344 643.480469 406.902344 642.425781 C 404.238281 641.496094 403.523438 641.664062 405 642.890625 C 406.816406 644.367188 410.660156 644.960938 412.816406 644.15625 C 414.421875 643.523438 416.914062 641.15625 416.914062 640.269531 C 416.914062 639.339844 416.746094 639.296875 415.5625 639.933594 C 414.886719 640.269531 414.550781 640.269531 414.085938 639.761719 C 413.367188 639.042969 413.660156 638.199219 414.589844 638.199219 C 414.972656 638.199219 415.097656 637.945312 414.972656 637.566406 C 414.589844 636.636719 413.238281 636.804688 412.691406 637.777344 Z M 412.691406 637.777344 " fill-opacity="1" fill-rule="nonzero"/><path fill="#000000" d="M 277.832031 643.144531 L 275.84375 644.75 L 275.800781 649.269531 C 275.800781 651.761719 275.632812 654.257812 275.378906 654.847656 C 274.789062 656.410156 273.4375 656.242188 271.703125 654.425781 C 270.308594 652.902344 270.226562 652.902344 269.675781 653.707031 C 268.367188 655.566406 262.917969 657.003906 261.902344 655.777344 C 261.226562 654.933594 261.605469 653.832031 263.339844 651.507812 L 264.816406 649.609375 L 262.367188 650.707031 C 261.058594 651.296875 257.59375 652.777344 254.679688 654.046875 C 245.933594 657.761719 245.214844 657.679688 246.398438 652.902344 C 246.863281 651.214844 247.285156 649.566406 247.410156 649.269531 C 247.496094 648.972656 245.722656 649.945312 243.441406 651.425781 C 223.710938 664.3125 214.371094 664.144531 210.949219 650.875 C 209.640625 645.804688 208.835938 644.960938 205.246094 644.960938 C 202.203125 644.960938 200.472656 645.933594 198.0625 648.890625 C 194.640625 653.117188 192.996094 656.792969 190.628906 665.453125 C 189.402344 669.804688 188.601562 681.722656 189.53125 681.128906 C 189.824219 680.960938 190.035156 680.539062 190.035156 680.160156 C 190.035156 678.679688 192.316406 669.425781 193.671875 665.242188 C 195.992188 658.1875 201.0625 650.453125 203.304688 650.453125 C 205.160156 650.453125 205.414062 651.042969 205.710938 655.480469 C 206.050781 660.003906 206.554688 661.398438 208.921875 663.636719 C 213.316406 667.820312 219.90625 666.847656 234.019531 659.917969 C 240.3125 656.832031 241.074219 656.539062 240.652344 657.46875 C 240.230469 658.3125 240.3125 658.691406 241.03125 659.664062 C 243.3125 662.707031 245.511719 662.453125 252.648438 658.269531 C 255.609375 656.539062 258.101562 655.101562 258.140625 655.101562 C 258.226562 655.101562 258.226562 655.988281 258.140625 657.128906 C 258.015625 658.820312 258.140625 659.285156 259.070312 660.128906 C 260.171875 661.1875 263.085938 661.734375 264.945312 661.269531 C 265.535156 661.144531 267.015625 660.214844 268.238281 659.242188 C 269.507812 658.269531 270.519531 657.679688 270.648438 657.976562 C 270.734375 658.226562 271.449219 658.863281 272.210938 659.328125 C 273.816406 660.339844 274.957031 660.046875 275.84375 658.4375 C 276.308594 657.550781 276.308594 657.550781 277.492188 658.820312 C 279.097656 660.59375 280.578125 660.890625 283.070312 660.003906 C 284.96875 659.328125 285.097656 659.328125 286.660156 660.171875 C 287.589844 660.636719 289.070312 661.015625 290.125 661.015625 C 291.730469 661.015625 292.195312 660.804688 293.589844 659.328125 C 295.703125 657.128906 296.714844 653.707031 297.136719 647.75 C 297.390625 643.945312 297.351562 643.183594 296.886719 643.355469 C 292.363281 645.171875 292.574219 644.960938 292.871094 646.609375 C 294.054688 653.199219 293.167969 656.792969 290.335938 656.792969 C 289.449219 656.792969 289.324219 656.621094 289.324219 655.226562 L 289.324219 653.664062 L 288.140625 654.804688 C 286.703125 656.15625 282.6875 657.085938 281.886719 656.242188 C 280.832031 655.101562 280.28125 652.480469 280.070312 647.15625 L 279.816406 641.578125 Z M 277.832031 643.144531 " fill-opacity="1" fill-rule="nonzero"/><path fill="#000000" d="M 594.191406 665.117188 C 594.066406 665.835938 593.390625 666.636719 592.585938 667.144531 C 591.613281 667.734375 591.148438 668.371094 591.023438 669.257812 C 590.855469 670.945312 591.828125 678.804688 592.25 678.554688 C 592.417969 678.46875 592.671875 676.609375 592.796875 674.453125 C 593.09375 669.847656 593.683594 669.046875 596.726562 669.046875 L 598.585938 669.046875 L 598.585938 667.226562 C 598.585938 665.539062 598.460938 665.328125 597.105469 664.691406 C 595.039062 663.722656 594.488281 663.804688 594.191406 665.117188 Z M 594.191406 665.117188 " fill-opacity="1" fill-rule="nonzero"/><path fill="#000000" d="M 275.296875 667.3125 L 273.730469 668.496094 L 275.253906 670.988281 C 276.054688 672.339844 276.773438 673.523438 276.816406 673.566406 C 276.859375 673.652344 277.621094 672.722656 278.507812 671.582031 L 280.113281 669.46875 L 278.761719 667.777344 C 278.042969 666.847656 277.28125 666.085938 277.15625 666.085938 C 276.984375 666.085938 276.140625 666.636719 275.296875 667.3125 Z M 275.296875 667.3125 " fill-opacity="1" fill-rule="nonzero"/><path fill="#000000" d="M 283.195312 667.609375 C 282.730469 667.988281 282.011719 668.539062 281.546875 668.835938 C 280.789062 669.382812 280.832031 669.511719 282.097656 671.75 C 282.859375 673.058594 283.578125 674.160156 283.746094 674.285156 C 283.914062 674.371094 284.757812 673.566406 285.605469 672.46875 L 287.167969 670.480469 L 285.605469 668.707031 C 284.125 667.058594 284 666.976562 283.195312 667.609375 Z M 283.195312 667.609375 " fill-opacity="1" fill-rule="nonzero"/><path fill="#000000" d="M 211.457031 671.917969 L 209.976562 673.144531 L 211.457031 675.765625 L 212.9375 678.382812 L 214.582031 676.269531 L 216.273438 674.117188 L 214.921875 672.425781 C 214.160156 671.496094 213.441406 670.734375 213.273438 670.734375 C 213.105469 670.734375 212.300781 671.285156 211.457031 671.917969 Z M 211.457031 671.917969 " fill-opacity="1" fill-rule="nonzero"/><path fill="#000000" d="M 448.050781 671.410156 C 447.882812 671.582031 447.757812 672.128906 447.757812 672.679688 C 447.757812 673.355469 447.375 673.734375 446.488281 674.03125 C 444.460938 674.75 444.164062 675.976562 444.800781 680.960938 C 445.558594 686.917969 445.980469 688.1875 446.066406 684.679688 C 446.152344 680.917969 446.65625 677.582031 447.25 676.988281 C 447.503906 676.734375 448.6875 676.441406 449.828125 676.3125 L 451.980469 676.101562 L 451.980469 674.328125 C 451.980469 672.722656 451.855469 672.46875 450.839844 672.085938 C 450.164062 671.875 449.363281 671.539062 448.980469 671.410156 C 448.644531 671.242188 448.222656 671.285156 448.050781 671.410156 Z M 448.050781 671.410156 " fill-opacity="1" fill-rule="nonzero"/><path fill="#000000" d="M 218.683594 672.679688 C 217.792969 673.3125 217.078125 673.988281 217.078125 674.160156 C 217.078125 674.328125 217.710938 675.550781 218.511719 676.863281 L 219.90625 679.230469 L 221.640625 677.160156 L 223.371094 675.128906 L 221.808594 673.3125 L 220.246094 671.539062 Z M 218.683594 672.679688 " fill-opacity="1" fill-rule="nonzero"/><path fill="#000000" d="M 518.820312 674.539062 C 518.523438 675.003906 517.933594 675.382812 517.511719 675.382812 C 516.371094 675.382812 515.058594 678.636719 515.90625 679.480469 C 516.371094 679.988281 516.285156 680.410156 515.269531 682.441406 C 513.835938 685.3125 513.835938 685.566406 515.101562 686.792969 C 516.242188 687.847656 517.46875 687.976562 519.367188 687.214844 L 520.59375 686.75 L 519.242188 685.863281 C 518.480469 685.398438 517.890625 684.765625 517.890625 684.46875 C 517.890625 683.117188 518.863281 681.425781 520.425781 680.03125 C 522.074219 678.554688 522.074219 678.554688 521.523438 676.945312 C 521.226562 676.058594 520.59375 674.960938 520.171875 674.496094 C 519.367188 673.695312 519.367188 673.695312 518.820312 674.539062 Z M 518.820312 674.539062 " fill-opacity="1" fill-rule="nonzero"/><path fill="#000000" d="M 231.652344 677.835938 C 229.074219 679.015625 228.316406 680.496094 228.273438 684.128906 C 228.273438 688.058594 229.074219 689.03125 232.960938 689.75 L 235.664062 690.257812 L 234.3125 692.835938 C 230.722656 699.554688 224.089844 703.230469 211.457031 705.554688 C 205.667969 706.609375 194.429688 707.917969 191.007812 707.917969 C 186.953125 707.917969 189.742188 708.34375 199.417969 709.1875 C 212.554688 710.285156 214.542969 710.285156 218.683594 708.976562 C 226.710938 706.441406 236.722656 697.3125 239.003906 690.46875 C 240.144531 687.128906 240.863281 681.214844 240.3125 679.820312 C 239.46875 677.582031 234.609375 676.441406 231.652344 677.835938 Z M 231.652344 677.835938 " fill-opacity="1" fill-rule="nonzero"/><path fill="#000000" d="M 403.269531 679.480469 C 402.421875 680.074219 401.707031 680.707031 401.707031 680.835938 C 401.707031 680.960938 402.421875 682.1875 403.351562 683.539062 L 404.957031 685.988281 L 406.773438 683.835938 L 408.589844 681.679688 L 406.945312 679.988281 C 406.058594 679.101562 405.210938 678.339844 405.085938 678.339844 C 404.957031 678.339844 404.15625 678.847656 403.269531 679.480469 Z M 403.269531 679.480469 " fill-opacity="1" fill-rule="nonzero"/><path fill="#000000" d="M 411.929688 679.355469 C 411.167969 679.90625 410.449219 680.453125 410.324219 680.582031 C 410.027344 680.835938 413.113281 685.523438 413.535156 685.523438 C 413.914062 685.523438 416.914062 682.269531 416.914062 681.890625 C 416.914062 681.425781 414.167969 678.339844 413.746094 678.382812 C 413.535156 678.382812 412.691406 678.804688 411.929688 679.355469 Z M 411.929688 679.355469 " fill-opacity="1" fill-rule="nonzero"/><path fill="#000000" d="M 556.84375 679.734375 L 554.605469 680.664062 L 554.4375 683.835938 C 554.308594 685.566406 554.394531 687.257812 554.5625 687.554688 C 555.195312 688.523438 558.828125 687.679688 560.519531 686.117188 C 562.125 684.679688 564.109375 681.722656 563.054688 682.355469 C 562.714844 682.566406 561.617188 683.285156 560.605469 683.917969 C 559.546875 684.554688 558.152344 685.101562 557.433594 685.101562 L 556.210938 685.101562 L 557.097656 684.128906 C 558.027344 683.160156 559.929688 678.765625 559.378906 678.765625 C 559.210938 678.804688 558.070312 679.230469 556.84375 679.734375 Z M 556.84375 679.734375 " fill-opacity="1" fill-rule="nonzero"/><path fill="#000000" d="M 272.421875 681.214844 L 271.027344 682.441406 L 272.378906 684.804688 C 273.140625 686.117188 273.902344 687.214844 274.070312 687.214844 C 274.410156 687.214844 277.070312 683.835938 277.070312 683.371094 C 277.070312 682.90625 274.535156 680.03125 274.15625 680.03125 C 273.984375 680.03125 273.226562 680.582031 272.421875 681.214844 Z M 272.421875 681.214844 " fill-opacity="1" fill-rule="nonzero"/><path fill="#000000" d="M 257.382812 683.285156 L 255.226562 684.339844 L 254.550781 688.019531 C 253.242188 694.738281 250.539062 698.792969 244.410156 703.230469 C 239.171875 706.992188 236.933594 708.003906 229.414062 710.03125 C 225.652344 711.046875 222.570312 711.976562 222.570312 712.144531 C 222.570312 712.738281 231.3125 714.003906 235.242188 714.046875 C 238.917969 714.046875 239.46875 713.921875 241.582031 712.777344 C 242.847656 712.101562 245.339844 710.117188 247.117188 708.34375 C 249.609375 705.890625 250.707031 704.371094 252.058594 701.625 C 253.960938 697.695312 253.789062 697.566406 254.46875 702.847656 C 255.3125 709.3125 260.71875 713.457031 268.453125 713.496094 C 270.773438 713.496094 271.664062 713.285156 273.816406 712.144531 C 279.226562 709.3125 281.507812 707.074219 283.113281 702.933594 C 283.828125 701.117188 284.125 695.878906 283.535156 695.539062 C 283.324219 695.453125 281.886719 695.539062 280.324219 695.792969 L 277.449219 696.214844 L 277.789062 698.160156 C 278.632812 702.976562 277.871094 705.171875 274.914062 706.695312 C 272.804688 707.75 267.859375 708.214844 265.410156 707.539062 C 263.210938 706.949219 260.253906 704.414062 259.28125 702.257812 C 258.101562 699.679688 258.394531 692.117188 260 683.664062 C 260.128906 682.820312 260.085938 682.144531 259.917969 682.1875 C 259.707031 682.1875 258.566406 682.695312 257.382812 683.285156 Z M 257.382812 683.285156 " fill-opacity="1" fill-rule="nonzero"/><path fill="#000000" d="M 598.671875 710.203125 C 597.910156 710.75 597.234375 711.34375 597.191406 711.46875 C 597.066406 711.847656 599.980469 716.371094 600.359375 716.371094 C 600.488281 716.371094 601.417969 715.484375 602.347656 714.386719 L 604.121094 712.398438 L 602.515625 710.792969 C 601.671875 709.90625 600.742188 709.1875 600.488281 709.1875 C 600.277344 709.230469 599.429688 709.695312 598.671875 710.203125 Z M 598.671875 710.203125 " fill-opacity="1" fill-rule="nonzero"/><path fill="#000000" d="M 469.9375 713.707031 C 469.007812 714.300781 468.164062 714.851562 468.078125 714.933594 C 467.953125 715.0625 468.964844 716.707031 471.035156 719.878906 C 471.332031 720.300781 474.753906 716.878906 474.796875 716.160156 C 474.796875 715.90625 474.078125 714.976562 473.191406 714.132812 L 471.585938 712.566406 Z M 469.9375 713.707031 " fill-opacity="1" fill-rule="nonzero"/><path fill="#000000" d="M 309.09375 714.132812 C 308.335938 714.765625 307.617188 715.316406 307.53125 715.355469 C 307.445312 715.441406 308.082031 716.625 308.96875 718.0625 L 310.53125 720.597656 L 312.222656 718.484375 L 313.910156 716.371094 L 312.476562 714.722656 C 311.714844 713.792969 310.953125 713.03125 310.785156 713.03125 C 310.65625 712.992188 309.898438 713.496094 309.09375 714.132812 Z M 309.09375 714.132812 " fill-opacity="1" fill-rule="nonzero"/></svg>