<svg xmlns="http://www.w3.org/2000/svg" xmlns:xlink="http://www.w3.org/1999/xlink" width="1100" zoomAndPan="magnify" viewBox="0 0 824.88 824.999997" height="1100" preserveAspectRatio="xMidYMid meet" version="1.0"><path fill="#000000" d="M 322.730469 115.289062 C 311.261719 119.429688 301.09375 128.652344 295.773438 140 L 292.460938 147.09375 L 292.105469 265.683594 L 291.871094 384.386719 L 325.210938 383.914062 C 356.542969 383.441406 359.261719 383.207031 367.539062 380.605469 C 379.125 376.820312 383.972656 372.089844 387.046875 361.570312 C 388.9375 355.183594 389.292969 349.746094 389.292969 327.871094 C 389.410156 297.132812 390.59375 299.851562 373.804688 290.511719 C 355.953125 280.699219 349.804688 273.25 349.804688 261.664062 L 349.804688 256.105469 L 352.167969 259.179688 C 356.308594 264.382812 368.011719 269.109375 384.683594 272.421875 C 399.460938 275.378906 407.5 278.570312 411.285156 283.0625 C 412.703125 284.71875 413.175781 284.597656 415.894531 282 C 420.390625 277.742188 428.191406 274.667969 440.253906 272.421875 C 456.6875 269.464844 465.316406 266.273438 471.230469 260.835938 L 476.3125 256.105469 L 476.3125 260.125 C 476.3125 272.421875 468.507812 281.761719 450.421875 291.339844 C 444.390625 294.53125 438.597656 298.316406 437.652344 299.851562 C 435.050781 303.753906 435.996094 354.828125 438.832031 363.578125 C 441.550781 371.738281 447.820312 377.292969 458.222656 380.722656 C 465.671875 383.207031 468.863281 383.441406 500.3125 383.914062 L 534.246094 384.386719 L 534.011719 266.273438 L 533.65625 148.277344 L 529.871094 140.355469 C 524.90625 129.832031 517.929688 122.503906 508.355469 117.773438 L 500.550781 113.988281 L 414.242188 113.753906 C 338.570312 113.515625 327.339844 113.753906 322.730469 115.289062 Z M 431.621094 134.5625 C 434.457031 140.59375 434.933594 142.246094 433.632812 143.074219 C 431.148438 144.613281 430.4375 144.375 429.609375 141.773438 C 429.019531 139.765625 427.835938 139.410156 421.925781 139.410156 C 416.132812 139.410156 414.714844 139.765625 413.648438 141.773438 C 412.113281 144.613281 408.921875 144.964844 408.921875 142.367188 C 408.921875 140 412.820312 132.078125 417.550781 124.867188 L 421.335938 119.191406 L 424.644531 123.09375 C 426.417969 125.222656 429.609375 130.425781 431.621094 134.5625 Z M 356.660156 131.960938 C 356.425781 141.300781 355.953125 143.546875 354.535156 143.546875 C 353.113281 143.546875 352.640625 141.300781 352.40625 131.960938 C 352.050781 121.082031 352.167969 120.492188 354.535156 120.492188 C 356.898438 120.492188 357.015625 121.082031 356.660156 131.960938 Z M 377.46875 121.675781 C 379.363281 122.382812 380.308594 123.449219 379.835938 124.511719 C 379.363281 125.8125 378.417969 125.929688 375.222656 124.867188 C 370.96875 123.566406 367.066406 124.394531 367.777344 126.523438 C 368.011719 127.230469 371.085938 128.886719 374.632812 130.304688 C 379.835938 132.433594 381.253906 133.496094 381.492188 135.980469 C 382.199219 142.367188 372.859375 145.558594 363.753906 142.011719 C 359.734375 140.355469 360.445312 136.335938 364.464844 137.636719 C 370.375 139.644531 375.34375 139.644531 376.996094 137.636719 C 378.417969 135.980469 378.179688 135.625 375.933594 135.035156 C 370.023438 133.496094 363.402344 129.242188 363.046875 126.878906 C 362.21875 121.4375 369.902344 118.71875 377.46875 121.675781 Z M 388.820312 129.949219 L 388.820312 139.410156 L 396.507812 139.410156 C 402.535156 139.410156 404.191406 139.765625 404.191406 141.183594 C 404.191406 142.601562 402.300781 142.957031 394.140625 142.957031 L 384.089844 142.957031 L 384.089844 131.722656 C 384.089844 121.320312 384.210938 120.492188 386.457031 120.492188 C 388.585938 120.492188 388.820312 121.320312 388.820312 129.949219 Z M 453.730469 136.21875 C 455.859375 138.34375 455.976562 138.34375 458.460938 134.796875 C 459.878906 132.90625 462.125 128.652344 463.542969 125.578125 L 466.144531 119.902344 L 468.628906 128.175781 C 473.003906 142.484375 473.121094 142.957031 470.519531 142.957031 C 468.863281 142.957031 467.917969 141.65625 466.972656 137.519531 L 465.554688 132.199219 L 460.707031 138.34375 L 455.742188 144.613281 L 450.894531 139.054688 C 448.171875 135.980469 445.691406 133.496094 445.335938 133.496094 C 444.863281 133.496094 444.273438 135.625 443.800781 138.34375 C 443.089844 142.71875 440.605469 145.441406 438.832031 143.785156 C 438.242188 143.074219 440.253906 134.324219 443.445312 124.277344 L 444.625 120.257812 L 448.171875 127.230469 C 450.066406 131.015625 452.546875 135.035156 453.730469 136.21875 Z M 309.960938 147.214844 C 310.3125 147.6875 309.960938 149.105469 309.015625 150.523438 C 306.886719 153.480469 306.648438 159.507812 308.777344 159.507812 C 309.488281 159.507812 311.496094 157.144531 313.035156 154.070312 C 316.460938 147.6875 319.183594 145.914062 322.609375 147.6875 C 327.578125 150.40625 327.8125 159.035156 323.203125 166.128906 C 321.664062 168.496094 320.957031 168.851562 319.65625 167.785156 C 318.234375 166.601562 318.355469 165.65625 320.363281 161.875 C 322.847656 157.027344 322.964844 152.296875 320.601562 151.585938 C 319.890625 151.234375 318.355469 152.886719 317.171875 155.015625 C 312.679688 164.121094 307.59375 166.601562 304.285156 161.402344 C 300.972656 156.433594 306.175781 143.429688 309.960938 147.214844 Z M 518.167969 149.460938 C 518.523438 150.640625 516.15625 152.886719 510.246094 156.671875 C 501.613281 162.347656 498.777344 163.410156 498.066406 161.28125 C 497.714844 160.21875 514.621094 147.921875 516.628906 147.804688 C 517.101562 147.6875 517.695312 148.511719 518.167969 149.460938 Z M 523.605469 163.648438 C 523.605469 165.066406 517.457031 177.71875 515.328125 180.792969 L 512.847656 184.21875 L 519.113281 184.574219 C 523.960938 184.8125 525.496094 185.402344 525.734375 186.9375 C 526.089844 188.832031 524.90625 189.066406 514.265625 189.066406 L 502.324219 189.066406 L 506.460938 184.574219 C 511.308594 179.492188 517.222656 170.148438 515.566406 170.148438 C 514.976562 170.148438 511.902344 170.976562 508.707031 171.921875 C 501.140625 174.171875 499.960938 174.171875 499.960938 171.570312 C 499.960938 169.796875 502.207031 168.730469 510.363281 166.367188 C 521.125 163.175781 523.605469 162.703125 523.605469 163.648438 Z M 408.09375 211.769531 C 405.136719 214.960938 407.265625 220.28125 411.640625 220.753906 C 413.53125 220.992188 415.777344 220.515625 416.722656 219.691406 C 418.96875 217.917969 418.851562 211.886719 416.605469 210.585938 C 415.070312 209.757812 414.832031 206.683594 415.070312 190.484375 L 415.421875 171.332031 L 431.382812 183.039062 C 444.980469 193.085938 447.347656 195.332031 446.992188 197.699219 C 446.519531 201.480469 449.472656 203.726562 453.847656 202.902344 C 456.449219 202.308594 458.105469 202.78125 460.589844 204.910156 C 465.316406 208.929688 465.199219 215.90625 460.351562 221.109375 C 457.042969 224.65625 442.027344 232.8125 438.832031 232.8125 C 438.125 232.8125 436.113281 233.285156 434.339844 233.996094 C 431.382812 235.058594 431.382812 235.296875 433.277344 238.132812 C 435.757812 241.917969 434.457031 243.574219 425.589844 248.183594 C 418.496094 251.730469 413.648438 255.75 413.648438 257.878906 C 413.648438 258.589844 412.585938 257.761719 411.167969 255.988281 C 409.75 254.214844 405.019531 250.902344 400.527344 248.65625 C 391.660156 244.28125 390.003906 242.152344 392.25 238.371094 C 394.140625 235.414062 393.433594 234.824219 383.972656 231.75 C 364.820312 225.484375 356.425781 214.132812 364.703125 205.5 C 367.300781 202.78125 368.484375 202.425781 372.269531 202.902344 C 375.933594 203.375 376.996094 203.136719 378.0625 201.128906 C 378.769531 199.828125 379.007812 197.933594 378.652344 196.871094 C 378.179688 195.6875 382.554688 191.785156 393.785156 183.390625 L 409.511719 171.570312 L 409.867188 190.605469 C 410.101562 207.039062 409.867188 209.757812 408.09375 211.769531 Z M 323.792969 174.996094 C 323.792969 176.417969 322.847656 177.71875 321.429688 178.070312 C 319.417969 178.664062 319.0625 179.726562 319.0625 185.519531 C 319.0625 191.433594 319.417969 192.613281 321.429688 193.207031 C 322.730469 193.679688 323.792969 194.980469 323.792969 196.28125 C 323.792969 198.171875 323.320312 198.527344 321.191406 197.933594 C 317.527344 196.753906 306.175781 190.722656 302.511719 188.003906 L 299.671875 185.757812 L 302.511719 183.273438 C 305.464844 180.910156 321.191406 172.515625 322.964844 172.515625 C 323.4375 172.515625 323.792969 173.578125 323.792969 174.996094 Z M 305.347656 196.042969 C 305.820312 196.632812 305.585938 198.527344 304.875 200.179688 L 303.691406 203.253906 L 313.859375 203.253906 C 322.847656 203.253906 323.910156 203.492188 323.554688 205.265625 C 323.203125 207.039062 321.664062 207.394531 313.980469 207.75 L 304.757812 208.101562 L 305.113281 211.769531 C 305.585938 216.378906 303.339844 217.324219 301.566406 213.304688 C 298.371094 206.449219 301.917969 190.484375 305.347656 196.042969 Z M 524.789062 204.554688 C 524.789062 212.242188 524.550781 213.1875 521.359375 216.378906 C 517.578125 220.042969 512.964844 220.871094 507.882812 218.507812 C 503.980469 216.734375 502.207031 213.304688 501.496094 206.09375 C 500.433594 196.28125 500.550781 196.160156 513.554688 196.160156 L 524.789062 196.160156 Z M 323.792969 221.582031 C 323.792969 223 321.664062 223.355469 311.96875 223.355469 C 302.273438 223.355469 300.144531 223 300.144531 221.582031 C 300.144531 220.164062 302.273438 219.808594 311.96875 219.808594 C 321.664062 219.808594 323.792969 220.164062 323.792969 221.582031 Z M 357.488281 228.320312 C 358.316406 233.757812 362.808594 239.316406 368.722656 242.273438 C 371.085938 243.453125 378.535156 245.9375 385.273438 247.59375 C 400.527344 251.496094 405.609375 254.09375 410.101562 260.242188 C 412.113281 262.84375 413.648438 264.261719 413.648438 263.4375 C 413.648438 260.714844 422.042969 253.269531 427.246094 251.257812 C 429.847656 250.3125 436.707031 248.421875 442.617188 247 C 454.085938 244.398438 462.242188 240.261719 465.199219 235.769531 C 466.261719 234.113281 467.683594 230.332031 468.507812 227.257812 L 469.929688 221.582031 L 472.53125 228.4375 C 473.949219 232.222656 475.484375 238.960938 475.839844 243.453125 L 476.667969 251.730469 L 471.464844 256.816406 C 465.082031 263.199219 457.632812 266.035156 439.1875 269.347656 C 425 271.949219 419.796875 273.839844 415.1875 277.976562 C 412.585938 280.34375 412.585938 280.34375 409.867188 277.742188 C 405.609375 273.605469 400.171875 271.832031 383.738281 268.757812 C 366.710938 265.683594 360.445312 263.199219 353.941406 256.695312 L 349.566406 252.320312 L 350.160156 242.746094 C 350.511719 236.480469 351.578125 231.277344 353.351562 227.375 C 356.070312 221.226562 356.308594 221.34375 357.488281 228.320312 Z M 320.363281 228.203125 C 322.492188 230.332031 322.847656 231.75 322.375 237.660156 C 321.78125 245.226562 320.601562 247.472656 317.644531 246.410156 C 315.988281 245.699219 315.988281 245.226562 317.527344 241.089844 C 319.535156 236.003906 318.828125 230.449219 316.109375 230.449219 C 315.160156 230.449219 313.859375 232.339844 313.152344 235.058594 C 311.851562 240.027344 307.832031 245.820312 305.820312 245.820312 C 302.628906 245.820312 300.144531 241.800781 300.144531 236.832031 C 300.144531 230.683594 301.09375 228.085938 303.21875 228.085938 C 304.519531 228.085938 304.757812 229.148438 304.167969 232.8125 C 302.628906 242.390625 306.648438 243.453125 309.488281 234.113281 C 311.96875 225.835938 315.871094 223.710938 320.363281 228.203125 Z M 519.941406 227.375 C 523.722656 229.386719 525.972656 233.757812 525.972656 239.433594 C 525.972656 251.496094 515.328125 257.050781 506.816406 249.484375 C 503.269531 246.292969 502.914062 245.464844 503.035156 239.199219 C 503.035156 233.167969 503.386719 232.105469 506.816406 229.148438 C 511.074219 225.363281 514.976562 224.890625 519.941406 227.375 Z M 322.964844 252.203125 C 323.4375 253.386719 322.730469 254.214844 321.074219 254.804688 C 316.816406 255.988281 314.335938 258.941406 314.335938 262.488281 C 314.335938 265.445312 314.808594 265.800781 318.707031 266.15625 C 321.902344 266.390625 323.320312 267.101562 323.554688 268.519531 C 323.910156 270.410156 322.847656 270.648438 312.796875 270.648438 C 302.15625 270.648438 301.566406 270.53125 300.855469 267.929688 C 299.554688 262.964844 300.144531 255.515625 302.039062 253.621094 C 304.167969 251.496094 309.722656 251.140625 311.613281 253.03125 C 312.5625 253.976562 313.625 253.859375 315.632812 252.441406 C 319.0625 250.074219 322.136719 249.957031 322.964844 252.203125 Z M 524.789062 260.953125 C 524.789062 262.015625 515.566406 273.25 513.675781 274.429688 C 512.964844 274.90625 515.210938 275.378906 518.640625 275.378906 C 523.960938 275.378906 524.789062 275.730469 524.789062 277.742188 C 524.789062 279.988281 523.960938 280.105469 513.554688 280.105469 C 507.410156 280.105469 502.324219 279.871094 502.324219 279.632812 C 502.324219 279.398438 505.636719 275.96875 509.773438 271.949219 L 517.101562 264.738281 L 509.183594 264.738281 C 503.269531 264.738281 501.140625 264.261719 501.140625 263.199219 C 501.140625 262.253906 501.496094 261.1875 501.96875 260.835938 C 503.035156 259.652344 524.789062 259.769531 524.789062 260.953125 Z M 303.691406 281.878906 C 303.691406 288.738281 303.929688 289.566406 306.058594 289.566406 C 308.066406 289.566406 308.421875 288.738281 308.421875 283.773438 C 308.421875 280.226562 309.015625 277.503906 310.195312 276.558594 C 313.035156 274.195312 313.980469 276.085938 313.386719 283.0625 C 312.914062 289.445312 312.914062 289.566406 315.988281 289.566406 C 318.945312 289.566406 319.0625 289.328125 319.0625 282.472656 C 319.0625 276.203125 319.300781 275.378906 321.429688 275.378906 C 323.4375 275.378906 323.792969 276.203125 323.792969 280.34375 C 323.792969 283.179688 323.4375 287.4375 323.082031 289.800781 L 322.253906 294.292969 L 300.144531 294.292969 L 300.144531 284.246094 C 300.144531 276.085938 300.5 274.195312 301.917969 274.195312 C 303.339844 274.195312 303.691406 275.851562 303.691406 281.878906 Z M 524.789062 297.839844 C 524.789062 306.472656 524.550781 307.300781 522.425781 307.300781 C 520.296875 307.300781 520.058594 306.472656 520.058594 300.207031 C 520.058594 294.648438 519.703125 293.113281 518.285156 293.113281 C 517.101562 293.113281 516.511719 294.292969 516.511719 297.132812 C 516.511719 302.453125 514.503906 307.65625 512.609375 306.945312 C 511.664062 306.710938 511.308594 304.34375 511.546875 299.851562 C 512.019531 293.230469 511.902344 293.113281 508.945312 293.113281 C 505.988281 293.113281 505.871094 293.347656 505.871094 300.207031 C 505.871094 306.472656 505.636719 307.300781 503.507812 307.300781 C 501.378906 307.300781 501.140625 306.472656 501.140625 297.839844 L 501.140625 288.382812 L 524.789062 288.382812 Z M 310.550781 300.324219 C 316.460938 302.925781 322.609375 307.0625 322.609375 308.484375 C 322.609375 309.902344 313.269531 315.339844 305.941406 318.058594 L 300.027344 320.304688 L 300.382812 317.941406 C 300.621094 316.167969 302.746094 314.628906 307.59375 312.621094 C 311.496094 311.082031 314.808594 309.546875 315.160156 309.191406 C 316.460938 307.890625 313.859375 306.117188 307.242188 303.636719 C 301.917969 301.742188 300.144531 300.5625 300.144531 298.789062 C 300.144531 296.1875 301.683594 296.421875 310.550781 300.324219 Z M 507.410156 315.105469 C 508.945312 315.695312 508.945312 316.285156 507.410156 320.304688 C 505.398438 325.390625 506.109375 330.945312 508.828125 330.945312 C 509.773438 330.945312 511.074219 329.054688 511.78125 326.335938 C 513.082031 321.371094 517.101562 315.578125 519.113281 315.578125 C 519.824219 315.578125 521.476562 316.402344 522.660156 317.585938 C 525.972656 320.542969 525.261719 333.3125 521.714844 333.3125 C 520.53125 333.3125 520.175781 331.65625 520.414062 327.28125 C 520.769531 319.125 518.523438 318.53125 516.039062 325.980469 C 513.4375 333.546875 510.71875 336.148438 506.816406 334.613281 C 505.160156 334.019531 503.507812 332.601562 503.035156 331.539062 C 501.96875 328.582031 502.207031 320.898438 503.507812 317.46875 C 504.6875 314.15625 504.808594 314.039062 507.410156 315.105469 Z M 322.609375 325.035156 C 322.609375 327.28125 321.78125 327.398438 311.378906 327.398438 C 300.972656 327.398438 300.144531 327.28125 300.144531 325.035156 C 300.144531 322.789062 300.972656 322.671875 311.378906 322.671875 C 321.78125 322.671875 322.609375 322.789062 322.609375 325.035156 Z M 315.753906 337.566406 C 311.734375 341.234375 308.421875 344.660156 308.421875 345.253906 C 308.421875 345.84375 311.851562 346.316406 316.109375 346.316406 C 322.136719 346.316406 323.792969 346.671875 323.792969 348.089844 C 323.792969 349.507812 321.664062 349.863281 311.96875 349.863281 C 305.464844 349.863281 300.144531 349.390625 300.144531 348.800781 C 300.144531 348.207031 302.867188 344.660156 306.175781 341.113281 L 312.207031 334.492188 L 305.585938 334.492188 C 300.265625 334.492188 299.199219 334.140625 299.671875 332.71875 C 300.265625 331.300781 302.746094 330.945312 311.734375 330.945312 L 322.964844 330.945312 Z M 524.789062 343.359375 C 524.789062 344.78125 522.660156 345.132812 512.964844 345.132812 C 503.269531 345.132812 501.140625 344.78125 501.140625 343.359375 C 501.140625 341.941406 503.269531 341.585938 512.964844 341.585938 C 522.660156 341.585938 524.789062 341.941406 524.789062 343.359375 Z M 510.957031 354.121094 C 514.382812 355.777344 518.875 358.613281 521.125 360.269531 L 525.144531 363.222656 L 522.304688 365.472656 C 518.996094 368.070312 507.761719 373.984375 503.863281 375.164062 C 501.613281 375.875 501.140625 375.519531 501.140625 373.628906 C 501.140625 372.328125 502.207031 371.027344 503.507812 370.554688 C 505.515625 369.964844 505.871094 368.78125 505.871094 362.871094 C 505.871094 357.078125 505.515625 356.011719 503.507812 355.421875 C 500.789062 354.710938 500.3125 351.046875 502.914062 351.046875 C 503.980469 351.046875 507.527344 352.464844 510.957031 354.121094 Z M 320.128906 356.25 C 325.449219 361.097656 324.027344 369.019531 317.171875 371.855469 C 311.613281 374.21875 300.972656 372.800781 300.382812 369.726562 C 300.027344 367.953125 300.855469 367.71875 307.476562 368.425781 C 315.632812 369.136719 319.0625 367.480469 319.0625 362.988281 C 319.0625 358.375 312.914062 356.722656 303.8125 358.730469 C 300.621094 359.441406 300.144531 359.203125 300.144531 357.078125 C 300.144531 355.421875 301.09375 354.59375 303.457031 354.238281 C 309.488281 353.175781 317.882812 354.238281 320.128906 356.25 Z M 320.128906 356.25 " fill-opacity="1" fill-rule="nonzero"/><path fill="#000000" d="M 418.378906 131.132812 L 416.015625 135.863281 L 421.335938 135.863281 C 427.128906 135.863281 427.601562 135.152344 424.882812 129.949219 C 422.398438 125.222656 421.214844 125.457031 418.378906 131.132812 Z M 418.378906 131.132812 " fill-opacity="1" fill-rule="nonzero"/><path fill="#000000" d="M 310.550781 182.683594 C 306.414062 184.929688 306.414062 185.757812 310.667969 188.238281 C 315.398438 190.960938 315.515625 190.960938 315.515625 185.519531 C 315.515625 180.316406 315.160156 180.082031 310.550781 182.683594 Z M 310.550781 182.683594 " fill-opacity="1" fill-rule="nonzero"/><path fill="#000000" d="M 505.871094 205.976562 C 505.871094 211.414062 507.761719 214.132812 512.609375 215.550781 C 516.75 216.851562 521.242188 211.769531 521.242188 205.621094 L 521.242188 200.890625 L 505.871094 200.890625 Z M 505.871094 205.976562 " fill-opacity="1" fill-rule="nonzero"/><path fill="#000000" d="M 508.945312 233.050781 C 507.882812 234.46875 507.054688 237.660156 507.054688 240.027344 C 507.054688 245.582031 510.128906 248.539062 515.566406 247.949219 C 518.875 247.59375 519.703125 247 520.886719 243.101562 C 522.425781 238.488281 521.359375 233.167969 518.523438 231.394531 C 515.683594 229.621094 510.71875 230.449219 508.945312 233.050781 Z M 508.945312 233.050781 " fill-opacity="1" fill-rule="nonzero"/><path fill="#000000" d="M 304.167969 256.933594 C 303.8125 257.878906 303.691406 260.125 303.929688 262.015625 C 304.167969 264.738281 304.992188 265.445312 307.714844 265.683594 C 311.023438 266.15625 311.023438 266.035156 310.195312 261.542969 C 309.722656 259.0625 309.132812 256.695312 308.894531 256.222656 C 307.949219 254.6875 304.875 255.160156 304.167969 256.933594 Z M 304.167969 256.933594 " fill-opacity="1" fill-rule="nonzero"/><path fill="#000000" d="M 509.417969 362.871094 C 509.417969 368.191406 509.417969 368.308594 514.265625 365.824219 C 518.167969 363.695312 517.929688 362.515625 512.847656 359.914062 L 509.417969 358.023438 Z M 509.417969 362.871094 " fill-opacity="1" fill-rule="nonzero"/><path fill="#000000" d="M 399.699219 298.195312 C 398.871094 299.140625 398.28125 311.203125 398.042969 330.945312 C 397.6875 366.0625 397.6875 365.945312 388.347656 375.640625 C 383.855469 380.367188 383.738281 380.605469 386.8125 379.539062 C 396.386719 375.875 400.40625 372.328125 404.425781 363.460938 C 406.910156 357.902344 407.148438 355.65625 407.5 328.109375 C 407.855469 304.34375 407.621094 298.550781 406.4375 297.722656 C 404.074219 296.1875 401.117188 296.421875 399.699219 298.195312 Z M 399.699219 298.195312 " fill-opacity="1" fill-rule="nonzero"/><path fill="#000000" d="M 418.851562 298.195312 C 418.496094 299.140625 418.378906 313.210938 418.617188 329.292969 C 418.96875 358.257812 418.96875 358.851562 422.042969 365.351562 C 425.472656 372.445312 429.492188 376.113281 437.53125 378.949219 L 442.617188 380.722656 L 438.242188 377.058594 C 435.878906 375.046875 432.449219 370.4375 430.558594 366.652344 L 427.246094 359.914062 L 426.65625 328.582031 L 426.0625 297.25 L 422.753906 296.894531 C 420.742188 296.660156 419.324219 297.132812 418.851562 298.195312 Z M 418.851562 298.195312 " fill-opacity="1" fill-rule="nonzero"/><path fill="#000000" d="M 340.464844 398.222656 C 339.398438 398.929688 339.753906 399.167969 342 399.167969 C 343.65625 399.167969 344.71875 398.8125 344.367188 398.222656 C 343.539062 396.921875 342.59375 396.921875 340.464844 398.222656 Z M 340.464844 398.222656 " fill-opacity="1" fill-rule="nonzero"/><path fill="#000000" d="M 396.152344 399.875 C 394.734375 401.414062 393.550781 403.894531 393.550781 405.433594 C 393.550781 407.679688 389.058594 414.417969 383.738281 420.210938 C 383.144531 420.921875 382.910156 417.257812 383.144531 410.636719 C 383.382812 402.476562 383.144531 400.347656 382.199219 401.769531 C 381.492188 402.832031 380.542969 411.582031 380.191406 421.394531 C 379.835938 431.089844 379.007812 440.546875 378.296875 442.320312 C 376.289062 447.523438 378.0625 446.222656 380.542969 440.546875 C 381.964844 437.710938 382.910156 432.980469 382.910156 429.199219 C 382.910156 423.640625 383.5 422.105469 387.164062 417.730469 C 389.410156 414.890625 391.894531 412.527344 392.605469 412.527344 C 393.433594 412.527344 393.667969 416.785156 393.3125 425.414062 C 392.722656 440.902344 391.421875 443.503906 383.617188 445.515625 C 378.535156 446.695312 375.105469 449.179688 378.417969 449.179688 C 383.382812 449.179688 389.175781 446.34375 391.183594 442.914062 L 393.433594 439.246094 L 394.851562 443.148438 C 396.742188 448.589844 401.589844 450.480469 410.101562 449.0625 C 415.894531 447.996094 419.324219 447.523438 427.011719 446.460938 C 429.375 446.222656 431.382812 443.621094 431.265625 440.902344 C 431.265625 439.957031 430.792969 440.3125 430.203125 441.730469 C 428.902344 444.921875 427.011719 445.277344 426.300781 442.320312 C 425.828125 440.785156 425.710938 441.023438 425.589844 442.914062 C 425.472656 445.515625 421.925781 446.933594 421.925781 444.570312 C 421.925781 443.859375 420.152344 444.09375 418.144531 444.921875 C 407.855469 449.179688 402.179688 447.996094 397.453125 441.023438 C 395.085938 437.472656 394.734375 435.582031 394.734375 424.234375 C 394.734375 413.589844 395.085938 411.34375 396.507812 411.34375 C 397.453125 411.34375 398.28125 412.410156 398.28125 413.710938 C 398.28125 415.011719 399.105469 417.964844 399.933594 420.210938 C 401.472656 423.878906 402.179688 424.351562 406.199219 424.351562 C 408.683594 424.351562 412.820312 423.285156 415.304688 421.867188 C 419.441406 419.621094 420.035156 419.621094 420.980469 421.277344 C 422.636719 424.234375 425.117188 423.523438 428.664062 419.03125 C 431.738281 415.246094 431.976562 415.128906 433.984375 416.902344 C 437.296875 419.976562 438.953125 417.375 436.824219 412.410156 C 435.40625 409.097656 435.050781 408.863281 434.933594 410.992188 C 434.933594 412.527344 434.222656 413.710938 433.277344 413.710938 C 432.332031 413.710938 430.558594 415.011719 429.257812 416.664062 C 426.300781 420.332031 423.109375 420.566406 423.109375 417.019531 L 423.109375 414.539062 L 420.507812 417.019531 C 411.757812 425.179688 399.460938 422.933594 399.460938 413.117188 C 399.460938 409.691406 398.988281 408.980469 396.980469 408.980469 C 394.734375 408.980469 394.496094 408.507812 395.207031 405.195312 C 395.558594 403.1875 396.859375 400.46875 397.925781 399.285156 C 400.761719 396.09375 399.105469 396.683594 396.152344 399.875 Z M 396.152344 399.875 " fill-opacity="1" fill-rule="nonzero"/><path fill="#000000" d="M 416.960938 399.875 C 416.605469 402.121094 416.722656 402.832031 417.433594 402.121094 C 418.144531 401.414062 418.378906 399.996094 418.144531 398.8125 C 417.789062 397.15625 417.550781 397.394531 416.960938 399.875 Z M 416.960938 399.875 " fill-opacity="1" fill-rule="nonzero"/><path fill="#000000" d="M 443.089844 400.230469 C 440.488281 403.070312 440.253906 404.371094 439.542969 419.386719 C 438.832031 435.820312 437.296875 442.203125 432.921875 447.050781 C 431.148438 449.0625 431.382812 449.179688 437.414062 449.179688 C 441.789062 449.179688 445.574219 448.351562 449.121094 446.460938 C 457.988281 441.96875 458.578125 440.195312 459.640625 419.503906 C 460.113281 409.453125 460.941406 400.230469 461.535156 399.050781 C 463.308594 395.027344 460.113281 398.101562 458.105469 402.359375 C 456.6875 405.316406 456.214844 409.925781 456.214844 420.09375 C 456.214844 436.648438 454.558594 441.96875 448.410156 444.804688 C 446.164062 445.988281 442.5 446.816406 440.371094 446.816406 L 436.46875 446.816406 L 439.425781 440.902344 C 442.027344 435.582031 442.378906 433.335938 442.5 419.859375 C 442.734375 408.152344 443.207031 404.015625 444.746094 400.941406 C 447.226562 396.328125 446.875 396.210938 443.089844 400.230469 Z M 443.089844 400.230469 " fill-opacity="1" fill-rule="nonzero"/><path fill="#000000" d="M 466.027344 400.230469 C 464.488281 402.714844 463.898438 407.445312 463.1875 423.050781 C 462.714844 433.808594 461.769531 444.09375 461.0625 445.867188 C 459.167969 450.835938 460.589844 449.769531 463.425781 444.09375 C 465.671875 439.839844 466.144531 436.527344 466.734375 419.621094 C 467.210938 408.863281 467.917969 399.402344 468.390625 398.574219 C 468.984375 397.867188 469.101562 397.15625 468.746094 397.15625 C 468.390625 397.15625 467.210938 398.574219 466.027344 400.230469 Z M 466.027344 400.230469 " fill-opacity="1" fill-rule="nonzero"/><path fill="#000000" d="M 480.097656 398.574219 C 479.503906 399.402344 478.558594 402.359375 478.085938 405.078125 C 477.613281 407.917969 476.785156 410.164062 476.195312 410.164062 C 475.722656 410.164062 474.304688 411.9375 473.238281 413.945312 L 471.230469 417.847656 L 474.304688 415.011719 L 477.378906 412.289062 L 476.667969 423.40625 C 475.367188 444.09375 481.160156 450.125 501.378906 448.941406 C 508.945312 448.46875 513.082031 447.40625 519.46875 444.6875 C 525.378906 442.085938 526.917969 441.023438 524.789062 440.902344 C 523.132812 440.902344 520.53125 440.074219 518.875 439.128906 C 514.382812 436.648438 508.945312 436.882812 506.34375 439.957031 C 504.097656 442.441406 504.097656 442.441406 506.460938 441.496094 C 511.074219 439.722656 513.554688 439.601562 517.101562 440.902344 L 520.652344 442.320312 L 515.921875 444.09375 C 513.320312 445.042969 507.171875 446.105469 502.324219 446.460938 C 494.640625 447.050781 492.628906 446.695312 488.371094 444.570312 C 483.40625 441.96875 480.804688 439.011719 479.269531 433.925781 C 478.203125 430.261719 479.742188 411.34375 481.160156 411.34375 C 481.75 411.34375 482.226562 412.882812 482.226562 414.65625 C 482.226562 420.09375 485.773438 422.339844 492.867188 421.75 C 496.175781 421.394531 499.722656 420.332031 500.90625 419.265625 C 502.207031 418.085938 504.097656 417.613281 505.636719 418.085938 C 507.054688 418.4375 509.535156 417.847656 511.191406 416.785156 C 515.09375 414.183594 517.222656 414.417969 519.46875 417.492188 C 521.003906 419.738281 521.476562 419.976562 522.425781 418.4375 C 523.015625 417.375 523.015625 416.191406 522.1875 415.246094 C 521.476562 414.417969 520.53125 411.9375 520.058594 409.808594 C 519.113281 406.261719 518.996094 406.261719 518.285156 408.625 C 517.8125 410.164062 516.75 411.34375 515.921875 411.34375 C 515.210938 411.34375 513.554688 412.410156 512.375 413.710938 C 511.191406 415.011719 509.300781 416.074219 508 416.074219 C 505.636719 416.074219 505.28125 414.773438 507.054688 413 C 508.472656 411.582031 507.527344 408.269531 505.515625 407.445312 C 504.6875 407.207031 501.261719 407.207031 497.832031 407.5625 C 492.867188 408.035156 491.683594 408.507812 491.683594 410.28125 C 491.683594 411.9375 492.511719 412.527344 494.992188 412.527344 C 496.886719 412.527344 499.367188 413.238281 500.550781 414.183594 C 502.679688 415.71875 502.5625 415.839844 498.894531 417.730469 C 493.457031 420.683594 486.835938 419.859375 485.0625 416.074219 C 480.804688 407.089844 480.6875 406.851562 481.988281 402.003906 C 483.171875 397.15625 482.460938 395.855469 480.097656 398.574219 Z M 505.871094 410.753906 C 505.871094 413 503.386719 413 500.433594 410.753906 C 498.304688 409.097656 498.421875 409.097656 502.085938 408.980469 C 504.6875 408.980469 505.871094 409.570312 505.871094 410.753906 Z M 505.871094 410.753906 " fill-opacity="1" fill-rule="nonzero"/><path fill="#000000" d="M 534.71875 400.230469 C 533.066406 402.597656 532.472656 407.5625 531.765625 422.933594 C 531.292969 433.808594 530.34375 444.214844 529.636719 446.222656 L 528.335938 449.769531 L 530.582031 446.816406 C 534.128906 442.441406 535.429688 434.28125 535.429688 417.847656 C 535.429688 409.808594 535.902344 401.886719 536.613281 400.230469 C 538.03125 396.328125 537.203125 396.328125 534.71875 400.230469 Z M 534.71875 400.230469 " fill-opacity="1" fill-rule="nonzero"/><path fill="#000000" d="M 312.679688 400.230469 C 312.207031 401.296875 312.207031 402.476562 312.5625 402.832031 C 312.796875 403.1875 313.386719 402.476562 313.859375 401.414062 C 314.335938 400.347656 314.335938 399.167969 313.980469 398.8125 C 313.742188 398.457031 313.152344 399.167969 312.679688 400.230469 Z M 312.679688 400.230469 " fill-opacity="1" fill-rule="nonzero"/><path fill="#000000" d="M 352.167969 402.121094 C 350.277344 405.316406 349.804688 408.152344 349.804688 418.085938 C 349.804688 432.507812 348.265625 440.546875 344.367188 446.222656 L 341.527344 450.480469 L 347.792969 449.652344 C 354.769531 448.824219 361.628906 445.515625 363.992188 441.730469 C 365.175781 439.957031 365.882812 433.574219 366.355469 420.804688 C 366.710938 410.753906 367.421875 401.648438 368.011719 400.703125 C 368.722656 399.523438 368.25 399.640625 366.828125 401.058594 C 364.9375 402.832031 364.464844 405.550781 363.992188 420.683594 C 363.28125 439.601562 362.101562 443.386719 356.1875 445.632812 C 353.351562 446.816406 347.4375 447.289062 347.4375 446.460938 C 347.4375 446.222656 348.386719 444.214844 349.449219 441.96875 C 350.988281 438.894531 351.695312 433.808594 352.167969 420.804688 C 352.523438 410.042969 353.351562 402.714844 354.296875 400.941406 C 356.660156 396.800781 354.769531 397.867188 352.167969 402.121094 Z M 352.167969 402.121094 " fill-opacity="1" fill-rule="nonzero"/><path fill="#000000" d="M 373.332031 400.941406 C 372.386719 402.597656 371.558594 411.464844 370.96875 423.757812 C 370.496094 434.753906 369.785156 444.921875 369.3125 446.222656 C 368.484375 448.589844 368.601562 448.589844 370.375 446.34375 C 371.441406 445.042969 372.503906 442.441406 372.859375 440.429688 C 373.570312 436.527344 375.578125 399.167969 375.105469 398.574219 C 374.988281 398.339844 374.160156 399.402344 373.332031 400.941406 Z M 373.332031 400.941406 " fill-opacity="1" fill-rule="nonzero"/><path fill="#000000" d="M 427.128906 399.757812 C 426.65625 400.585938 426.773438 400.703125 427.71875 400.230469 C 428.429688 399.757812 429.847656 399.996094 430.792969 400.703125 C 432.210938 401.886719 432.566406 401.769531 432.566406 400.230469 C 432.566406 398.101562 428.429688 397.628906 427.128906 399.757812 Z M 427.128906 399.757812 " fill-opacity="1" fill-rule="nonzero"/><path fill="#000000" d="M 305.113281 402.476562 C 305.113281 404.371094 305.347656 405.078125 305.703125 403.894531 C 305.941406 402.832031 305.941406 401.175781 305.703125 400.347656 C 305.347656 399.640625 305.113281 400.46875 305.113281 402.476562 Z M 305.113281 402.476562 " fill-opacity="1" fill-rule="nonzero"/><path fill="#000000" d="M 308.1875 401.648438 C 307.832031 402.949219 308.1875 403.894531 309.015625 403.894531 C 309.839844 403.894531 310.195312 402.949219 309.839844 401.648438 C 309.605469 400.46875 309.132812 399.523438 309.015625 399.523438 C 308.894531 399.523438 308.421875 400.46875 308.1875 401.648438 Z M 308.1875 401.648438 " fill-opacity="1" fill-rule="nonzero"/><path fill="#000000" d="M 399.460938 401.175781 C 399.460938 402.242188 400.054688 403.070312 400.644531 403.070312 C 401.355469 403.070312 401.828125 402.597656 401.828125 402.003906 C 401.828125 401.296875 401.355469 400.46875 400.644531 400.113281 C 400.054688 399.757812 399.460938 400.230469 399.460938 401.175781 Z M 399.460938 401.175781 " fill-opacity="1" fill-rule="nonzero"/><path fill="#000000" d="M 404.191406 401.175781 C 404.191406 402.242188 404.78125 403.070312 405.375 403.070312 C 406.082031 403.070312 406.554688 402.597656 406.554688 402.003906 C 406.554688 401.296875 406.082031 400.46875 405.375 400.113281 C 404.78125 399.757812 404.191406 400.230469 404.191406 401.175781 Z M 404.191406 401.175781 " fill-opacity="1" fill-rule="nonzero"/><path fill="#000000" d="M 412.820312 401.53125 C 411.640625 403.421875 411.285156 403.421875 410.222656 401.886719 C 408.800781 399.875 408.449219 401.769531 409.867188 403.894531 C 410.929688 405.550781 415.304688 402.714844 414.714844 400.824219 C 414.476562 400.113281 413.648438 400.46875 412.820312 401.53125 Z M 412.820312 401.53125 " fill-opacity="1" fill-rule="nonzero"/><path fill="#000000" d="M 527.035156 401.414062 C 526.207031 402.476562 525.144531 408.152344 524.789062 414.890625 C 524.078125 423.640625 523.25 427.660156 521.359375 430.851562 C 518.523438 435.820312 520.414062 435.9375 524.078125 431.089844 C 525.851562 428.605469 526.5625 425.179688 527.269531 415.839844 C 527.746094 409.097656 528.453125 402.714844 528.925781 401.53125 C 529.992188 399.050781 529.164062 398.929688 527.035156 401.414062 Z M 527.035156 401.414062 " fill-opacity="1" fill-rule="nonzero"/><path fill="#000000" d="M 294.824219 401.769531 C 294.472656 402.359375 294.707031 403.1875 295.417969 403.660156 C 296.007812 404.015625 296.597656 403.542969 296.597656 402.597656 C 296.597656 400.46875 295.890625 400.113281 294.824219 401.769531 Z M 294.824219 401.769531 " fill-opacity="1" fill-rule="nonzero"/><path fill="#000000" d="M 483.40625 402.359375 C 483.40625 403.421875 484 404.25 484.589844 404.25 C 485.296875 404.25 485.773438 403.777344 485.773438 403.1875 C 485.773438 402.476562 485.296875 401.648438 484.589844 401.296875 C 484 400.941406 483.40625 401.414062 483.40625 402.359375 Z M 483.40625 402.359375 " fill-opacity="1" fill-rule="nonzero"/><path fill="#000000" d="M 487.664062 401.769531 C 487.191406 402.359375 487.425781 403.1875 488.019531 403.542969 C 488.609375 404.015625 489.4375 403.777344 489.792969 403.1875 C 490.265625 402.597656 490.027344 401.769531 489.4375 401.414062 C 488.847656 400.941406 488.019531 401.175781 487.664062 401.769531 Z M 487.664062 401.769531 " fill-opacity="1" fill-rule="nonzero"/><path fill="#000000" d="M 298.964844 403.777344 C 298.964844 404.722656 299.554688 405.195312 300.144531 404.84375 C 300.855469 404.371094 301.09375 403.542969 300.738281 402.949219 C 299.671875 401.296875 298.964844 401.648438 298.964844 403.777344 Z M 298.964844 403.777344 " fill-opacity="1" fill-rule="nonzero"/><path fill="#000000" d="M 321.191406 405.078125 C 322.019531 405.433594 323.082031 405.316406 323.4375 404.960938 C 323.910156 404.605469 323.203125 404.25 321.902344 404.371094 C 320.601562 404.371094 320.246094 404.722656 321.191406 405.078125 Z M 321.191406 405.078125 " fill-opacity="1" fill-rule="nonzero"/><path fill="#000000" d="M 325.566406 405.433594 C 325.921875 406.023438 325.210938 406.617188 323.910156 406.617188 C 320.71875 406.617188 317.882812 407.796875 317.882812 409.21875 C 317.882812 410.042969 318.355469 410.042969 319.417969 409.21875 C 320.128906 408.625 322.136719 407.796875 323.675781 407.5625 C 326.511719 407.207031 328.757812 404.25 326.15625 404.25 C 325.449219 404.25 325.210938 404.722656 325.566406 405.433594 Z M 325.566406 405.433594 " fill-opacity="1" fill-rule="nonzero"/><path fill="#000000" d="M 343.890625 405.433594 C 343.890625 406.023438 344.484375 406.617188 345.074219 406.617188 C 345.785156 406.617188 346.257812 406.023438 346.257812 405.433594 C 346.257812 404.722656 345.785156 404.25 345.074219 404.25 C 344.484375 404.25 343.890625 404.722656 343.890625 405.433594 Z M 343.890625 405.433594 " fill-opacity="1" fill-rule="nonzero"/><path fill="#000000" d="M 412.46875 407.679688 C 412.46875 408.390625 412.941406 409.21875 413.648438 409.570312 C 414.359375 409.925781 414.476562 409.453125 414.121094 408.507812 C 413.296875 406.378906 412.46875 406.023438 412.46875 407.679688 Z M 412.46875 407.679688 " fill-opacity="1" fill-rule="nonzero"/><path fill="#000000" d="M 307.242188 410.753906 C 307.242188 412.054688 308.421875 412.527344 311.140625 412.410156 L 314.925781 412.171875 L 311.496094 411.699219 C 308.894531 411.226562 308.421875 410.871094 309.722656 410.042969 C 311.023438 409.21875 311.023438 408.980469 309.367188 408.980469 C 308.1875 408.980469 307.242188 409.808594 307.242188 410.753906 Z M 307.242188 410.753906 " fill-opacity="1" fill-rule="nonzero"/><path fill="#000000" d="M 336.5625 410.871094 C 335.972656 411.34375 335.617188 412.882812 335.617188 414.300781 C 335.617188 416.429688 334.90625 416.902344 331.476562 417.019531 C 328.996094 417.136719 327.578125 416.664062 327.929688 416.074219 C 328.996094 414.417969 327.222656 414.65625 323.792969 416.664062 C 320.007812 418.792969 319.0625 418.792969 319.0625 416.785156 C 319.0625 415.363281 317.644531 415.71875 312.5625 417.964844 C 304.757812 421.511719 301.800781 420.921875 299.4375 415.246094 C 298.253906 412.644531 297.070312 411.34375 295.773438 411.582031 C 293.289062 412.054688 289.742188 417.019531 288.796875 421.394531 C 288.203125 424.351562 288.558594 423.996094 290.804688 419.621094 C 294.117188 413.589844 296.597656 412.171875 296.597656 416.429688 C 296.597656 419.859375 299.4375 423.167969 302.273438 423.167969 C 303.339844 423.167969 307.003906 421.867188 310.433594 420.332031 C 315.515625 417.964844 316.582031 417.730469 317.171875 419.148438 C 317.761719 420.683594 318.355469 420.683594 321.429688 419.03125 C 324.738281 417.375 325.210938 417.375 326.867188 419.03125 C 327.929688 419.976562 329.351562 420.449219 330.058594 419.976562 C 330.886719 419.503906 334.671875 419.265625 338.453125 419.386719 C 343.183594 419.621094 345.785156 419.148438 346.492188 418.203125 C 347.675781 416.191406 347.675781 411.34375 346.492188 411.34375 C 346.019531 411.34375 345.546875 412.765625 345.664062 414.539062 C 345.664062 417.257812 345.191406 417.730469 342.117188 417.730469 C 338.925781 417.847656 338.453125 417.375 337.980469 413.945312 C 337.625 411.699219 337.035156 410.398438 336.5625 410.871094 Z M 336.5625 410.871094 " fill-opacity="1" fill-rule="nonzero"/><path fill="#000000" d="M 514.148438 423.640625 C 513.4375 424.707031 512.964844 426.125 513.320312 426.953125 C 513.792969 428.015625 514.03125 427.78125 514.03125 426.480469 C 514.148438 425.414062 514.855469 424.351562 515.683594 423.996094 C 516.394531 423.757812 516.75 423.167969 516.394531 422.695312 C 516.039062 422.222656 514.976562 422.695312 514.148438 423.640625 Z M 514.148438 423.640625 " fill-opacity="1" fill-rule="nonzero"/><path fill="#000000" d="M 335.617188 425.058594 C 335.617188 426.007812 336.207031 426.480469 336.796875 426.125 C 337.507812 425.652344 337.746094 424.824219 337.390625 424.234375 C 336.324219 422.578125 335.617188 422.933594 335.617188 425.058594 Z M 335.617188 425.058594 " fill-opacity="1" fill-rule="nonzero"/><path fill="#000000" d="M 339.164062 425.53125 C 339.164062 426.125 339.753906 426.714844 340.34375 426.714844 C 341.054688 426.714844 341.527344 426.125 341.527344 425.53125 C 341.527344 424.824219 341.054688 424.351562 340.34375 424.351562 C 339.753906 424.351562 339.164062 424.824219 339.164062 425.53125 Z M 339.164062 425.53125 " fill-opacity="1" fill-rule="nonzero"/><path fill="#000000" d="M 287.257812 427.425781 C 287.257812 428.726562 287.613281 429.078125 287.96875 428.132812 C 288.324219 427.304688 288.203125 426.242188 287.851562 425.886719 C 287.496094 425.414062 287.140625 426.125 287.257812 427.425781 Z M 287.257812 427.425781 " fill-opacity="1" fill-rule="nonzero"/><path fill="#000000" d="M 299.671875 426.597656 C 299.199219 427.1875 299.4375 428.015625 300.027344 428.371094 C 300.621094 428.84375 301.445312 428.605469 301.800781 428.015625 C 302.273438 427.425781 302.039062 426.597656 301.445312 426.242188 C 300.855469 425.769531 300.027344 426.007812 299.671875 426.597656 Z M 299.671875 426.597656 " fill-opacity="1" fill-rule="nonzero"/><path fill="#000000" d="M 303.691406 427.898438 C 303.691406 428.488281 304.285156 429.078125 304.875 429.078125 C 305.585938 429.078125 306.058594 428.488281 306.058594 427.898438 C 306.058594 427.1875 305.585938 426.714844 304.875 426.714844 C 304.285156 426.714844 303.691406 427.1875 303.691406 427.898438 Z M 303.691406 427.898438 " fill-opacity="1" fill-rule="nonzero"/><path fill="#000000" d="M 431.503906 428.371094 C 430.320312 429.789062 430.558594 429.90625 432.449219 429.433594 C 433.867188 429.078125 434.933594 428.371094 434.933594 427.78125 C 434.933594 426.125 433.039062 426.480469 431.503906 428.371094 Z M 431.503906 428.371094 " fill-opacity="1" fill-rule="nonzero"/><path fill="#000000" d="M 471.464844 428.132812 C 470.519531 431.800781 470.636719 434.992188 471.582031 434.992188 C 472.292969 434.992188 472.53125 434.402344 472.175781 433.808594 C 471.703125 433.101562 471.9375 431.800781 472.765625 430.851562 C 473.59375 429.789062 473.710938 429.078125 472.765625 428.488281 C 472.175781 428.132812 471.582031 427.898438 471.464844 428.132812 Z M 471.464844 428.132812 " fill-opacity="1" fill-rule="nonzero"/><path fill="#000000" d="M 311.140625 429.90625 C 308.894531 430.734375 309.25 436.175781 311.378906 436.175781 C 315.632812 436.175781 311.496094 441.375 305.230469 443.976562 C 303.101562 444.921875 299.910156 445.632812 298.136719 445.632812 C 295.296875 445.75 295.0625 445.867188 296.953125 446.933594 C 300.265625 448.941406 305.820312 446.933594 310.90625 442.085938 C 314.925781 438.300781 315.632812 436.882812 315.28125 433.691406 C 314.925781 429.789062 313.742188 428.84375 311.140625 429.90625 Z M 311.140625 429.90625 " fill-opacity="1" fill-rule="nonzero"/><path fill="#000000" d="M 407.738281 432.152344 C 407.738281 433.101562 408.328125 433.574219 408.921875 433.21875 C 409.628906 432.746094 409.867188 431.917969 409.511719 431.328125 C 408.449219 429.671875 407.738281 430.027344 407.738281 432.152344 Z M 407.738281 432.152344 " fill-opacity="1" fill-rule="nonzero"/><path fill="#000000" d="M 412.46875 432.152344 C 412.46875 433.101562 413.058594 433.574219 413.648438 433.21875 C 414.359375 432.746094 414.59375 431.917969 414.242188 431.328125 C 413.175781 429.671875 412.46875 430.027344 412.46875 432.152344 Z M 412.46875 432.152344 " fill-opacity="1" fill-rule="nonzero"/><path fill="#000000" d="M 493.691406 431.089844 C 492.511719 432.152344 492.628906 434.992188 493.8125 434.992188 C 494.285156 434.992188 494.757812 433.925781 494.757812 432.628906 C 494.757812 429.90625 494.757812 430.027344 493.691406 431.089844 Z M 493.691406 431.089844 " fill-opacity="1" fill-rule="nonzero"/><path fill="#000000" d="M 333.960938 433.21875 C 334.433594 434.164062 334.90625 434.992188 335.144531 434.992188 C 335.378906 434.992188 335.617188 434.164062 335.617188 433.21875 C 335.617188 432.273438 335.144531 431.445312 334.433594 431.445312 C 333.84375 431.445312 333.605469 432.273438 333.960938 433.21875 Z M 333.960938 433.21875 " fill-opacity="1" fill-rule="nonzero"/><path fill="#000000" d="M 323.910156 436.410156 C 322.847656 439.367188 322.964844 440.902344 324.621094 444.332031 C 327.339844 449.769531 333.132812 450.835938 337.507812 446.695312 C 340.699219 443.621094 341.292969 439.722656 338.453125 439.722656 C 337.152344 439.722656 336.796875 440.3125 337.269531 441.613281 C 338.335938 444.332031 335.851562 446.816406 332.070312 446.816406 C 327.457031 446.816406 325.804688 444.214844 326.394531 437.949219 C 326.867188 431.800781 325.804688 431.089844 323.910156 436.410156 Z M 323.910156 436.410156 " fill-opacity="1" fill-rule="nonzero"/><path fill="#000000" d="M 318.472656 443.976562 C 316.582031 445.515625 313.035156 447.167969 310.789062 447.640625 L 306.648438 448.351562 L 309.960938 449.296875 C 314.335938 450.480469 318.472656 448.941406 320.957031 445.042969 C 323.675781 440.902344 322.730469 440.546875 318.472656 443.976562 Z M 318.472656 443.976562 " fill-opacity="1" fill-rule="nonzero"/><path fill="#000000" d="M 517.101562 449.179688 C 517.457031 449.769531 518.050781 450.363281 518.402344 450.363281 C 518.640625 450.363281 518.875 449.769531 518.875 449.179688 C 518.875 448.46875 518.285156 447.996094 517.578125 447.996094 C 516.984375 447.996094 516.75 448.46875 517.101562 449.179688 Z M 517.101562 449.179688 " fill-opacity="1" fill-rule="nonzero"/><path fill="#000000" d="M 354.535156 451.542969 C 354.535156 452.136719 355.125 452.726562 355.714844 452.726562 C 356.425781 452.726562 356.898438 452.136719 356.898438 451.542969 C 356.898438 450.835938 356.425781 450.363281 355.714844 450.363281 C 355.125 450.363281 354.535156 450.835938 354.535156 451.542969 Z M 354.535156 451.542969 " fill-opacity="1" fill-rule="nonzero"/><path fill="#000000" d="M 444.390625 451.542969 C 444.390625 452.136719 444.980469 452.726562 445.574219 452.726562 C 446.28125 452.726562 446.753906 452.136719 446.753906 451.542969 C 446.753906 450.835938 446.28125 450.363281 445.574219 450.363281 C 444.980469 450.363281 444.390625 450.835938 444.390625 451.542969 Z M 444.390625 451.542969 " fill-opacity="1" fill-rule="nonzero"/><path fill="#000000" d="M 274.488281 493.753906 C 273.308594 494.109375 272.953125 500.375 272.953125 519.054688 L 272.953125 543.765625 L 279.808594 543.765625 C 293.40625 543.765625 299.4375 535.84375 299.4375 517.753906 C 299.4375 505.929688 297.070312 499.78125 290.804688 495.644531 C 287.023438 493.042969 278.507812 492.097656 274.488281 493.753906 Z M 289.269531 500.375 C 294.117188 505.457031 295.773438 518.699219 292.933594 528.867188 C 291.277344 534.660156 285.957031 540.21875 281.9375 540.21875 L 278.863281 540.21875 L 278.863281 497.65625 L 282.765625 497.65625 C 285.367188 497.65625 287.613281 498.601562 289.269531 500.375 Z M 289.269531 500.375 " fill-opacity="1" fill-rule="nonzero"/><path fill="#000000" d="M 307.242188 518.347656 L 307.242188 543.765625 L 313.152344 543.765625 L 313.152344 492.925781 L 307.242188 492.925781 Z M 307.242188 518.347656 " fill-opacity="1" fill-rule="nonzero"/><path fill="#000000" d="M 323.4375 493.753906 C 322.964844 494.109375 322.609375 505.578125 322.609375 519.171875 L 322.609375 543.765625 L 325.566406 543.765625 C 328.523438 543.765625 328.523438 543.765625 328.523438 532.535156 C 328.523438 522.601562 328.757812 521.300781 330.648438 521.300781 C 333.722656 521.300781 337.625 524.375 338.335938 527.449219 C 338.691406 528.988281 339.636719 533.242188 340.34375 536.910156 C 341.527344 542.820312 342 543.765625 344.367188 543.765625 L 347.085938 543.765625 L 345.074219 534.1875 C 343.773438 528.160156 342.117188 523.785156 340.582031 522.246094 L 338.097656 519.765625 L 341.527344 516.570312 C 346.140625 512.316406 347.203125 506.167969 344.367188 500.375 C 343.066406 497.890625 340.816406 495.289062 339.164062 494.460938 C 336.089844 492.925781 324.738281 492.335938 323.4375 493.753906 Z M 338.453125 500.257812 C 339.519531 501.675781 340.34375 504.984375 340.34375 507.46875 C 340.34375 512.789062 336.089844 517.753906 331.476562 517.753906 C 328.523438 517.753906 328.523438 517.636719 328.523438 507.703125 L 328.523438 497.65625 L 332.542969 497.65625 C 335.496094 497.65625 337.152344 498.484375 338.453125 500.257812 Z M 338.453125 500.257812 " fill-opacity="1" fill-rule="nonzero"/><path fill="#000000" d="M 353.351562 518.347656 L 353.351562 543.765625 L 363.402344 543.765625 C 372.621094 543.765625 373.449219 543.53125 373.449219 541.402344 C 373.449219 539.273438 372.621094 539.035156 366.355469 539.035156 L 359.261719 539.035156 L 359.261719 520.121094 L 365.765625 520.121094 C 371.441406 520.121094 372.269531 519.882812 372.269531 517.753906 C 372.269531 515.625 371.441406 515.390625 365.765625 515.390625 L 359.261719 515.390625 L 359.261719 497.65625 L 366.355469 497.65625 C 372.621094 497.65625 373.449219 497.417969 373.449219 495.289062 C 373.449219 493.164062 372.621094 492.925781 363.402344 492.925781 L 353.351562 492.925781 Z M 353.351562 518.347656 " fill-opacity="1" fill-rule="nonzero"/><path fill="#000000" d="M 380.542969 518.347656 L 380.542969 543.765625 L 383.5 543.765625 C 386.457031 543.765625 386.457031 543.648438 386.457031 533.953125 C 386.457031 527.449219 387.046875 523.3125 388.113281 521.894531 C 389.886719 519.527344 390.003906 519.644531 397.097656 536.910156 C 399.34375 542.464844 400.40625 543.765625 402.652344 543.765625 C 404.191406 543.765625 405.375 543.53125 405.375 543.175781 C 405.375 542.820312 402.652344 536.433594 399.226562 528.867188 L 393.078125 515.035156 L 395.441406 510.777344 C 396.859375 508.414062 399.578125 503.449219 401.707031 499.664062 L 405.492188 492.925781 L 402.535156 492.925781 C 399.816406 492.925781 398.753906 494.460938 393.078125 505.578125 L 386.574219 518.347656 L 386.574219 505.578125 L 386.457031 492.925781 L 380.542969 492.925781 Z M 380.542969 518.347656 " fill-opacity="1" fill-rule="nonzero"/><path fill="#000000" d="M 408.921875 495.289062 C 408.921875 497.300781 409.75 497.65625 413.648438 497.65625 L 418.378906 497.65625 L 418.378906 520.710938 C 418.378906 542.9375 418.496094 543.765625 420.742188 543.765625 C 422.988281 543.765625 423.109375 542.9375 423.109375 520.710938 L 423.109375 497.65625 L 427.835938 497.65625 C 431.738281 497.65625 432.566406 497.300781 432.566406 495.289062 C 432.566406 493.042969 431.738281 492.925781 420.742188 492.925781 C 409.75 492.925781 408.921875 493.042969 408.921875 495.289062 Z M 408.921875 495.289062 " fill-opacity="1" fill-rule="nonzero"/><path fill="#000000" d="M 440.84375 496.234375 C 439.070312 498.128906 436.941406 501.675781 436.230469 504.277344 C 434.578125 510.425781 434.578125 527.566406 436.351562 533.359375 C 440.488281 547.195312 454.320312 548.613281 459.996094 535.726562 C 463.1875 528.632812 463.664062 509.003906 460.707031 502.265625 C 456.449219 492.453125 447.347656 489.734375 440.84375 496.234375 Z M 454.320312 501.558594 C 456.449219 504.511719 456.804688 506.523438 456.804688 518.109375 C 456.804688 528.394531 456.332031 532.179688 454.675781 535.136719 C 452.195312 539.863281 450.894531 540.574219 447.226562 539.746094 C 439.660156 537.855469 437.058594 511.605469 443.328125 501.320312 C 446.164062 496.589844 450.65625 496.710938 454.320312 501.558594 Z M 454.320312 501.558594 " fill-opacity="1" fill-rule="nonzero"/><path fill="#000000" d="M 471.347656 493.636719 C 470.757812 494.109375 470.402344 505.578125 470.402344 519.171875 L 470.402344 543.765625 L 473.355469 543.765625 C 476.3125 543.765625 476.3125 543.765625 476.3125 532.535156 C 476.3125 522.601562 476.550781 521.300781 478.441406 521.300781 C 481.515625 521.300781 485.417969 524.375 486.125 527.449219 C 486.480469 528.988281 487.425781 533.242188 488.136719 536.910156 C 489.320312 542.820312 489.792969 543.765625 492.15625 543.765625 L 494.875 543.765625 L 492.867188 534.308594 C 491.566406 528.277344 489.910156 523.785156 488.253906 522.011719 L 485.652344 519.292969 L 488.609375 517.398438 C 494.519531 513.5 494.875 500.964844 489.199219 495.882812 C 486.71875 493.515625 473.003906 491.863281 471.347656 493.636719 Z M 486.246094 500.257812 C 487.308594 501.675781 488.136719 504.984375 488.136719 507.46875 C 488.136719 512.789062 483.878906 517.753906 479.269531 517.753906 C 476.3125 517.753906 476.3125 517.636719 476.3125 507.703125 L 476.3125 497.65625 L 480.332031 497.65625 C 483.289062 497.65625 484.945312 498.484375 486.246094 500.257812 Z M 486.246094 500.257812 " fill-opacity="1" fill-rule="nonzero"/><path fill="#000000" d="M 505.398438 517.398438 C 502.441406 530.878906 499.960938 542.347656 499.960938 542.820312 C 499.960938 543.410156 501.023438 543.765625 502.207031 543.765625 C 504.097656 543.765625 504.808594 542.347656 506.109375 536.316406 L 507.644531 528.988281 L 513.675781 528.632812 L 519.824219 528.277344 L 521.359375 536.082031 C 522.660156 542.9375 523.132812 543.765625 525.617188 543.765625 C 527.980469 543.765625 528.21875 543.292969 527.625 540.691406 C 527.152344 539.035156 524.671875 527.6875 521.949219 515.507812 C 517.222656 494.226562 516.984375 493.515625 514.03125 493.164062 C 511.074219 492.808594 510.957031 492.925781 505.398438 517.398438 Z M 516.511719 511.960938 C 517.8125 518.699219 518.875 524.375 518.875 524.492188 C 518.875 524.730469 516.394531 524.847656 513.4375 524.847656 C 509.535156 524.847656 508.117188 524.375 508.589844 523.3125 C 508.828125 522.601562 510.007812 516.691406 511.191406 510.425781 C 512.375 504.039062 513.554688 499.074219 513.675781 499.191406 C 513.910156 499.429688 515.09375 505.105469 516.511719 511.960938 Z M 516.511719 511.960938 " fill-opacity="1" fill-rule="nonzero"/><path fill="#000000" d="M 527.152344 495.289062 C 527.152344 497.300781 527.980469 497.65625 531.882812 497.65625 L 536.613281 497.65625 L 536.613281 543.765625 L 542.523438 543.765625 L 542.523438 497.65625 L 547.253906 497.65625 C 551.15625 497.65625 551.980469 497.300781 551.980469 495.289062 C 551.980469 493.042969 551.15625 492.925781 539.566406 492.925781 C 527.980469 492.925781 527.152344 493.042969 527.152344 495.289062 Z M 527.152344 495.289062 " fill-opacity="1" fill-rule="nonzero"/><path fill="#000000" d="M 160.277344 563.511719 C 159.804688 563.867188 159.449219 578.527344 159.449219 596.023438 L 159.449219 627.710938 L 166.425781 627.710938 L 166.78125 614.585938 L 167.132812 601.34375 L 171.863281 600.871094 C 183.449219 599.691406 189.597656 592.832031 189.597656 581.007812 C 189.480469 567.648438 183.921875 562.683594 169.261719 562.683594 C 164.769531 562.683594 160.632812 563.039062 160.277344 563.511719 Z M 176.59375 569.066406 C 186.644531 573.324219 184.160156 592.476562 173.164062 595.316406 C 167.015625 596.851562 166.542969 595.789062 166.542969 581.71875 C 166.542969 568.714844 166.898438 567.765625 171.035156 567.53125 C 171.863281 567.414062 174.347656 568.121094 176.59375 569.066406 Z M 176.59375 569.066406 " fill-opacity="1" fill-rule="nonzero"/><path fill="#000000" d="M 199.058594 595.195312 L 199.058594 627.710938 L 224.476562 627.710938 L 224.476562 624.753906 C 224.476562 621.800781 224.359375 621.800781 215.019531 621.800781 L 205.558594 621.800781 L 205.558594 596.96875 L 213.835938 596.96875 C 221.875 596.96875 222.113281 596.851562 222.113281 594.015625 C 222.113281 591.175781 221.875 591.058594 213.835938 591.058594 L 205.558594 591.058594 L 205.558594 568.59375 L 214.425781 568.59375 C 223.058594 568.59375 223.296875 568.476562 223.296875 565.640625 L 223.296875 562.683594 L 199.058594 562.683594 Z M 199.058594 595.195312 " fill-opacity="1" fill-rule="nonzero"/><path fill="#000000" d="M 233.9375 595.195312 L 233.9375 627.710938 L 239.847656 627.710938 L 239.964844 600.753906 L 239.964844 573.914062 L 242.09375 580.535156 C 243.277344 584.203125 247.886719 596.261719 252.261719 607.492188 C 260.066406 627 260.539062 627.710938 263.730469 627.710938 L 267.042969 627.710938 L 267.042969 562.683594 L 261.011719 562.683594 L 261.367188 589.167969 C 261.601562 603.710938 261.367188 615.414062 260.894531 615.058594 C 260.300781 614.824219 259.945312 613.996094 259.945312 613.40625 C 259.945312 612.695312 255.574219 600.992188 250.371094 587.394531 C 240.910156 563.273438 240.558594 562.683594 237.363281 562.683594 L 233.9375 562.683594 Z M 233.9375 595.195312 " fill-opacity="1" fill-rule="nonzero"/><path fill="#000000" d="M 280.046875 563.390625 C 279.929688 563.984375 279.808594 578.644531 279.691406 596.144531 L 279.457031 627.710938 L 283.476562 628.421875 C 285.605469 628.894531 290.453125 628.539062 294.117188 627.710938 C 307.949219 624.636719 313.742188 613.523438 312.914062 591.769531 C 312.5625 582.308594 311.96875 578.644531 309.722656 574.269531 C 305.585938 565.757812 301.445312 563.390625 289.859375 562.800781 C 284.421875 562.683594 280.046875 562.917969 280.046875 563.390625 Z M 298.371094 570.25 C 302.867188 573.207031 305.347656 580.179688 305.820312 591.769531 C 306.648438 610.566406 301.210938 621.917969 291.042969 622.273438 L 286.550781 622.390625 L 286.195312 595.90625 C 285.957031 575.453125 286.3125 569.066406 287.378906 568.359375 C 289.269531 567.058594 295.0625 568.121094 298.371094 570.25 Z M 298.371094 570.25 " fill-opacity="1" fill-rule="nonzero"/><path fill="#000000" d="M 323.203125 595.195312 L 323.203125 627.710938 L 329.703125 627.710938 L 329.703125 562.683594 L 323.203125 562.683594 Z M 323.203125 595.195312 " fill-opacity="1" fill-rule="nonzero"/><path fill="#000000" d="M 342.710938 595.195312 L 342.710938 627.59375 L 346.847656 628.421875 C 356.1875 630.074219 367.300781 625.347656 371.675781 617.660156 C 375.578125 611.039062 377.46875 599.808594 376.644531 589.167969 C 374.988281 569.894531 368.011719 562.683594 350.988281 562.683594 L 342.710938 562.683594 Z M 362.929688 571.667969 C 367.777344 576.398438 369.3125 581.835938 369.195312 595.195312 C 369.195312 604.65625 368.722656 608.085938 366.710938 612.578125 C 363.875 618.726562 358.316406 622.980469 353.113281 622.980469 L 349.804688 622.980469 L 349.804688 596.023438 C 349.804688 581.128906 350.160156 568.59375 350.75 568.121094 C 352.40625 566.347656 359.617188 568.476562 362.929688 571.667969 Z M 362.929688 571.667969 " fill-opacity="1" fill-rule="nonzero"/><path fill="#000000" d="M 386.457031 595.195312 L 386.457031 627.710938 L 393.550781 627.710938 L 393.550781 562.683594 L 386.457031 562.683594 Z M 386.457031 595.195312 " fill-opacity="1" fill-rule="nonzero"/><path fill="#000000" d="M 406.554688 595.195312 L 406.554688 627.710938 L 413.648438 627.710938 L 413.648438 614.351562 C 413.769531 604.65625 414.242188 600.515625 415.421875 598.863281 C 416.367188 597.5625 417.316406 596.734375 417.550781 597.089844 C 417.789062 597.324219 420.863281 604.300781 424.410156 612.578125 C 430.675781 627.472656 430.792969 627.710938 434.457031 627.710938 L 438.242188 627.710938 L 431.148438 611.394531 C 427.246094 602.527344 423.582031 594.25 422.871094 593.070312 C 422.042969 591.414062 423.464844 587.984375 429.492188 577.460938 C 433.75 570.011719 437.296875 563.628906 437.296875 563.273438 C 437.296875 562.800781 435.640625 562.683594 433.632812 562.917969 C 430.203125 563.273438 429.375 564.339844 422.042969 578.289062 C 417.789062 586.566406 414.003906 593.421875 413.648438 593.421875 C 413.296875 593.421875 413.175781 586.566406 413.414062 578.054688 L 413.769531 562.683594 L 406.554688 562.683594 Z M 406.554688 595.195312 " fill-opacity="1" fill-rule="nonzero"/><path fill="#000000" d="M 451.128906 592.476562 C 447.464844 608.910156 444.035156 623.574219 443.679688 624.992188 C 442.972656 627.355469 443.328125 627.710938 446.398438 627.710938 C 449.828125 627.710938 449.945312 627.472656 451.957031 618.253906 L 453.96875 608.792969 L 461.535156 608.792969 C 468.863281 608.792969 469.21875 608.910156 469.929688 611.984375 C 473.355469 627 473.355469 627.121094 476.667969 627.472656 C 478.679688 627.710938 479.859375 627.355469 479.859375 626.292969 C 479.859375 625.464844 476.667969 610.921875 472.882812 594.015625 L 466.144531 563.273438 L 462.007812 562.917969 L 457.988281 562.566406 Z M 464.960938 586.328125 C 466.617188 594.488281 468.035156 601.464844 468.035156 601.9375 C 468.035156 602.527344 465.082031 602.882812 461.414062 602.882812 C 455.148438 602.882812 454.792969 602.765625 455.386719 600.28125 C 455.742188 598.863281 457.277344 591.769531 458.695312 584.320312 C 460.113281 576.988281 461.414062 571.078125 461.652344 571.3125 C 461.769531 571.433594 463.308594 578.171875 464.960938 586.328125 Z M 464.960938 586.328125 " fill-opacity="1" fill-rule="nonzero"/><path fill="#000000" d="M 489.320312 595.195312 L 489.320312 627.710938 L 495.230469 627.710938 L 495.347656 600.753906 L 495.347656 573.914062 L 499.132812 584.554688 C 501.261719 590.347656 505.871094 602.527344 509.300781 611.394531 C 515.449219 627 515.804688 627.710938 518.996094 627.710938 L 522.425781 627.710938 L 522.425781 562.683594 L 516.277344 562.683594 L 516.75 589.285156 C 516.867188 603.828125 516.75 615.414062 516.394531 614.941406 C 515.921875 614.46875 514.976562 611.984375 514.148438 609.386719 C 513.320312 606.785156 508.945312 595.195312 504.453125 583.609375 C 496.414062 563.15625 496.175781 562.683594 492.746094 562.683594 L 489.320312 562.683594 Z M 489.320312 595.195312 " fill-opacity="1" fill-rule="nonzero"/><path fill="#000000" d="M 548.433594 594.960938 C 548.433594 623.453125 548.671875 627.59375 550.328125 628.183594 C 553.402344 629.367188 558.25 629.011719 564.632812 627.121094 C 576.929688 623.453125 582.132812 612.460938 581.304688 591.769531 C 580.949219 582.308594 580.359375 578.644531 578.113281 574.269531 C 573.972656 565.757812 569.835938 563.390625 558.25 562.800781 L 548.433594 562.445312 Z M 566.761719 570.25 C 571.371094 573.324219 573.738281 580.179688 574.210938 591.886719 C 575.039062 610.804688 569.597656 621.917969 559.429688 622.273438 L 554.9375 622.390625 L 554.582031 595.90625 C 554.347656 575.453125 554.703125 569.066406 555.765625 568.359375 C 557.65625 567.058594 563.449219 568.121094 566.761719 570.25 Z M 566.761719 570.25 " fill-opacity="1" fill-rule="nonzero"/><path fill="#000000" d="M 599.394531 567.058594 C 598.800781 569.539062 595.492188 583.492188 592.179688 598.152344 C 588.871094 612.8125 585.914062 625.464844 585.679688 626.175781 C 585.324219 627.238281 586.386719 627.710938 588.632812 627.710938 C 591.945312 627.710938 592.0625 627.472656 594.074219 618.253906 L 596.199219 608.675781 L 603.886719 609.03125 L 611.691406 609.386719 L 613.699219 618.132812 C 614.765625 622.863281 615.945312 627 616.183594 627.355469 C 616.539062 627.59375 618.074219 627.710938 619.609375 627.472656 L 622.566406 627.121094 L 615.355469 594.84375 L 608.261719 562.683594 L 604.359375 562.683594 C 600.929688 562.683594 600.457031 563.15625 599.394531 567.058594 Z M 605.1875 574.152344 C 605.1875 576.042969 606.25 582.191406 607.550781 587.984375 C 610.980469 603.355469 611.097656 602.882812 603.648438 602.882812 L 597.382812 602.882812 L 600.339844 586.921875 C 603.175781 571.90625 605.1875 566.820312 605.1875 574.152344 Z M 605.1875 574.152344 " fill-opacity="1" fill-rule="nonzero"/><path fill="#000000" d="M 631.199219 595.078125 L 631.199219 627.710938 L 638.648438 627.710938 L 638.054688 601.109375 C 637.820312 586.566406 637.699219 574.625 637.820312 574.859375 C 637.9375 574.980469 640.539062 581.71875 643.496094 589.875 C 646.449219 598.035156 650.824219 609.738281 653.425781 615.886719 C 657.683594 626.527344 658.15625 627.121094 661.703125 627.472656 L 665.484375 627.828125 L 665.484375 562.683594 L 658.035156 562.683594 L 658.746094 589.523438 L 659.457031 616.480469 L 652.363281 598.152344 C 648.460938 588.101562 643.847656 576.042969 642.074219 571.550781 C 639.121094 563.867188 638.527344 563.273438 634.980469 562.917969 L 631.199219 562.566406 Z M 631.199219 595.078125 " fill-opacity="1" fill-rule="nonzero"/><path fill="#000000" d="M 13.785156 651.003906 L 9.292969 651.476562 L 9.292969 716.386719 L 16.386719 716.386719 L 16.386719 689.546875 L 22.179688 688.957031 C 32.941406 687.890625 38.851562 680.679688 38.851562 668.738281 C 38.851562 655.613281 29.867188 649.230469 13.785156 651.003906 Z M 28.328125 659.515625 C 31.285156 662.472656 31.757812 663.890625 31.757812 669.445312 C 31.757812 674.058594 31.046875 676.660156 29.394531 678.90625 C 26.910156 682.097656 19.578125 685.171875 17.570312 683.871094 C 16.859375 683.398438 16.386719 677.488281 16.386719 669.566406 L 16.386719 656.085938 L 20.644531 656.085938 C 23.71875 656.085938 25.726562 657.03125 28.328125 659.515625 Z M 28.328125 659.515625 " fill-opacity="1" fill-rule="nonzero"/><path fill="#000000" d="M 146.207031 651.003906 L 141.714844 651.476562 L 141.714844 716.386719 L 150.9375 716.386719 C 165.125 716.386719 172.101562 711.539062 173.28125 700.777344 C 174.109375 693.449219 170.5625 685.410156 165.480469 683.164062 C 161.222656 681.269531 160.867188 680.207031 164.296875 679.140625 C 170.207031 677.25 173.164062 665.546875 169.5 658.453125 C 166.425781 652.539062 157.4375 649.703125 146.207031 651.003906 Z M 161.222656 659.042969 C 168.082031 665.78125 162.640625 678.550781 153.066406 678.550781 L 148.808594 678.550781 L 148.808594 656.085938 L 153.539062 656.085938 C 157.085938 656.085938 159.09375 656.914062 161.222656 659.042969 Z M 158.738281 685.644531 C 163.585938 687.417969 166.78125 693.566406 166.1875 699.714844 C 165.480469 706.691406 161.460938 710.59375 154.246094 711.300781 L 148.808594 712.011719 L 148.808594 684.460938 L 152.238281 684.460938 C 154.128906 684.460938 157.085938 684.9375 158.738281 685.644531 Z M 158.738281 685.644531 " fill-opacity="1" fill-rule="nonzero"/><path fill="#000000" d="M 449.945312 651.949219 C 441.078125 655.023438 436.113281 662.117188 433.75 675.121094 C 431.382812 688.128906 434.339844 703.972656 440.605469 710.828125 C 444.152344 714.730469 449.472656 716.742188 456.214844 716.742188 C 468.507812 716.742188 468.035156 717.449219 468.035156 698.53125 L 468.035156 682.097656 L 460.351562 682.097656 C 452.902344 682.097656 452.667969 682.214844 452.667969 685.054688 C 452.667969 687.65625 453.140625 688.011719 456.804688 688.011719 L 460.941406 688.011719 L 460.941406 699.242188 C 460.941406 710.121094 460.824219 710.472656 457.988281 711.183594 C 453.019531 712.367188 446.636719 708.347656 443.207031 701.605469 C 440.726562 696.640625 440.253906 694.277344 440.253906 684.460938 C 440.253906 674.886719 440.726562 672.402344 443.207031 667.4375 C 447.347656 659.277344 451.246094 656.679688 459.167969 656.796875 C 464.84375 656.914062 465.554688 656.679688 466.027344 654.3125 C 466.382812 652.066406 465.910156 651.476562 462.953125 650.882812 C 457.867188 649.820312 455.03125 650.058594 449.945312 651.949219 Z M 449.945312 651.949219 " fill-opacity="1" fill-rule="nonzero"/><path fill="#000000" d="M 664.65625 651.476562 C 657.800781 653.484375 652.597656 663.652344 654.726562 671.101562 C 656.261719 676.542969 658.863281 679.96875 665.484375 684.9375 C 668.796875 687.417969 672.34375 691.082031 673.171875 692.855469 C 676.007812 698.058594 675.417969 704.207031 671.988281 707.636719 C 669.269531 710.355469 668.203125 710.59375 661.582031 710.238281 C 654.726562 709.882812 654.253906 710.121094 653.898438 712.484375 C 653.425781 715.558594 657.089844 716.976562 665.011719 716.859375 C 675.0625 716.742188 682.039062 709.292969 682.039062 698.769531 C 682.039062 691.675781 678.253906 685.644531 669.976562 679.140625 C 662.53125 673.347656 660.285156 669.445312 661.347656 664.246094 C 662.765625 658.097656 669.386719 655.257812 677.308594 657.386719 C 678.492188 657.742188 679.199219 656.796875 679.4375 654.785156 C 679.792969 652.183594 679.199219 651.59375 676.007812 650.882812 C 671.398438 649.9375 669.503906 650.058594 664.65625 651.476562 Z M 664.65625 651.476562 " fill-opacity="1" fill-rule="nonzero"/><path fill="#000000" d="M 48.308594 683.871094 L 48.308594 716.386719 L 74.320312 716.386719 L 74.320312 713.429688 C 74.320312 710.472656 74.203125 710.472656 64.863281 710.472656 L 55.285156 710.472656 L 55.640625 697.824219 L 55.996094 685.171875 L 64.035156 685.289062 C 71.71875 685.410156 71.957031 685.289062 71.957031 682.570312 C 71.957031 679.851562 71.601562 679.734375 63.679688 679.734375 L 55.40625 679.734375 L 55.40625 657.269531 L 64.273438 657.269531 C 72.902344 657.269531 73.140625 657.152344 73.140625 654.3125 L 73.140625 651.359375 L 48.308594 651.359375 Z M 48.308594 683.871094 " fill-opacity="1" fill-rule="nonzero"/><path fill="#000000" d="M 83.898438 678.789062 C 83.1875 693.921875 82.242188 708.582031 81.769531 711.300781 C 81.179688 716.148438 81.296875 716.386719 84.253906 716.386719 C 85.910156 716.386719 87.328125 716.265625 87.445312 716.03125 C 87.5625 715.914062 88.15625 703.851562 88.863281 689.191406 L 90.28125 662.589844 L 95.367188 683.28125 C 102.699219 713.195312 103.644531 716.386719 106.125 716.386719 C 108.253906 716.386719 111.917969 704.207031 118.777344 674.53125 C 120.3125 668.148438 121.734375 662.589844 122.085938 662.234375 C 122.5625 661.878906 122.796875 665.898438 122.796875 671.101562 C 122.796875 676.304688 123.152344 688.601562 123.625 698.414062 L 124.335938 716.386719 L 131.074219 716.386719 L 130.480469 707.164062 C 129.183594 689.191406 127.527344 660.226562 127.527344 655.851562 C 127.527344 651.476562 127.40625 651.359375 123.386719 651.359375 C 118.777344 651.359375 119.722656 648.757812 112.15625 679.734375 C 109.554688 690.492188 107.425781 700.304688 107.425781 701.488281 C 107.425781 706.097656 106.125 702.199219 100.925781 681.390625 C 92.410156 648.046875 93.710938 651.359375 89.21875 651.359375 L 85.316406 651.359375 Z M 83.898438 678.789062 " fill-opacity="1" fill-rule="nonzero"/><path fill="#000000" d="M 183.097656 683.871094 L 183.097656 716.386719 L 190.191406 716.386719 L 190.191406 651.359375 L 183.097656 651.359375 Z M 183.097656 683.871094 " fill-opacity="1" fill-rule="nonzero"/><path fill="#000000" d="M 202.011719 683.753906 L 202.011719 716.386719 L 209.460938 716.386719 L 208.871094 689.785156 C 208.515625 675.121094 208.398438 663.300781 208.632812 663.535156 C 208.871094 663.652344 210.878906 669.210938 213.125 675.59375 C 215.375 682.097656 219.867188 693.804688 223.058594 701.605469 C 228.496094 715.320312 228.851562 715.792969 232.515625 716.148438 L 236.300781 716.503906 L 236.300781 651.359375 L 228.851562 651.359375 L 229.441406 678.195312 C 229.796875 698.296875 229.679688 704.207031 228.734375 701.605469 C 228.023438 699.714844 223.414062 687.773438 218.566406 675.003906 C 209.699219 651.949219 209.699219 651.949219 205.796875 651.59375 L 202.011719 651.238281 Z M 202.011719 683.753906 " fill-opacity="1" fill-rule="nonzero"/><path fill="#000000" d="M 252.378906 682.335938 C 248.480469 699.476562 245.167969 714.140625 244.8125 714.847656 C 244.457031 715.914062 245.523438 716.386719 247.769531 716.386719 C 251.199219 716.386719 251.316406 716.148438 253.445312 706.335938 L 255.574219 696.285156 L 270.351562 696.285156 L 272.714844 705.980469 C 274.726562 715.085938 275.199219 715.792969 278.035156 716.148438 C 280.519531 716.503906 281.230469 716.03125 281.109375 714.375 C 281.109375 713.195312 278.035156 698.652344 274.371094 682.097656 L 267.632812 651.949219 L 263.492188 651.59375 L 259.355469 651.238281 Z M 266.449219 674.414062 C 268.105469 682.925781 269.40625 690.136719 269.40625 690.609375 C 269.40625 691.203125 266.449219 691.558594 262.785156 691.558594 C 257.109375 691.558594 256.28125 691.320312 256.753906 689.429688 C 256.992188 688.363281 258.527344 680.914062 260.066406 672.996094 C 261.484375 665.074219 262.902344 658.6875 263.140625 658.804688 C 263.257812 659.042969 264.792969 666.019531 266.449219 674.414062 Z M 266.449219 674.414062 " fill-opacity="1" fill-rule="nonzero"/><path fill="#000000" d="M 301.917969 652.777344 C 301.683594 653.605469 298.492188 667.320312 294.824219 683.28125 C 291.277344 699.242188 287.96875 713.195312 287.613281 714.257812 C 287.140625 715.914062 287.730469 716.386719 290.453125 716.386719 C 293.878906 716.386719 294 716.148438 296.125 706.574219 L 298.371094 696.878906 L 313.035156 696.167969 L 314.214844 700.660156 C 314.808594 703.144531 315.753906 707.046875 316.109375 709.410156 C 317.171875 715.320312 318.234375 716.621094 321.664062 716.148438 L 324.621094 715.792969 L 317.410156 683.636719 L 310.195312 651.359375 L 306.292969 651.359375 C 304.167969 651.359375 302.15625 652.066406 301.917969 652.777344 Z M 307.242188 662.472656 C 307.242188 664.007812 308.304688 670.511719 309.605469 676.777344 C 310.90625 683.042969 311.96875 688.957031 311.96875 689.902344 C 311.96875 691.082031 310.195312 691.558594 305.347656 691.558594 C 299.671875 691.558594 298.847656 691.320312 299.4375 689.429688 C 300.738281 685.289062 304.875 663.300781 304.875 660.816406 C 304.875 659.515625 305.464844 658.6875 306.058594 659.042969 C 306.765625 659.398438 307.242188 661.050781 307.242188 662.472656 Z M 307.242188 662.472656 " fill-opacity="1" fill-rule="nonzero"/><path fill="#000000" d="M 333.25 683.753906 L 333.25 716.386719 L 340.699219 716.386719 L 340.109375 689.785156 C 339.753906 675.121094 339.636719 663.300781 339.871094 663.535156 C 340.109375 663.773438 342.117188 669.210938 344.367188 675.59375 C 346.613281 682.097656 351.105469 693.804688 354.296875 701.605469 C 359.734375 715.320312 360.089844 715.792969 363.753906 716.148438 L 367.539062 716.503906 L 367.539062 651.359375 L 360.089844 651.359375 L 360.679688 678.195312 L 361.390625 705.152344 L 357.726562 695.695312 C 341.171875 652.183594 341.171875 651.949219 337.035156 651.59375 L 333.25 651.238281 Z M 333.25 683.753906 " fill-opacity="1" fill-rule="nonzero"/><path fill="#000000" d="M 399.105469 681.742188 C 395.324219 698.53125 391.894531 713.195312 391.660156 714.257812 C 391.183594 715.914062 391.777344 716.386719 394.496094 716.386719 C 397.804688 716.386719 397.925781 716.148438 400.054688 706.335938 L 402.179688 696.285156 L 416.960938 696.285156 L 419.324219 705.980469 C 421.335938 715.085938 421.808594 715.792969 424.644531 716.148438 C 427.128906 716.503906 427.835938 716.03125 427.71875 714.375 C 427.71875 713.195312 424.644531 698.652344 420.980469 682.097656 L 414.242188 651.949219 L 410.101562 651.59375 L 405.964844 651.238281 Z M 413.058594 674.414062 C 414.714844 682.925781 416.015625 690.136719 416.015625 690.609375 C 416.015625 691.203125 413.058594 691.558594 409.394531 691.558594 C 403.71875 691.558594 402.890625 691.320312 403.363281 689.429688 C 403.601562 688.363281 405.136719 680.914062 406.675781 672.996094 C 408.09375 665.074219 409.511719 658.6875 409.75 658.804688 C 409.867188 659.042969 411.402344 666.019531 413.058594 674.414062 Z M 413.058594 674.414062 " fill-opacity="1" fill-rule="nonzero"/><path fill="#000000" d="M 482.933594 681.152344 C 479.152344 697.585938 475.839844 712.246094 475.484375 713.785156 C 474.894531 716.265625 475.25 716.503906 478.203125 716.148438 C 481.398438 715.792969 481.632812 715.320312 483.761719 705.980469 L 486.007812 696.285156 L 500.789062 696.285156 L 503.035156 706.335938 C 505.160156 716.03125 505.398438 716.386719 508.472656 716.386719 C 510.363281 716.386719 511.78125 715.914062 511.78125 715.441406 C 511.78125 714.375 499.015625 656.441406 498.066406 653.367188 C 497.59375 651.949219 496.175781 651.359375 493.574219 651.359375 L 489.671875 651.359375 Z M 496.414062 672.640625 C 497.714844 680.089844 499.25 687.417969 499.605469 688.835938 C 500.195312 691.4375 499.839844 691.558594 493.574219 691.558594 C 489.910156 691.558594 486.953125 691.203125 486.953125 690.847656 C 486.953125 689.191406 493.21875 658.453125 493.457031 658.6875 C 493.691406 658.925781 494.992188 665.191406 496.414062 672.640625 Z M 496.414062 672.640625 " fill-opacity="1" fill-rule="nonzero"/><path fill="#000000" d="M 522.425781 656.324219 C 522.425781 659.160156 521.597656 673.113281 520.652344 687.417969 C 519.703125 701.726562 518.875 714.140625 518.875 714.847656 C 518.875 715.675781 520.175781 716.386719 521.714844 716.386719 C 524.316406 716.386719 524.671875 715.792969 525.261719 709.527344 C 525.617188 705.863281 526.207031 693.804688 526.679688 682.6875 L 527.507812 662.589844 L 534.128906 689.191406 C 539.921875 712.246094 541.105469 715.792969 543.234375 716.148438 C 545.359375 716.503906 546.1875 714.140625 551.863281 691.320312 C 555.292969 677.488281 558.484375 665.074219 559.074219 663.773438 C 559.785156 662.234375 560.140625 665.78125 560.140625 673.820312 C 560.257812 680.679688 560.613281 692.976562 561.085938 701.25 L 561.796875 716.386719 L 565.34375 716.386719 C 568.769531 716.386719 568.769531 716.265625 568.179688 711.300781 C 567.707031 708.582031 566.761719 693.921875 566.050781 678.789062 L 564.632812 651.238281 L 560.375 651.59375 L 556.121094 651.949219 L 550.5625 675.003906 C 547.488281 687.65625 545.007812 699.359375 545.007812 700.898438 C 544.769531 706.453125 543.234375 701.960938 538.148438 681.269531 C 529.992188 648.285156 531.292969 651.359375 526.5625 651.359375 C 522.542969 651.359375 522.425781 651.476562 522.425781 656.324219 Z M 522.425781 656.324219 " fill-opacity="1" fill-rule="nonzero"/><path fill="#000000" d="M 589.226562 653.957031 C 584.257812 674.886719 575.628906 713.667969 575.628906 714.847656 C 575.628906 715.675781 576.929688 716.386719 578.585938 716.386719 C 581.660156 716.386719 582.367188 714.613281 584.734375 702.199219 L 585.796875 696.878906 L 601.046875 696.878906 L 603.296875 706.574219 C 605.421875 716.148438 605.542969 716.386719 608.851562 716.386719 C 611.808594 716.386719 612.28125 716.03125 611.691406 713.667969 C 610.035156 706.925781 598.09375 652.539062 598.09375 651.949219 C 598.09375 651.59375 596.199219 651.359375 593.953125 651.359375 C 590.644531 651.359375 589.699219 651.832031 589.226562 653.957031 Z M 597.027344 675.003906 C 598.328125 681.863281 599.628906 688.363281 599.984375 689.429688 C 600.574219 691.320312 599.75 691.558594 594.074219 691.558594 C 589.226562 691.558594 587.453125 691.082031 587.453125 689.902344 C 587.453125 688.363281 591.707031 666.136719 593.007812 660.816406 C 593.601562 658.214844 593.835938 658.097656 594.191406 660.226562 C 594.425781 661.527344 595.726562 668.148438 597.027344 675.003906 Z M 597.027344 675.003906 " fill-opacity="1" fill-rule="nonzero"/><path fill="#000000" d="M 637.109375 683.871094 L 637.109375 716.386719 L 644.320312 716.386719 L 644.203125 683.871094 L 643.96875 651.359375 L 637.109375 651.359375 Z M 637.109375 683.871094 " fill-opacity="1" fill-rule="nonzero"/><path fill="#000000" d="M 691.496094 683.871094 L 691.496094 716.386719 L 717.507812 716.386719 L 717.507812 713.429688 C 717.507812 710.472656 717.390625 710.472656 708.050781 710.472656 L 698.589844 710.472656 L 698.589844 651.359375 L 691.496094 651.359375 Z M 691.496094 683.871094 " fill-opacity="1" fill-rule="nonzero"/><path fill="#000000" d="M 737.015625 652.777344 C 736.660156 653.605469 733.46875 667.320312 729.921875 683.28125 C 726.257812 699.242188 723.066406 713.195312 722.710938 714.257812 C 722.238281 715.914062 722.828125 716.386719 725.546875 716.386719 C 728.859375 716.386719 728.976562 716.03125 731.222656 706.574219 L 733.46875 696.878906 L 740.800781 696.523438 L 748.128906 696.167969 L 749.3125 700.660156 C 750.023438 703.144531 750.613281 705.625 750.613281 706.335938 C 750.613281 706.925781 751.203125 709.527344 751.914062 711.894531 C 752.859375 715.675781 753.570312 716.386719 756.40625 716.386719 L 759.71875 716.386719 L 752.503906 683.871094 L 745.292969 651.359375 L 741.390625 651.359375 C 739.261719 651.359375 737.253906 652.066406 737.015625 652.777344 Z M 744.230469 674.058594 C 745.765625 681.980469 747.066406 689.308594 747.066406 690.019531 C 747.066406 691.082031 744.9375 691.558594 740.445312 691.558594 C 735.597656 691.558594 733.941406 691.203125 734.414062 690.019531 C 734.652344 689.308594 736.1875 681.863281 737.726562 673.585938 C 739.261719 665.425781 740.679688 658.804688 740.917969 659.042969 C 741.15625 659.277344 742.574219 666.019531 744.230469 674.058594 Z M 744.230469 674.058594 " fill-opacity="1" fill-rule="nonzero"/><path fill="#000000" d="M 770.238281 655.140625 C 769.886719 657.269531 769.058594 670.746094 768.347656 685.054688 C 767.640625 699.359375 766.8125 712.246094 766.457031 713.667969 C 765.984375 716.03125 766.457031 716.386719 769.292969 716.386719 L 772.722656 716.386719 L 773.433594 698.414062 C 773.90625 688.601562 774.257812 676.542969 774.257812 671.695312 C 774.257812 666.726562 774.496094 663.0625 774.851562 663.417969 C 775.207031 663.773438 776.625 668.5 777.808594 673.941406 C 784.546875 702.671875 788.800781 716.386719 790.8125 716.386719 C 791.996094 716.386719 793.175781 715.203125 793.648438 713.667969 C 794.003906 712.246094 796.84375 701.488281 799.796875 689.785156 C 802.753906 678.078125 805.472656 666.847656 806.0625 664.953125 C 806.65625 662.707031 807.246094 670.039062 807.835938 685.054688 C 808.902344 714.730469 809.136719 716.386719 812.804688 716.386719 C 816.230469 716.386719 816.113281 719.339844 813.867188 682.6875 C 812.921875 667.082031 812.09375 653.605469 812.09375 652.777344 C 812.09375 651.949219 810.4375 651.359375 808.074219 651.359375 L 804.054688 651.359375 L 798.617188 674.058594 C 795.542969 686.589844 792.703125 698.414062 792.230469 700.304688 C 791.523438 703.144531 790.101562 699.003906 784.78125 677.839844 L 778.28125 651.949219 L 774.613281 651.59375 C 771.1875 651.238281 770.832031 651.59375 770.238281 655.140625 Z M 770.238281 655.140625 " fill-opacity="1" fill-rule="nonzero"/></svg>