<?xml version="1.0" standalone="no"?>
<!DOCTYPE svg PUBLIC "-//W3C//DTD SVG 20010904//EN"
 "http://www.w3.org/TR/2001/REC-SVG-20010904/DTD/svg10.dtd">
<svg version="1.0" xmlns="http://www.w3.org/2000/svg"
 width="900.000000pt" height="900.000000pt" viewBox="0 0 900.000000 900.000000"
 preserveAspectRatio="xMidYMid meet">

<g transform="translate(0.000000,900.000000) scale(0.100000,-0.100000)"
fill="#000000" stroke="none">
<path d="M3741 7014 c-97 -35 -183 -113 -228 -209 l-28 -60 -3 -1003 -2 -1004
282 4 c265 4 288 6 358 28 98 32 139 72 165 161 16 54 19 100 19 285 1 260 11
237 -131 316 -151 83 -203 146 -203 244 l0 47 20 -26 c35 -44 134 -84 275
-112 125 -25 193 -52 225 -90 12 -14 16 -13 39 9 38 36 104 62 206 81 139 25
212 52 262 98 l43 40 0 -34 c0 -104 -66 -183 -219 -264 -51 -27 -100 -59 -108
-72 -22 -33 -14 -465 10 -539 23 -69 76 -116 164 -145 63 -21 90 -23 356 -27
l287 -4 -2 999 -3 998 -32 67 c-42 89 -101 151 -182 191 l-66 32 -730 2 c-640
2 -735 0 -774 -13z m921 -163 c24 -51 28 -65 17 -72 -21 -13 -27 -11 -34 11
-5 17 -15 20 -65 20 -49 0 -61 -3 -70 -20 -13 -24 -40 -27 -40 -5 0 20 33 87
73 148 l32 48 28 -33 c15 -18 42 -62 59 -97z m-634 22 c-2 -79 -6 -98 -18 -98
-12 0 -16 19 -18 98 -3 92 -2 97 18 97 20 0 21 -5 18 -97z m176 87 c16 -6 24
-15 20 -24 -4 -11 -12 -12 -39 -3 -36 11 -69 4 -63 -14 2 -6 28 -20 58 -32 44
-18 56 -27 58 -48 6 -54 -73 -81 -150 -51 -34 14 -28 48 6 37 50 -17 92 -17
106 0 12 14 10 17 -9 22 -50 13 -106 49 -109 69 -7 46 58 69 122 44z m96 -70
l0 -80 65 0 c51 0 65 -3 65 -15 0 -12 -16 -15 -85 -15 l-85 0 0 95 c0 88 1 95
20 95 18 0 20 -7 20 -80z m549 -53 c18 -18 19 -18 40 12 12 16 31 52 43 78
l22 48 21 -70 c37 -121 38 -125 16 -125 -14 0 -22 11 -30 46 l-12 45 -41 -52
-42 -53 -41 47 c-23 26 -44 47 -47 47 -4 0 -9 -18 -13 -41 -6 -37 -27 -60 -42
-46 -5 6 12 80 39 165 l10 34 30 -59 c16 -32 37 -66 47 -76z m-1216 -93 c3 -4
0 -16 -8 -28 -18 -25 -20 -76 -2 -76 6 0 23 20 36 46 29 54 52 69 81 54 42
-23 44 -96 5 -156 -13 -20 -19 -23 -30 -14 -12 10 -11 18 6 50 21 41 22 81 2
87 -6 3 -19 -11 -29 -29 -38 -77 -81 -98 -109 -54 -28 42 16 152 48 120z
m1761 -19 c3 -10 -17 -29 -67 -61 -73 -48 -97 -57 -103 -39 -3 9 140 113 157
114 4 1 9 -6 13 -14z m46 -120 c0 -12 -52 -119 -70 -145 l-21 -29 53 -3 c41
-2 54 -7 56 -20 3 -16 -7 -18 -97 -18 l-101 0 35 38 c41 43 91 122 77 122 -5
0 -31 -7 -58 -15 -64 -19 -74 -19 -74 3 0 15 19 24 88 44 91 27 112 31 112 23z
m-977 -407 c-25 -27 -7 -72 30 -76 16 -2 35 2 43 9 19 15 18 66 -1 77 -13 7
-15 33 -13 170 l3 162 135 -99 c115 -85 135 -104 132 -124 -4 -32 21 -51 58
-44 22 5 36 1 57 -17 40 -34 39 -93 -2 -137 -28 -30 -155 -99 -182 -99 -6 0
-23 -4 -38 -10 -25 -9 -25 -11 -9 -35 21 -32 10 -46 -65 -85 -60 -30 -101 -64
-101 -82 0 -6 -9 1 -21 16 -12 15 -52 43 -90 62 -75 37 -89 55 -70 87 16 25
10 30 -70 56 -162 53 -233 149 -163 222 22 23 32 26 64 22 31 -4 40 -2 49 15
6 11 8 27 5 36 -4 10 33 43 128 114 l133 100 3 -161 c2 -139 0 -162 -15 -179z
m-713 311 c0 -12 -8 -23 -20 -26 -17 -5 -20 -14 -20 -63 0 -50 3 -60 20 -65
11 -4 20 -15 20 -26 0 -16 -4 -19 -22 -14 -31 10 -127 61 -158 84 l-24 19 24
21 c25 20 158 91 173 91 4 0 7 -9 7 -21z m-156 -178 c4 -5 2 -21 -4 -35 l-10
-26 86 0 c76 0 85 -2 82 -17 -3 -15 -16 -18 -81 -21 l-78 -3 3 -31 c4 -39 -15
-47 -30 -13 -27 58 3 193 32 146z m1856 -72 c0 -65 -2 -73 -29 -100 -32 -31
-71 -38 -114 -18 -33 15 -48 44 -54 105 -9 83 -8 84 102 84 l95 0 0 -71z
m-1700 -144 c0 -12 -18 -15 -100 -15 -82 0 -100 3 -100 15 0 12 18 15 100 15
82 0 100 -3 100 -15z m285 -57 c7 -46 45 -93 95 -118 20 -10 83 -31 140 -45
129 -33 172 -55 210 -107 17 -22 30 -34 30 -27 0 23 71 86 115 103 22 8 80 24
130 36 97 22 166 57 191 95 9 14 21 46 28 72 l12 48 22 -58 c12 -32 25 -89 28
-127 l7 -70 -44 -43 c-54 -54 -117 -78 -273 -106 -120 -22 -164 -38 -203 -73
-22 -20 -22 -20 -45 2 -36 35 -82 50 -221 76 -144 26 -197 47 -252 102 l-37
37 5 81 c3 53 12 97 27 130 23 52 25 51 35 -8z m-314 1 c18 -18 21 -30 17 -80
-5 -64 -15 -83 -40 -74 -14 6 -14 10 -1 45 17 43 11 90 -12 90 -8 0 -19 -16
-25 -39 -11 -42 -45 -91 -62 -91 -27 0 -48 34 -48 76 0 52 8 74 26 74 11 0 13
-9 8 -40 -13 -81 21 -90 45 -11 21 70 54 88 92 50z m1688 7 c32 -17 51 -54 51
-102 0 -102 -90 -149 -162 -85 -30 27 -33 34 -32 87 0 51 3 60 32 85 36 32 69
36 111 15z m-1666 -210 c4 -10 -2 -17 -16 -22 -36 -10 -57 -35 -57 -65 0 -25
4 -28 37 -31 27 -2 39 -8 41 -20 3 -16 -6 -18 -91 -18 -90 0 -95 1 -101 23
-11 42 -6 105 10 121 18 18 65 21 81 5 8 -8 17 -7 34 5 29 20 55 21 62 2z
m1707 -74 c0 -9 -78 -104 -94 -114 -6 -4 13 -8 42 -8 45 0 52 -3 52 -20 0 -19
-7 -20 -95 -20 -52 0 -95 2 -95 4 0 2 28 31 63 65 l62 61 -67 0 c-50 0 -68 4
-68 13 0 8 3 17 7 20 9 10 193 9 193 -1z m-1870 -177 c0 -58 2 -65 20 -65 17
0 20 7 20 49 0 30 5 53 15 61 24 20 32 4 27 -55 -4 -54 -4 -55 22 -55 25 0 26
2 26 60 0 53 2 60 20 60 17 0 20 -7 20 -42 0 -24 -3 -60 -6 -80 l-7 -38 -93 0
-94 0 0 85 c0 69 3 85 15 85 12 0 15 -14 15 -65z m1870 -135 c0 -73 -2 -80
-20 -80 -18 0 -20 7 -20 60 0 47 -3 60 -15 60 -10 0 -15 -10 -15 -34 0 -45
-17 -89 -33 -83 -8 2 -11 22 -9 60 4 56 3 57 -22 57 -25 0 -26 -2 -26 -60 0
-53 -2 -60 -20 -60 -18 0 -20 7 -20 80 l0 80 100 0 100 0 0 -80z m-1812 -21
c50 -22 102 -57 102 -69 0 -12 -79 -58 -141 -81 l-50 -19 3 20 c2 15 20 28 61
45 33 13 61 26 64 29 11 11 -11 26 -67 47 -45 16 -60 26 -60 41 0 22 13 20 88
-13z m1665 -125 c13 -5 13 -10 0 -44 -17 -43 -11 -90 12 -90 8 0 19 16 25 39
11 42 45 91 62 91 6 0 20 -7 30 -17 28 -25 22 -133 -8 -133 -10 0 -13 14 -11
51 3 69 -16 74 -37 11 -22 -64 -45 -86 -78 -73 -14 5 -28 17 -32 26 -9 25 -7
90 4 119 10 28 11 29 33 20z m-1563 -84 c0 -19 -7 -20 -95 -20 -88 0 -95 1
-95 20 0 19 7 20 95 20 88 0 95 -1 95 -20z m-58 -106 c-34 -31 -62 -60 -62
-65 0 -5 29 -9 65 -9 51 0 65 -3 65 -15 0 -12 -18 -15 -100 -15 -55 0 -100 4
-100 9 0 5 23 35 51 65 l51 56 -56 0 c-45 0 -54 3 -50 15 5 12 26 15 102 15
l95 0 -61 -56z m1768 -49 c0 -12 -18 -15 -100 -15 -82 0 -100 3 -100 15 0 12
18 15 100 15 82 0 100 -3 100 -15z m-117 -91 c29 -14 67 -38 86 -52 l34 -25
-24 -19 c-28 -22 -123 -72 -156 -82 -19 -6 -23 -3 -23 13 0 11 9 22 20 26 17
5 20 15 20 65 0 49 -3 58 -20 63 -23 6 -27 37 -5 37 9 0 39 -12 68 -26z
m-1614 -18 c45 -41 33 -108 -25 -132 -47 -20 -137 -8 -142 18 -3 15 4 17 60
11 69 -6 98 8 98 46 0 39 -52 53 -129 36 -27 -6 -31 -4 -31 14 0 14 8 21 28
24 51 9 122 0 141 -17z"/>
<path d="M4550 6880 l-20 -40 45 0 c49 0 53 6 30 50 -21 40 -31 38 -55 -10z"/>
<path d="M3638 6444 c-35 -19 -35 -26 1 -47 40 -23 41 -23 41 23 0 44 -3 46
-42 24z"/>
<path d="M5290 6247 c0 -46 16 -69 57 -81 35 -11 73 32 73 84 l0 40 -65 0 -65
0 0 -43z"/>
<path d="M5316 6018 c-9 -12 -16 -39 -16 -59 0 -47 26 -72 72 -67 28 3 35 8
45 41 13 39 4 84 -20 99 -24 15 -66 8 -81 -14z"/>
<path d="M3584 5816 c-3 -8 -4 -27 -2 -43 2 -23 9 -29 32 -31 28 -4 28 -3 21
35 -4 21 -9 41 -11 45 -8 13 -34 9 -40 -6z"/>
<path d="M5320 4920 c0 -45 0 -46 41 -25 33 18 31 28 -12 50 l-29 16 0 -41z"/>
<path d="M4392 5467 c-7 -8 -12 -110 -14 -277 -3 -297 -3 -296 -82 -378 -38
-40 -39 -42 -13 -33 81 31 115 61 149 136 21 47 23 66 26 299 3 201 1 250 -9
257 -20 13 -45 11 -57 -4z"/>
<path d="M4554 5467 c-3 -8 -4 -127 -2 -263 3 -245 3 -250 29 -305 29 -60 63
-91 131 -115 l43 -15 -37 31 c-20 17 -49 56 -65 88 l-28 57 -5 265 -5 265 -28
3 c-17 2 -29 -2 -33 -11z"/>
<path d="M3891 4621 c-9 -6 -6 -8 13 -8 14 0 23 3 20 8 -7 11 -15 11 -33 0z"/>
<path d="M4362 4607 c-12 -13 -22 -34 -22 -47 0 -19 -38 -76 -83 -125 -5 -6
-7 25 -5 81 2 69 0 87 -8 75 -6 -9 -14 -83 -17 -166 -3 -82 -10 -162 -16 -177
-17 -44 -2 -33 19 15 12 24 20 64 20 96 0 47 5 60 36 97 19 24 40 44 46 44 7
0 9 -36 6 -109 -5 -131 -16 -153 -82 -170 -43 -10 -72 -31 -44 -31 42 0 91 24
108 53 l19 31 12 -33 c16 -46 57 -62 129 -50 49 9 78 13 143 22 20 2 37 24 36
47 0 8 -4 5 -9 -7 -11 -27 -27 -30 -33 -5 -4 13 -5 11 -6 -5 -1 -22 -31 -34
-31 -14 0 6 -15 4 -32 -3 -87 -36 -135 -26 -175 33 -20 30 -23 46 -23 142 0
90 3 109 15 109 8 0 15 -9 15 -20 0 -11 7 -36 14 -55 13 -31 19 -35 53 -35 21
0 56 9 77 21 35 19 40 19 48 5 14 -25 35 -19 65 19 26 32 28 33 45 18 28 -26
42 -4 24 38 -12 28 -15 30 -16 12 0 -13 -6 -23 -14 -23 -8 0 -23 -11 -34 -25
-25 -31 -52 -33 -52 -3 l0 21 -22 -21 c-74 -69 -178 -50 -178 33 0 29 -4 35
-21 35 -19 0 -21 4 -15 32 3 17 14 40 23 50 24 27 10 22 -15 -5z"/>
<path d="M4538 4607 c-3 -19 -2 -25 4 -19 6 6 8 18 6 28 -3 14 -5 12 -10 -9z"/>
<path d="M4759 4604 c-22 -24 -24 -35 -30 -162 -6 -139 -19 -193 -56 -234 -15
-17 -13 -18 38 -18 37 0 69 7 99 23 75 38 80 53 89 228 4 85 11 163 16 173 15
34 -12 8 -29 -28 -12 -25 -16 -64 -16 -150 0 -140 -14 -185 -66 -209 -19 -10
-50 -17 -68 -17 l-33 0 25 50 c22 45 25 64 26 178 2 99 6 134 19 160 21 39 18
40 -14 6z"/>
<path d="M4953 4604 c-13 -21 -18 -61 -24 -193 -4 -91 -12 -178 -18 -193 -16
-42 -4 -33 20 15 19 36 23 64 28 207 4 91 10 171 14 178 5 6 6 12 3 12 -3 0
-13 -12 -23 -26z"/>
<path d="M5072 4618 c-5 -7 -13 -32 -17 -55 -4 -24 -11 -43 -16 -43 -4 0 -16
-15 -25 -32 l-17 -33 26 24 26 23 -6 -94 c-11 -175 38 -226 209 -216 64 4 99
13 153 36 50 22 63 31 45 32 -14 0 -36 7 -50 15 -38 21 -84 19 -106 -7 -19
-21 -19 -21 1 -13 39 15 60 16 90 5 l30 -12 -40 -15 c-22 -8 -74 -17 -115 -20
-65 -5 -82 -2 -118 16 -42 22 -64 47 -77 90 -9 31 4 191 16 191 5 0 9 -13 9
-28 0 -46 30 -65 90 -60 28 3 58 12 68 21 11 10 27 14 40 10 12 -3 33 2 47 11
33 22 51 20 70 -6 13 -19 17 -21 25 -8 5 9 5 19 -2 27 -6 7 -14 28 -18 46 -8
30 -9 30 -15 10 -4 -13 -13 -23 -20 -23 -6 0 -20 -9 -30 -20 -10 -11 -26 -20
-37 -20 -20 0 -23 11 -8 26 12 12 4 40 -13 47 -7 2 -36 2 -65 -1 -42 -4 -52
-8 -52 -23 0 -14 7 -19 28 -19 16 0 37 -6 47 -14 18 -13 17 -14 -14 -30 -46
-25 -102 -18 -117 14 -36 76 -37 78 -26 119 10 41 4 52 -16 29z m218 -103 c0
-19 -21 -19 -46 0 -18 14 -17 14 14 15 22 0 32 -5 32 -15z"/>
<path d="M5534 4604 c-14 -20 -19 -62 -25 -192 -4 -92 -12 -180 -18 -197 l-11
-30 19 25 c30 37 41 106 41 245 0 68 4 135 10 149 12 33 5 33 -16 0z"/>
<path d="M3656 4604 c-4 -9 -4 -19 -1 -22 2 -3 7 3 11 12 4 9 4 19 1 22 -2 3
-7 -3 -11 -12z"/>
<path d="M3990 4588 c-16 -27 -20 -51 -20 -135 0 -122 -13 -190 -46 -238 l-24
-36 53 7 c59 7 117 35 137 67 10 15 16 69 20 177 3 85 9 162 14 170 6 10 2 9
-10 -3 -16 -15 -20 -38 -24 -166 -6 -160 -16 -192 -66 -211 -24 -10 -74 -14
-74 -7 0 2 8 19 17 38 13 26 19 69 23 179 3 91 10 153 18 168 20 35 4 26 -18
-10z"/>
<path d="M4169 4598 c-8 -14 -15 -89 -20 -193 -4 -93 -10 -179 -14 -190 -7
-20 -6 -20 9 -1 9 11 18 33 21 50 6 33 23 349 19 354 -1 2 -8 -7 -15 -20z"/>
<path d="M4624 4608 c-4 -7 -3 -8 5 -4 6 4 18 2 26 -4 12 -10 15 -9 15 4 0 18
-35 22 -46 4z"/>
<path d="M3592 4585 c0 -16 2 -22 5 -12 2 9 2 23 0 30 -3 6 -5 -1 -5 -18z"/>
<path d="M3618 4592 c-3 -11 0 -19 7 -19 7 0 10 8 7 19 -2 10 -6 18 -7 18 -1
0 -5 -8 -7 -18z"/>
<path d="M4390 4596 c0 -9 5 -16 10 -16 6 0 10 4 10 9 0 6 -4 13 -10 16 -5 3
-10 -1 -10 -9z"/>
<path d="M4430 4596 c0 -9 5 -16 10 -16 6 0 10 4 10 9 0 6 -4 13 -10 16 -5 3
-10 -1 -10 -9z"/>
<path d="M4503 4593 c-10 -16 -13 -16 -22 -3 -12 17 -15 1 -3 -17 9 -14 46 10
41 26 -2 6 -9 3 -16 -6z"/>
<path d="M5469 4594 c-7 -9 -16 -57 -19 -114 -6 -74 -13 -108 -29 -135 -24
-42 -8 -43 23 -2 15 21 21 50 27 129 4 57 10 111 14 121 9 21 2 22 -16 1z"/>
<path d="M3505 4591 c-3 -5 -1 -12 5 -16 5 -3 10 1 10 9 0 18 -6 21 -15 7z"/>
<path d="M5100 4586 c0 -9 5 -16 10 -16 6 0 10 4 10 9 0 6 -4 13 -10 16 -5 3
-10 -1 -10 -9z"/>
<path d="M5136 4591 c-4 -5 -2 -12 3 -15 5 -4 12 -2 15 3 4 5 2 12 -3 15 -5 4
-12 2 -15 -3z"/>
<path d="M3540 4574 c0 -8 5 -12 10 -9 6 4 8 11 5 16 -9 14 -15 11 -15 -7z"/>
<path d="M3728 4563 c7 -3 16 -2 19 1 4 3 -2 6 -13 5 -11 0 -14 -3 -6 -6z"/>
<path d="M3765 4560 c3 -5 -3 -10 -14 -10 -27 0 -51 -10 -51 -22 0 -7 4 -7 13
0 6 5 23 12 36 14 24 3 43 28 21 28 -6 0 -8 -4 -5 -10z"/>
<path d="M3920 4560 c0 -5 5 -10 10 -10 6 0 10 5 10 10 0 6 -4 10 -10 10 -5 0
-10 -4 -10 -10z"/>
<path d="M4500 4541 c0 -6 4 -13 10 -16 6 -3 7 1 4 9 -7 18 -14 21 -14 7z"/>
<path d="M3610 4515 c0 -11 10 -15 33 -14 l32 2 -29 4 c-22 4 -26 7 -15 14 11
7 11 9 -3 9 -10 0 -18 -7 -18 -15z"/>
<path d="M3858 4514 c-5 -4 -8 -17 -8 -29 0 -18 -6 -22 -35 -23 -21 -1 -33 3
-30 8 9 14 -6 12 -35 -5 -32 -18 -40 -18 -40 -1 0 12 -12 9 -55 -10 -66 -30
-91 -25 -111 23 -10 22 -20 33 -31 31 -21 -4 -51 -46 -59 -83 -5 -25 -2 -22
17 15 28 51 49 63 49 27 0 -29 24 -57 48 -57 9 0 40 11 69 24 43 20 52 22 57
10 5 -13 10 -13 36 1 28 14 32 14 46 0 9 -8 21 -12 27 -8 7 4 39 6 71 5 40 -2
62 2 68 10 10 17 10 58 0 58 -4 0 -8 -12 -7 -27 0 -23 -4 -27 -30 -27 -27 -1
-31 3 -35 32 -3 19 -8 30 -12 26z"/>
<path d="M5360 4406 c-6 -9 -10 -21 -7 -28 4 -9 6 -7 6 4 1 9 7 18 14 21 6 2
9 7 6 11 -3 4 -12 0 -19 -8z"/>
<path d="M3850 4394 c0 -8 5 -12 10 -9 6 4 8 11 5 16 -9 14 -15 11 -15 -7z"/>
<path d="M3880 4390 c0 -5 5 -10 10 -10 6 0 10 5 10 10 0 6 -4 10 -10 10 -5 0
-10 -4 -10 -10z"/>
<path d="M3441 4374 c0 -11 3 -14 6 -6 3 7 2 16 -1 19 -3 4 -6 -2 -5 -13z"/>
<path d="M3546 4381 c-4 -5 -2 -12 3 -15 5 -4 12 -2 15 3 4 5 2 12 -3 15 -5 4
-12 2 -15 -3z"/>
<path d="M3580 4370 c0 -5 5 -10 10 -10 6 0 10 5 10 10 0 6 -4 10 -10 10 -5 0
-10 -4 -10 -10z"/>
<path d="M4661 4366 c-10 -12 -8 -13 8 -9 12 3 21 9 21 14 0 14 -16 11 -29 -5z"/>
<path d="M4999 4368 c-8 -31 -7 -58 1 -58 6 0 8 5 5 10 -4 6 -2 17 5 25 7 9 8
15 0 20 -5 3 -10 5 -11 3z"/>
<path d="M3643 4353 c-19 -7 -16 -53 2 -53 36 0 1 -44 -52 -66 -18 -8 -45 -14
-60 -14 -24 -1 -26 -2 -10 -11 28 -17 75 0 118 41 34 32 40 44 37 71 -3 33
-13 41 -35 32z"/>
<path d="M4460 4334 c0 -8 5 -12 10 -9 6 4 8 11 5 16 -9 14 -15 11 -15 -7z"/>
<path d="M4500 4334 c0 -8 5 -12 10 -9 6 4 8 11 5 16 -9 14 -15 11 -15 -7z"/>
<path d="M5187 4343 c-10 -9 -9 -33 1 -33 4 0 8 9 8 20 0 23 0 22 -9 13z"/>
<path d="M3836 4325 c4 -8 8 -15 10 -15 2 0 4 7 4 15 0 8 -4 15 -10 15 -5 0
-7 -7 -4 -15z"/>
<path d="M3751 4298 c-9 -25 -8 -38 6 -67 23 -46 72 -55 109 -20 27 26 32 59
8 59 -11 0 -14 -5 -10 -16 9 -23 -12 -44 -44 -44 -39 0 -53 22 -48 75 4 52 -5
58 -21 13z"/>
<path d="M3705 4234 c-16 -13 -46 -27 -65 -31 l-35 -6 28 -8 c37 -10 72 3 93
36 23 35 15 38 -21 9z"/>
<path d="M5385 4190 c3 -5 8 -10 11 -10 2 0 4 5 4 10 0 6 -5 10 -11 10 -5 0
-7 -4 -4 -10z"/>
<path d="M4010 4170 c0 -5 5 -10 10 -10 6 0 10 5 10 10 0 6 -4 10 -10 10 -5 0
-10 -4 -10 -10z"/>
<path d="M4770 4170 c0 -5 5 -10 10 -10 6 0 10 5 10 10 0 6 -4 10 -10 10 -5 0
-10 -4 -10 -10z"/>
<path d="M3333 3813 c-10 -3 -13 -56 -13 -214 l0 -209 58 0 c115 0 166 67 166
220 0 100 -20 152 -73 187 -32 22 -104 30 -138 16z m125 -56 c41 -43 55 -155
31 -241 -14 -49 -59 -96 -93 -96 l-26 0 0 180 0 180 33 0 c22 0 41 -8 55 -23z"/>
<path d="M3610 3605 l0 -215 25 0 25 0 0 215 0 215 -25 0 -25 0 0 -215z"/>
<path d="M3747 3813 c-4 -3 -7 -100 -7 -215 l0 -208 25 0 c25 0 25 0 25 95 0
84 2 95 18 95 26 0 59 -26 65 -52 3 -13 11 -49 17 -80 10 -50 14 -58 34 -58
l23 0 -17 81 c-11 51 -25 88 -38 101 l-21 21 29 27 c39 36 48 88 24 137 -11
21 -30 43 -44 50 -26 13 -122 18 -133 6z m127 -55 c9 -12 16 -40 16 -61 0 -45
-36 -87 -75 -87 -25 0 -25 1 -25 85 l0 85 34 0 c25 0 39 -7 50 -22z"/>
<path d="M4000 3605 l0 -215 85 0 c78 0 85 2 85 20 0 18 -7 20 -60 20 l-60 0
0 80 0 80 55 0 c48 0 55 2 55 20 0 18 -7 20 -55 20 l-55 0 0 75 0 75 60 0 c53
0 60 2 60 20 0 18 -7 20 -85 20 l-85 0 0 -215z"/>
<path d="M4230 3605 l0 -215 25 0 c25 0 25 1 25 83 0 55 5 90 14 102 15 20 16
19 76 -127 19 -47 28 -58 47 -58 13 0 23 2 23 5 0 3 -23 57 -52 121 l-52 117
20 36 c12 20 35 62 53 94 l32 57 -25 0 c-23 0 -32 -13 -80 -107 l-55 -108 0
108 -1 107 -25 0 -25 0 0 -215z"/>
<path d="M4470 3800 c0 -17 7 -20 40 -20 l40 0 0 -195 c0 -188 1 -195 20 -195
19 0 20 7 20 195 l0 195 40 0 c33 0 40 3 40 20 0 19 -7 20 -100 20 -93 0 -100
-1 -100 -20z"/>
<path d="M4740 3792 c-15 -16 -33 -46 -39 -68 -14 -52 -14 -197 1 -246 35
-117 152 -129 200 -20 27 60 31 226 6 283 -36 83 -113 106 -168 51z m114 -45
c18 -25 21 -42 21 -140 0 -87 -4 -119 -18 -144 -21 -40 -32 -46 -63 -39 -64
16 -86 238 -33 325 24 40 62 39 93 -2z"/>
<path d="M4998 3814 c-5 -4 -8 -101 -8 -216 l0 -208 25 0 c25 0 25 0 25 95 0
84 2 95 18 95 26 0 59 -26 65 -52 3 -13 11 -49 17 -80 10 -50 14 -58 34 -58
l23 0 -17 80 c-11 51 -25 89 -39 104 l-22 23 25 16 c50 33 53 139 5 182 -21
20 -137 34 -151 19z m126 -56 c9 -12 16 -40 16 -61 0 -45 -36 -87 -75 -87 -25
0 -25 1 -25 85 l0 85 34 0 c25 0 39 -7 50 -22z"/>
<path d="M5286 3613 c-25 -114 -46 -211 -46 -215 0 -5 9 -8 19 -8 16 0 22 12
33 63 l13 62 51 3 52 3 13 -66 c11 -58 15 -65 36 -65 20 0 22 4 17 26 -4 14
-25 110 -48 213 -40 180 -42 186 -67 189 -25 3 -26 2 -73 -205z m94 46 c11
-57 20 -105 20 -106 0 -2 -21 -3 -46 -3 -33 0 -45 4 -41 13 2 6 12 56 22 109
10 54 20 96 21 95 2 -2 12 -50 24 -108z"/>
<path d="M5470 3800 c0 -17 7 -20 40 -20 l40 0 0 -195 0 -195 25 0 25 0 0 195
0 195 40 0 c33 0 40 3 40 20 0 19 -7 20 -105 20 -98 0 -105 -1 -105 -20z"/>
<path d="M2367 3223 c-4 -3 -7 -127 -7 -275 l0 -268 30 0 29 0 3 111 3 112 40
4 c98 10 150 68 150 168 -1 113 -48 155 -172 155 -38 0 -73 -3 -76 -7z m138
-47 c85 -36 64 -198 -29 -222 -52 -13 -56 -4 -56 115 0 110 3 118 38 120 7 1
28 -5 47 -13z"/>
<path d="M2695 2955 l0 -275 108 0 107 0 0 25 c0 25 -1 25 -80 25 l-80 0 0
105 0 105 70 0 c68 0 70 1 70 25 0 24 -2 25 -70 25 l-70 0 0 95 0 95 75 0 c73
0 75 1 75 25 l0 25 -102 0 -103 0 0 -275z"/>
<path d="M2990 2955 l0 -275 25 0 25 0 1 228 0 227 18 -56 c10 -31 49 -133 86
-228 66 -165 70 -171 97 -171 l28 0 0 275 0 275 -26 0 -25 0 3 -224 c2 -123 0
-222 -4 -219 -5 2 -8 9 -8 14 0 6 -37 105 -81 220 -80 204 -83 209 -110 209
l-29 0 0 -275z"/>
<path d="M3380 3224 c-1 -5 -2 -129 -3 -277 l-2 -267 34 -6 c18 -4 59 -1 90 6
117 26 166 120 159 304 -3 80 -8 111 -27 148 -35 72 -70 92 -168 97 -46 1 -83
-1 -83 -5z m155 -58 c38 -25 59 -84 63 -182 7 -159 -39 -255 -125 -258 l-38
-1 -3 224 c-2 173 1 227 10 233 16 11 65 2 93 -16z"/>
<path d="M3745 2955 l0 -275 28 0 27 0 0 275 0 275 -27 0 -28 0 0 -275z"/>
<path d="M3910 2955 l0 -274 35 -7 c79 -14 173 26 210 91 33 56 49 151 42 241
-14 163 -73 224 -217 224 l-70 0 0 -275z m171 199 c41 -40 54 -86 53 -199 0
-80 -4 -109 -21 -147 -24 -52 -71 -88 -115 -88 l-28 0 0 228 c0 126 3 232 8
236 14 15 75 -3 103 -30z"/>
<path d="M4280 2955 l0 -275 30 0 30 0 0 275 0 275 -30 0 -30 0 0 -275z"/>
<path d="M4450 2955 l0 -275 30 0 30 0 0 113 c1 82 5 117 15 131 8 11 16 18
18 15 2 -2 28 -61 58 -131 53 -126 54 -128 85 -128 l32 0 -60 138 c-33 75 -64
145 -70 155 -7 14 5 43 56 132 36 63 66 117 66 120 0 4 -14 5 -31 3 -29 -3
-36 -12 -98 -130 -36 -70 -68 -128 -71 -128 -3 0 -4 58 -2 130 l3 130 -30 0
-31 0 0 -275z"/>
<path d="M4827 2978 c-31 -139 -60 -263 -63 -275 -6 -20 -3 -23 23 -23 29 0
30 2 47 80 l17 80 64 0 c62 0 65 -1 71 -27 29 -127 29 -128 57 -131 17 -2 27
1 27 10 0 7 -27 130 -59 273 l-57 260 -35 3 -34 3 -58 -253z m117 52 c14 -69
26 -128 26 -132 0 -5 -25 -8 -56 -8 -53 0 -56 1 -51 22 3 12 16 72 28 135 12
62 23 112 25 110 1 -1 14 -58 28 -127z"/>
<path d="M5150 2955 l0 -275 25 0 25 0 1 228 0 227 32 -90 c18 -49 57 -152 86
-227 52 -132 55 -138 82 -138 l29 0 0 275 0 275 -26 0 -26 0 4 -225 c1 -123 0
-221 -3 -217 -4 4 -12 25 -19 47 -7 22 -44 120 -82 218 -68 173 -70 177 -99
177 l-29 0 0 -275z"/>
<path d="M5650 2957 c0 -241 2 -276 16 -281 26 -10 67 -7 121 9 104 31 148
124 141 299 -3 80 -8 111 -27 148 -35 72 -70 92 -168 97 l-83 3 0 -275z m155
209 c39 -26 59 -84 63 -183 7 -160 -39 -254 -125 -257 l-38 -1 -3 224 c-2 173
1 227 10 233 16 11 65 2 93 -16z"/>
<path d="M6081 3193 c-5 -21 -33 -139 -61 -263 -28 -124 -53 -231 -55 -237 -3
-9 6 -13 25 -13 28 0 29 2 46 80 l18 81 65 -3 66 -3 17 -74 c9 -40 19 -75 21
-78 3 -2 16 -3 29 -1 l25 3 -61 273 -60 272 -33 0 c-29 0 -33 -4 -42 -37z m49
-60 c0 -16 9 -68 20 -117 29 -130 30 -126 -33 -126 l-53 0 25 135 c24 127 41
170 41 108z"/>
<path d="M6350 2956 l0 -276 31 0 32 0 -5 225 c-2 123 -3 224 -2 222 1 -1 23
-58 48 -127 25 -69 62 -168 84 -220 36 -90 40 -95 70 -98 l32 -3 0 275 0 276
-32 0 -31 0 6 -227 6 -228 -60 155 c-33 85 -72 187 -87 225 -25 65 -30 70 -60
73 l-32 3 0 -275z"/>
<path d="M1128 2483 l-38 -4 0 -275 0 -274 30 0 30 0 0 114 0 113 49 5 c91 9
141 70 141 171 0 111 -76 165 -212 150z m123 -72 c25 -25 29 -37 29 -84 0 -39
-6 -61 -20 -80 -21 -27 -83 -53 -100 -42 -6 4 -10 54 -10 121 l0 114 36 0 c26
0 43 -8 65 -29z"/>
<path d="M2248 2483 l-38 -4 0 -275 0 -274 78 0 c120 0 179 41 189 132 7 62
-23 130 -66 149 -36 16 -39 25 -10 34 50 16 75 115 44 175 -26 50 -102 74
-197 63z m127 -68 c58 -57 12 -165 -69 -165 l-36 0 0 95 0 95 40 0 c30 0 47
-7 65 -25z m-21 -225 c41 -15 68 -67 63 -119 -6 -59 -40 -92 -101 -98 l-46 -6
0 117 0 116 29 0 c16 0 41 -4 55 -10z"/>
<path d="M4817 2475 c-75 -26 -117 -86 -137 -196 -20 -110 5 -244 58 -302 30
-33 75 -50 132 -50 104 0 100 -6 100 154 l0 139 -65 0 c-63 0 -65 -1 -65 -25
0 -22 4 -25 35 -25 l35 0 0 -95 c0 -92 -1 -95 -25 -101 -42 -10 -96 24 -125
81 -21 42 -25 62 -25 145 0 81 4 102 25 144 35 69 68 91 135 90 48 -1 54 1 58
21 3 19 -1 24 -26 29 -43 9 -67 7 -110 -9z"/>
<path d="M6633 2479 c-58 -17 -102 -103 -84 -166 13 -46 35 -75 91 -117 28
-21 58 -52 65 -67 24 -44 19 -96 -10 -125 -23 -23 -32 -25 -88 -22 -58 3 -62
1 -65 -19 -4 -26 27 -38 94 -37 85 1 144 64 144 153 0 60 -32 111 -102 166
-63 49 -82 82 -73 126 12 52 68 76 135 58 10 -3 16 5 18 22 3 22 -2 27 -29 33
-39 8 -55 7 -96 -5z"/>
<path d="M1420 2205 l0 -275 110 0 110 0 0 25 c0 25 -1 25 -80 25 l-81 0 3
107 3 107 68 -1 c65 -1 67 0 67 23 0 23 -3 24 -70 24 l-70 0 0 95 0 95 75 0
c73 0 75 1 75 25 l0 25 -105 0 -105 0 0 -275z"/>
<path d="M1721 2248 c-6 -128 -14 -252 -18 -275 -5 -41 -4 -43 21 -43 14 0 26
1 27 3 1 1 6 103 12 227 l12 225 43 -175 c62 -253 70 -280 91 -280 18 0 49
103 107 354 13 54 25 101 28 104 4 3 6 -31 6 -75 0 -44 3 -148 7 -231 l6 -152
29 0 28 0 -5 78 c-11 152 -25 397 -25 434 0 37 -1 38 -35 38 -39 0 -31 22 -95
-240 -22 -91 -40 -174 -40 -184 0 -39 -11 -6 -55 170 -72 282 -61 254 -99 254
l-33 0 -12 -232z"/>
<path d="M2560 2205 l0 -275 30 0 30 0 0 275 0 275 -30 0 -30 0 0 -275z"/>
<path d="M2720 2206 l0 -276 31 0 32 0 -5 225 c-3 124 -4 224 -2 222 2 -1 19
-48 38 -102 19 -55 57 -154 84 -220 46 -116 49 -120 80 -123 l32 -3 0 275 0
276 -31 0 -32 0 5 -227 c3 -170 2 -220 -6 -198 -6 16 -45 117 -86 225 -75 195
-75 195 -108 198 l-32 3 0 -275z"/>
<path d="M3146 2218 c-33 -145 -61 -269 -64 -275 -3 -9 6 -13 25 -13 29 0 30
2 48 85 l18 85 62 0 63 0 20 -82 c17 -77 21 -83 45 -86 21 -3 27 1 26 15 0 10
-26 133 -57 273 l-57 255 -35 3 -35 3 -59 -263z m119 67 c14 -72 25 -133 25
-137 0 -5 -25 -8 -56 -8 -48 0 -55 2 -51 18 2 9 15 72 28 139 12 67 24 121 26
120 1 -2 14 -61 28 -132z"/>
<path d="M3565 2468 c-2 -7 -29 -123 -60 -258 -30 -135 -58 -253 -61 -262 -4
-14 1 -18 24 -18 29 0 30 2 48 83 l19 82 62 3 62 3 10 -38 c5 -21 13 -54 16
-74 9 -50 18 -61 47 -57 l25 3 -61 272 -61 273 -33 0 c-18 0 -35 -6 -37 -12z
m45 -82 c0 -13 9 -68 20 -121 11 -53 20 -103 20 -111 0 -10 -15 -14 -56 -14
-48 0 -55 2 -50 18 11 35 46 221 46 242 0 11 5 18 10 15 6 -3 10 -17 10 -29z"/>
<path d="M3830 2206 l0 -276 31 0 32 0 -5 225 c-3 124 -4 224 -2 222 2 -2 19
-48 38 -102 19 -55 57 -154 84 -220 46 -116 49 -120 80 -123 l32 -3 0 275 0
276 -32 0 -31 0 5 -227 6 -228 -31 80 c-140 368 -140 370 -175 373 l-32 3 0
-275z"/>
<path d="M4387 2223 c-32 -142 -61 -266 -63 -275 -4 -14 1 -18 24 -18 28 0 29
2 47 85 l18 85 62 0 63 0 20 -82 c17 -77 21 -83 45 -86 21 -3 27 1 26 15 0 10
-26 133 -57 273 l-57 255 -35 3 -35 3 -58 -258z m118 62 c14 -72 25 -133 25
-137 0 -5 -25 -8 -56 -8 -48 0 -55 2 -51 18 2 9 15 72 28 139 12 67 24 121 26
120 1 -2 14 -61 28 -132z"/>
<path d="M5096 2228 c-32 -139 -60 -263 -63 -276 -5 -21 -2 -23 23 -20 27 3
29 7 47 86 l19 82 62 0 63 0 19 -85 c18 -82 20 -85 46 -85 16 0 28 4 28 8 0 9
-108 499 -116 525 -4 12 -16 17 -38 17 l-33 0 -57 -252z m114 72 c11 -63 24
-125 27 -137 5 -22 2 -23 -51 -23 -31 0 -56 3 -56 6 0 14 53 274 55 272 2 -2
13 -55 25 -118z"/>
<path d="M5430 2438 c0 -24 -7 -142 -15 -263 -8 -121 -15 -226 -15 -232 0 -7
11 -13 24 -13 22 0 25 5 30 58 3 31 8 133 12 227 l7 170 56 -225 c49 -195 59
-225 77 -228 18 -3 25 17 73 210 29 117 56 222 61 233 6 13 9 -17 9 -85 1 -58
4 -162 8 -232 l6 -128 30 0 c29 0 29 1 24 43 -4 23 -12 147 -18 275 l-12 233
-36 -3 -36 -3 -47 -195 c-26 -107 -47 -206 -47 -219 -2 -47 -15 -9 -58 166
-69 279 -58 253 -98 253 -34 0 -35 -1 -35 -42z"/>
<path d="M5995 2458 c-42 -177 -115 -505 -115 -515 0 -7 11 -13 25 -13 26 0
32 15 52 120 l9 45 64 0 65 0 19 -82 c18 -81 19 -83 47 -83 25 0 29 3 24 23
-14 57 -115 517 -115 522 0 3 -16 5 -35 5 -28 0 -36 -4 -40 -22z m66 -178 c11
-58 22 -113 25 -122 5 -16 -2 -18 -50 -18 -41 0 -56 4 -56 14 0 13 36 201 47
246 5 22 7 23 10 5 2 -11 13 -67 24 -125z"/>
<path d="M6400 2205 l0 -275 30 0 31 0 -1 275 -2 275 -29 0 -29 0 0 -275z"/>
<path d="M6860 2205 l0 -275 110 0 110 0 0 25 c0 25 -1 25 -80 25 l-80 0 0
250 0 250 -30 0 -30 0 0 -275z"/>
<path d="M7245 2468 c-3 -7 -30 -123 -60 -258 -31 -135 -58 -253 -61 -262 -4
-14 1 -18 24 -18 28 0 29 3 48 83 l19 82 62 3 62 3 10 -38 c6 -21 11 -42 11
-48 0 -5 5 -27 11 -47 8 -32 14 -38 38 -38 l28 0 -61 275 -61 275 -33 0 c-18
0 -35 -6 -37 -12z m61 -180 c13 -67 24 -129 24 -135 0 -9 -18 -13 -56 -13 -41
0 -55 3 -51 13 2 6 15 69 28 139 13 69 25 125 27 123 2 -2 14 -59 28 -127z"/>
<path d="M7526 2448 c-3 -18 -10 -132 -16 -253 -6 -121 -13 -230 -16 -242 -4
-20 0 -23 24 -23 l29 0 6 152 c4 83 7 185 7 226 0 42 2 73 5 70 3 -3 15 -43
25 -89 57 -243 93 -359 110 -359 10 0 20 10 24 23 3 12 27 103 52 202 25 99
48 194 53 210 5 19 10 -43 15 -170 9 -251 11 -265 42 -265 29 0 28 -25 9 285
-8 132 -15 246 -15 253 0 7 -14 12 -34 12 l-34 0 -46 -192 c-26 -106 -50 -206
-54 -222 -6 -24 -18 11 -63 190 l-55 219 -31 3 c-29 3 -32 0 -37 -30z"/>
</g>
</svg>
