<?xml version="1.0" standalone="no"?>
<!DOCTYPE svg PUBLIC "-//W3C//DTD SVG 20010904//EN"
 "http://www.w3.org/TR/2001/REC-SVG-20010904/DTD/svg10.dtd">
<svg version="1.0" xmlns="http://www.w3.org/2000/svg"
 width="1656.000000pt" height="1977.000000pt" viewBox="0 0 1656.000000 1977.000000"
 preserveAspectRatio="xMidYMid meet">

<g transform="translate(0.000000,1977.000000) scale(0.100000,-0.100000)"
fill="#000000" stroke="none">
<path d="M4900 16959 c-339 -39 -676 -173 -950 -378 -94 -70 -274 -244 -350
-337 -231 -287 -379 -645 -419 -1016 -8 -67 -11 -1584 -11 -4913 l0 -4815 998
0 c1547 0 1737 15 2232 170 336 106 492 199 622 369 132 174 219 431 262 776
37 288 41 412 41 1215 0 823 -2 860 -42 985 -44 136 -126 197 -583 435 -386
200 -541 300 -707 455 -117 108 -200 220 -263 349 -95 196 -120 377 -90 666 0
2 17 -24 38 -59 45 -78 163 -190 278 -267 255 -170 733 -311 1398 -414 134
-20 234 -42 302 -65 208 -69 439 -206 565 -335 l75 -77 30 39 c93 124 375 299
611 378 55 18 159 40 260 55 677 101 1176 248 1434 422 146 99 241 193 290
290 16 31 19 34 26 17 14 -37 7 -335 -10 -410 -53 -233 -149 -397 -340 -580
-172 -165 -302 -249 -737 -477 -504 -263 -550 -306 -592 -557 -18 -105 -18
-1516 0 -1750 59 -769 199 -1105 547 -1312 79 -47 148 -75 335 -136 511 -166
701 -182 2263 -182 l997 0 0 4840 c0 4336 -2 4851 -16 4951 -59 424 -249 805
-554 1109 -321 319 -721 510 -1172 559 -120 13 -6655 13 -6768 0z m3831 -402
c145 -179 268 -380 349 -566 40 -91 92 -234 104 -283 l6 -28 -99 0 -99 0 -6
43 c-4 23 -17 66 -31 95 l-24 52 -288 -2 -287 -3 -22 -39 c-12 -22 -30 -63
-39 -93 l-17 -53 -99 0 c-54 0 -99 1 -99 3 0 2 18 49 40 106 77 198 186 411
306 596 80 125 204 286 214 280 5 -3 46 -52 91 -108z m1818 -34 c22 -71 77
-258 121 -418 89 -318 110 -393 118 -413 3 -10 -16 -12 -89 -10 l-93 3 -13 92
c-6 51 -17 111 -23 135 -27 105 -75 258 -81 258 -3 0 -26 -28 -50 -62 -132
-191 -351 -458 -374 -458 -31 0 -236 248 -375 453 -25 37 -48 67 -51 67 -3 0
-34 -112 -68 -250 l-64 -249 -81 6 c-44 3 -83 7 -85 9 -2 2 1 21 8 42 48 153
94 309 167 577 47 171 87 317 90 325 3 8 19 -20 38 -65 105 -251 250 -500 379
-652 l45 -52 69 87 c94 117 132 172 187 268 52 92 126 263 157 365 12 38 23
69 25 69 2 0 21 -57 43 -127z m-4659 -363 l0 -480 -75 0 -75 0 0 480 0 480 75
0 75 0 0 -480z m758 464 c80 -16 228 -69 237 -84 3 -5 -9 -35 -27 -67 l-32
-59 -56 27 c-76 37 -150 53 -250 53 -65 0 -94 -4 -124 -19 -81 -41 -86 -110
-11 -152 22 -13 109 -45 193 -72 259 -85 354 -146 368 -238 19 -130 -56 -249
-192 -304 -54 -22 -73 -24 -214 -23 -138 0 -165 3 -242 27 -96 29 -230 87
-226 96 25 50 79 151 82 151 2 0 30 -16 62 -35 100 -61 202 -88 329 -89 94 0
117 3 160 22 27 13 57 30 67 38 26 24 32 68 14 102 -18 34 -55 51 -231 102
-131 37 -212 74 -292 134 -99 72 -126 129 -104 212 22 82 122 163 225 184 69
13 182 11 264 -6z m592 -379 l0 -395 335 0 335 0 0 -80 0 -80 -415 0 -415 0 0
475 0 475 80 0 80 0 0 -395z m-3373 -736 l53 -41 -29 -34 c-60 -68 -120 -232
-121 -327 0 -48 23 -102 48 -116 59 -31 107 8 182 145 122 225 194 325 261
359 42 22 116 18 174 -9 62 -29 107 -76 137 -141 20 -44 23 -65 23 -175 -1
-115 -3 -133 -33 -220 -35 -101 -68 -165 -139 -272 l-45 -67 -59 46 c-90 70
-88 65 -30 128 106 116 177 328 152 451 -13 68 -33 101 -67 114 -63 24 -100
-12 -181 -174 -70 -139 -119 -212 -191 -282 -94 -93 -155 -112 -238 -75 -155
71 -183 310 -64 559 39 81 95 172 107 172 3 0 30 -19 60 -41z m8811 -92 c19
-31 33 -59 31 -61 -14 -13 -806 -516 -813 -517 -5 0 -26 26 -47 59 l-38 59
407 262 c224 143 411 259 416 258 4 -1 24 -28 44 -60z m233 -609 c-166 -381
-315 -667 -425 -814 l-56 -74 278 0 279 0 7 -61 c3 -34 6 -72 6 -84 l0 -22
-492 -6 c-270 -4 -493 -5 -495 -4 -2 2 31 33 73 68 164 137 343 377 477 637
38 74 67 135 65 136 -1 2 -154 -44 -338 -100 -184 -57 -336 -104 -337 -104 -2
0 -3 44 -3 99 l0 99 168 46 c92 26 309 87 482 135 173 49 318 89 322 90 4 1
-1 -18 -11 -41z m-8447 -468 c4 -50 4 -94 2 -99 -3 -5 -24 -11 -47 -15 -23 -4
-64 -16 -90 -28 l-49 -20 0 -288 0 -288 58 -20 c31 -11 69 -23 84 -26 25 -6
27 -10 33 -79 12 -129 22 -124 -145 -61 -276 104 -539 251 -749 418 l-74 59
39 33 c122 105 326 235 519 329 112 55 388 174 406 175 3 0 9 -41 13 -90z
m3735 -742 l0 -813 -47 -30 c-128 -83 -149 -261 -43 -378 48 -54 107 -79 183
-78 144 0 248 105 248 248 0 96 -40 162 -140 233 l-21 15 3 809 3 808 475
-352 c261 -195 570 -424 687 -511 l211 -157 -24 -48 c-43 -86 -29 -179 37
-240 43 -39 86 -54 159 -54 72 0 117 15 157 53 l32 30 88 -75 c166 -141 202
-194 223 -323 25 -158 -34 -318 -169 -455 -185 -187 -487 -336 -965 -476 -121
-35 -206 -78 -206 -103 0 -7 18 -35 40 -61 47 -56 79 -123 80 -163 0 -89 -76
-152 -350 -285 -254 -124 -346 -179 -430 -259 -68 -64 -130 -162 -130 -205 0
-11 -4 -16 -10 -13 -5 3 -10 13 -10 21 0 32 -56 128 -105 179 -75 77 -191 149
-447 274 -186 91 -237 120 -286 166 -42 39 -62 65 -66 88 -10 53 18 126 74
192 27 32 50 62 50 66 0 21 -111 73 -231 108 -645 189 -1012 426 -1099 709
-38 122 -22 290 37 374 28 41 129 136 214 203 l47 36 29 -30 c38 -38 101 -54
185 -49 83 6 124 29 163 93 38 62 40 120 6 194 -15 31 -21 55 -15 60 12 12
1358 1011 1361 1011 2 0 3 -366 2 -812z m-4501 -145 c28 -19 52 -36 52 -39 0
-2 -11 -22 -25 -44 -27 -43 -75 -176 -75 -209 0 -21 2 -21 405 -21 l405 0 0
-80 c0 -44 -1 -81 -2 -82 -2 -1 -183 -4 -403 -7 l-400 -6 3 -35 c5 -52 30
-138 58 -192 13 -26 24 -49 24 -51 0 -6 -109 -77 -118 -77 -12 0 -65 118 -92
205 -28 87 -38 272 -20 371 21 125 100 321 123 307 7 -4 36 -22 65 -40z m9267
-95 c3 -40 5 -181 3 -313 l-3 -240 -33 -68 c-48 -98 -138 -186 -238 -234 -78
-37 -81 -38 -199 -38 -113 0 -125 2 -200 33 -137 57 -216 134 -267 262 -21 52
-22 74 -26 363 l-4 307 480 0 480 0 7 -72z m-8505 -973 l0 -75 -482 2 -483 3
-3 73 -3 72 486 0 485 0 0 -75z m1520 -350 c75 -290 274 -485 631 -618 136
-51 268 -87 581 -157 317 -72 497 -128 635 -199 189 -97 337 -242 420 -413 21
-42 40 -77 43 -77 3 -1 21 29 39 67 87 178 246 334 436 429 142 72 340 130
780 228 446 100 703 218 873 400 83 89 126 160 163 267 33 99 49 186 50 288 0
41 4 84 8 95 7 17 13 12 46 -39 107 -168 199 -463 235 -761 15 -120 15 -357 0
-428 -25 -123 -232 -335 -447 -457 -235 -135 -468 -200 -1038 -290 -532 -84
-735 -146 -930 -281 -73 -50 -205 -180 -205 -202 0 -6 -34 27 -76 72 -122 131
-241 205 -441 274 -140 49 -273 77 -693 147 -371 61 -533 96 -694 151 -122 42
-273 116 -370 181 -141 94 -313 272 -353 365 -25 58 -29 304 -9 473 38 310
135 615 248 777 l33 48 7 -130 c4 -76 16 -163 28 -210z m6705 121 c190 -69
282 -196 315 -437 37 -264 -75 -524 -264 -613 -264 -125 -581 14 -667 292 -21
66 -24 97 -24 222 0 122 4 158 24 228 47 166 186 297 353 332 68 14 187 4 263
-24z m-8418 -8 c56 -26 117 -96 145 -167 20 -50 23 -74 23 -211 0 -133 -3
-166 -23 -233 -24 -80 -78 -215 -92 -230 -7 -8 -105 36 -143 65 -18 14 -18 16
12 60 74 109 113 284 93 414 -18 115 -56 174 -113 174 -68 0 -91 -36 -139
-211 -45 -163 -107 -287 -184 -365 -60 -63 -63 -64 -114 -64 -120 0 -215 96
-243 246 -13 71 -6 206 16 288 16 61 63 186 74 198 3 4 34 -8 67 -27 l61 -34
-29 -59 c-16 -32 -36 -96 -44 -143 -30 -168 11 -289 98 -289 43 0 72 50 137
243 109 323 162 385 316 369 22 -2 59 -13 82 -24z m183 -1061 l0 -83 -57 -12
c-118 -24 -228 -94 -295 -186 -28 -39 -28 -40 -28 -188 l0 -148 195 0 195 0 0
-80 0 -80 -445 0 -444 0 -21 71 c-44 148 -62 267 -58 394 3 99 8 129 27 173
55 124 196 185 342 148 54 -14 73 -25 120 -72 l56 -55 59 51 c72 62 161 107
257 131 104 25 97 30 97 -64z m8510 -366 c0 -16 -148 -217 -252 -341 -58 -69
-142 -160 -187 -202 l-81 -78 261 0 262 0 -5 -80 c-3 -44 -7 -82 -10 -85 -3
-3 -218 -4 -479 -3 l-474 3 175 149 c203 173 332 301 411 406 30 41 59 81 63
88 6 10 -54 11 -323 6 l-331 -7 0 76 0 77 485 0 c270 0 485 -4 485 -9z m-9310
-906 l0 -305 104 0 104 0 4 233 c4 248 4 248 61 320 40 49 66 48 122 -4 l45
-41 -29 -42 c-43 -63 -51 -105 -51 -293 l0 -173 48 0 c26 0 91 -3 144 -7 l97
-6 -6 312 -6 311 88 0 88 0 -6 -142 c-4 -79 -7 -254 -7 -391 l0 -247 -477 2
-478 3 -3 388 -2 387 80 0 80 0 0 -305z m9300 -665 l0 -390 -75 0 -75 0 0 310
0 310 -110 0 -110 0 0 -217 c0 -120 -4 -234 -9 -255 -10 -44 -78 -128 -104
-128 -10 0 -39 20 -64 44 l-47 43 32 48 c42 63 46 94 44 323 l-2 142 -140 0
-140 0 -2 -307 -3 -308 -77 -3 -78 -3 0 391 0 390 480 0 480 0 0 -390z m-9260
-8 c315 -113 498 -207 694 -356 l78 -60 -38 -34 c-62 -52 -250 -176 -354 -231
-127 -67 -284 -133 -444 -186 l-131 -45 -3 82 c-2 45 1 85 5 89 5 5 68 29 142
54 223 76 413 169 521 254 25 20 25 20 5 35 -11 8 -76 44 -145 80 -133 69
-264 123 -422 175 l-98 33 0 85 0 85 33 -7 c17 -4 88 -28 157 -53z m8522 -703
c40 -23 75 -43 77 -45 2 -1 -13 -29 -32 -61 -72 -118 -107 -280 -87 -405 20
-128 68 -189 138 -172 48 12 70 52 112 203 51 182 113 303 196 386 97 97 249
47 320 -107 28 -60 29 -69 28 -198 0 -120 -3 -145 -28 -220 -29 -88 -62 -160
-72 -160 -19 0 -114 64 -110 74 41 92 59 152 68 224 18 146 -14 239 -88 258
-50 13 -82 -37 -148 -236 -66 -196 -93 -256 -142 -317 -41 -50 -86 -67 -163
-61 -133 10 -229 108 -262 268 -15 71 -6 265 16 350 16 58 93 260 100 260 2 0
36 -19 77 -41z m-7764 -416 l3 -73 -481 0 -480 0 0 75 0 75 478 -2 477 -3 3
-72z m2 -257 c0 -2 -80 -71 -177 -152 -241 -202 -378 -342 -458 -466 l-17 -28
331 0 332 0 -3 -67 -3 -68 -487 -3 c-269 -1 -488 1 -488 5 0 12 113 167 199
273 42 52 131 151 199 220 67 68 122 126 122 127 0 2 -117 3 -260 3 l-260 0 0
80 0 80 485 0 c267 0 485 -2 485 -4z m8510 -531 l0 -75 -485 0 -485 0 0 75 0
75 485 0 485 0 0 -75z m-842 -339 c247 -93 430 -185 609 -308 100 -68 232
-170 233 -178 0 -10 -159 -130 -265 -200 -128 -83 -395 -218 -575 -289 l-125
-49 -6 91 c-4 51 -4 95 0 98 3 3 35 13 71 23 36 9 75 24 88 32 l22 15 -2 286
-3 286 -65 23 c-36 13 -73 23 -82 24 -13 0 -18 8 -18 28 0 15 -3 57 -7 95 -3
37 -3 67 1 67 4 0 59 -20 124 -44z m-7969 -112 c117 -26 219 -103 270 -202 35
-69 53 -165 42 -225 -36 -195 -157 -314 -353 -347 -101 -18 -294 -7 -445 25
-184 38 -173 30 -173 125 0 44 2 80 4 80 2 0 23 -7 47 -16 78 -27 221 -54 329
-60 267 -17 430 74 430 238 0 78 -69 183 -145 221 -105 53 -278 43 -574 -33
-44 -11 -82 -20 -85 -20 -3 0 -6 38 -6 84 l0 84 139 26 c242 47 376 52 520 20z"/>
<path d="M8608 16392 c-62 -69 -156 -249 -193 -369 l-6 -23 236 0 237 0 -7 28
c-23 94 -145 320 -203 375 l-29 28 -35 -39z"/>
<path d="M4012 14065 c-71 -35 -157 -85 -192 -111 l-64 -47 30 -24 c86 -71
267 -176 342 -198 l22 -6 0 225 c0 124 -2 226 -4 226 -3 0 -63 -29 -134 -65z"/>
<path d="M12170 13053 c0 -115 5 -224 10 -244 12 -44 88 -117 156 -152 145
-72 283 -56 384 46 87 86 105 162 95 393 l-7 164 -319 0 -319 0 0 -207z"/>
<path d="M12455 12031 c-79 -21 -171 -95 -208 -167 -8 -16 -23 -80 -33 -143
-15 -97 -16 -126 -6 -193 20 -135 70 -215 166 -266 45 -24 62 -27 151 -27 90
0 106 3 158 29 114 56 162 168 162 381 0 122 -2 134 -28 191 -34 74 -104 145
-171 175 -53 23 -143 33 -191 20z"/>
<path d="M3711 10943 c-18 -9 -44 -34 -58 -55 -24 -36 -26 -44 -20 -131 3 -50
13 -134 23 -184 l18 -93 128 0 128 0 0 196 c0 179 -2 198 -20 224 -40 56 -131
76 -199 43z"/>
<path d="M12300 6400 l0 -229 76 34 c118 54 214 111 293 173 l24 19 -74 56
c-78 58 -166 109 -261 151 l-58 26 0 -230z"/>
<path d="M7785 9206 c-22 -9 -52 -28 -66 -44 -26 -29 -27 -34 -34 -208 -4 -99
-5 -564 -1 -1034 7 -872 2 -1076 -30 -1280 -59 -381 -225 -649 -562 -909 -45
-36 -81 -66 -79 -68 5 -4 132 32 232 68 194 68 346 159 466 278 125 124 205
268 278 495 81 253 91 429 91 1654 0 1064 5 994 -72 1033 -54 27 -168 35 -223
15z"/>
<path d="M8610 9205 c-25 -8 -58 -27 -72 -42 l-27 -28 -3 -1050 c-2 -1078 0
-1177 38 -1394 18 -104 92 -328 141 -425 107 -213 264 -361 499 -473 88 -41
289 -112 364 -128 32 -7 28 -2 -43 53 -304 234 -472 467 -546 759 -62 245 -69
430 -64 1638 6 1091 9 1032 -66 1074 -54 30 -155 37 -221 16z"/>
<path d="M9674 4955 c-143 -116 -208 -209 -240 -350 -13 -57 -17 -150 -20
-495 -5 -495 -12 -593 -60 -778 -43 -168 -79 -261 -128 -336 -37 -54 -157
-172 -225 -219 -17 -12 -31 -25 -31 -29 0 -4 21 -5 48 -3 26 3 127 7 224 9
282 8 449 41 601 117 178 90 308 216 357 347 50 132 52 159 59 817 l7 620 51
120 c28 66 65 150 82 188 39 86 26 80 -97 -47 -102 -106 -135 -162 -174 -301
-22 -78 -23 -88 -20 -505 4 -431 -6 -649 -33 -785 -18 -84 -77 -204 -126 -255
-47 -49 -141 -100 -253 -139 -87 -31 -93 -31 -243 -29 l-153 3 35 49 c87 123
170 319 200 478 24 126 35 459 23 708 -21 442 -4 526 161 799 28 46 50 85 49
87 -2 1 -44 -31 -94 -71z"/>
<path d="M10616 4968 c-70 -77 -123 -156 -147 -217 -32 -85 -40 -201 -49 -666
-9 -487 -18 -640 -51 -877 -25 -184 -57 -313 -103 -413 -20 -43 -36 -80 -36
-83 0 -4 21 14 46 38 92 90 179 235 229 383 48 145 54 223 65 837 12 724 12
719 65 905 24 83 42 151 40 153 -1 2 -28 -25 -59 -60z"/>
<path d="M13508 4962 c-162 -172 -187 -271 -188 -732 0 -409 -23 -817 -60
-1062 -26 -172 -54 -277 -100 -375 -21 -46 -35 -83 -30 -83 18 0 129 134 172
208 86 145 132 293 148 476 5 61 14 377 20 702 11 651 8 619 83 857 14 42 24
77 22 77 -1 0 -32 -31 -67 -68z"/>
<path d="M6723 4973 c-97 -118 -144 -208 -163 -318 -6 -40 -15 -263 -20 -525
-9 -495 -21 -711 -51 -950 -24 -192 -47 -291 -93 -399 l-36 -85 36 35 c77 73
163 225 207 365 54 171 58 216 67 844 11 732 12 740 54 909 20 76 38 145 42
154 10 28 -1 20 -43 -30z"/>
<path d="M11165 4950 c-55 -34 -100 -62 -101 -63 -2 -2 -44 -382 -44 -399 0
-8 -16 -22 -36 -33 -74 -40 -118 -110 -252 -400 -73 -158 -75 -188 -4 -67 33
56 81 131 107 167 47 66 141 165 156 165 11 0 11 -3 -6 -205 -20 -228 -20
-687 -1 -789 26 -135 94 -271 173 -350 90 -89 292 -179 477 -211 49 -8 139
-15 200 -15 147 0 430 33 555 65 160 40 534 191 766 308 l64 32 -157 0 -157 0
-130 62 c-71 34 -157 69 -189 78 -73 21 -158 16 -220 -15 -85 -41 -175 -137
-212 -227 l-16 -37 24 17 c148 105 183 118 313 119 87 0 221 -27 310 -63 l30
-12 -90 -42 c-187 -88 -600 -162 -853 -152 -169 6 -259 28 -402 98 -182 90
-305 237 -356 424 -29 109 -29 316 0 640 15 160 29 298 32 308 3 9 11 17 18
17 29 0 38 -31 42 -141 4 -130 21 -176 86 -234 77 -70 113 -80 288 -80 132 0
167 4 237 24 93 26 179 73 238 131 l41 40 52 -20 c62 -24 152 -26 211 -5 23 8
81 40 129 72 79 52 93 57 152 61 79 5 83 1 160 -135 29 -51 56 -91 60 -88 3 2
32 38 64 79 l58 76 -56 67 c-94 113 -128 241 -87 322 13 24 20 45 18 48 -3 2
-22 1 -42 -3 -61 -11 -80 -38 -100 -136 -10 -49 -20 -88 -24 -88 -3 0 -24 12
-44 26 -21 14 -40 24 -41 22 -1 -1 -12 -19 -24 -39 -27 -44 -117 -131 -161
-153 -52 -27 -125 -32 -171 -11 -44 20 -50 31 -21 40 11 3 34 22 50 41 26 29
31 43 31 85 0 27 -6 64 -14 82 -15 36 -65 83 -105 99 -38 15 -176 12 -325 -7
-72 -9 -156 -20 -186 -23 l-55 -7 -12 -75 c-19 -119 -24 -111 60 -104 124 11
244 -29 336 -112 l45 -41 -75 -43 c-143 -84 -236 -110 -401 -110 -107 0 -125
7 -193 71 -64 60 -93 125 -106 237 -10 93 -43 156 -82 160 -15 2 -27 7 -27 11
0 12 66 336 85 415 9 37 15 72 13 77 -2 5 -48 -18 -103 -51z m995 -492 c54
-27 60 -48 28 -94 -19 -28 -27 -33 -48 -29 -38 9 -222 109 -221 120 0 13 50
22 131 24 50 1 76 -4 110 -21z"/>
<path d="M7670 4946 c-94 -67 -155 -132 -187 -202 -20 -43 -25 -76 -30 -166
l-6 -113 -62 -65 c-68 -72 -191 -224 -281 -349 l-59 -81 -3 338 -2 338 35 128
c19 71 34 131 31 133 -10 10 -127 -134 -154 -189 -45 -93 -52 -176 -52 -658 0
-650 -26 -909 -111 -1102 -17 -38 -29 -72 -26 -74 7 -8 93 93 137 159 22 34
54 97 70 140 55 140 62 191 67 472 l5 260 101 110 c143 157 247 263 280 287
l29 21 -5 -489 c-6 -621 -14 -672 -126 -787 -39 -40 -59 -52 -126 -72 -44 -14
-107 -30 -140 -35 -33 -6 -78 -18 -100 -26 -50 -20 -149 -90 -195 -139 l-35
-37 57 7 c96 11 282 51 373 80 158 50 226 119 286 286 l32 91 18 -86 c23 -115
55 -180 121 -247 107 -108 210 -146 363 -134 113 8 357 49 452 75 39 11 97 31
129 45 31 14 58 24 58 23 20 -55 87 -59 166 -10 48 30 53 31 73 17 12 -8 43
-15 71 -15 44 0 53 4 85 38 42 44 60 95 68 194 l6 71 -24 -6 c-13 -4 -32 -7
-41 -7 -15 0 -18 -9 -18 -56 0 -67 -23 -120 -59 -138 -43 -22 -51 -12 -51 70
l0 74 -40 0 -41 0 16 -30 c8 -16 15 -40 15 -53 0 -30 -32 -73 -69 -92 -27 -13
-30 -12 -56 15 -26 27 -28 33 -18 65 l11 36 -31 -21 c-159 -104 -406 -174
-617 -174 -93 0 -125 4 -167 21 -152 61 -274 221 -335 438 -22 78 -22 94 -23
563 0 528 -3 502 58 502 64 0 87 -41 87 -160 0 -124 51 -279 112 -346 56 -61
115 -79 248 -78 136 1 229 31 371 117 95 57 176 97 198 97 5 0 11 -17 14 -37
13 -80 75 -122 150 -102 98 25 164 86 248 230 22 38 49 73 60 79 40 22 93 -15
149 -101 l37 -58 52 64 c28 35 51 69 51 74 0 6 -18 58 -39 116 -24 63 -42 132
-47 174 -6 69 -7 70 -24 48 -39 -50 -61 -109 -61 -163 l0 -54 -39 0 c-80 0
-118 -27 -187 -135 -85 -133 -125 -159 -190 -126 -22 11 -45 27 -52 35 -14 17
-18 109 -5 148 6 21 5 21 -13 8 -11 -8 -54 -43 -94 -78 -87 -74 -277 -174
-365 -192 -96 -20 -255 -8 -339 25 -130 51 -153 91 -165 293 -4 75 -13 149
-18 163 -18 46 -58 69 -118 69 -66 0 -66 -1 -23 159 35 130 42 147 108 246 62
93 63 95 54 95 -4 0 -42 -25 -83 -54z"/>
<path d="M6401 4898 c-91 -104 -130 -175 -163 -293 -22 -77 -23 -96 -24 -570
-1 -492 -10 -669 -40 -782 -18 -70 -76 -182 -112 -216 -48 -45 -141 -95 -210
-111 -56 -13 -254 -36 -314 -36 -13 0 -7 14 28 64 160 230 194 494 174 1361
-5 254 8 318 111 521 38 76 69 139 69 142 0 13 -140 -123 -177 -173 -112 -148
-122 -206 -127 -795 -4 -499 -7 -536 -69 -780 -52 -203 -110 -302 -260 -443
l-52 -48 185 5 c213 6 335 23 438 59 198 69 377 231 432 392 47 136 52 213 56
831 l3 581 37 104 c20 57 51 142 70 188 19 47 32 86 30 88 -2 2 -40 -38 -85
-89z"/>
<path d="M8499 4967 c-10 -8 -18 -36 -22 -77 -4 -38 -15 -75 -25 -89 -47 -64
-82 -49 -82 35 0 37 -4 54 -12 54 -25 0 -39 -17 -45 -56 -8 -50 -37 -110 -59
-118 -46 -18 -68 75 -35 150 21 47 21 48 2 67 -19 20 -20 19 -50 -48 -35 -77
-39 -125 -16 -203 11 -35 21 -52 32 -52 19 0 103 52 127 79 16 18 19 18 45 4
39 -23 93 -10 141 33 48 43 64 90 56 155 -11 81 -21 93 -57 66z"/>
<path d="M13225 4931 c-94 -76 -168 -182 -194 -277 -6 -23 -18 -187 -26 -365
-17 -358 -21 -397 -60 -548 -33 -131 -66 -195 -165 -326 -44 -58 -76 -105 -72
-105 4 0 48 26 97 58 149 97 246 217 279 346 26 99 46 312 56 602 5 153 14
305 20 336 14 74 72 239 97 275 25 36 35 53 31 53 -2 0 -30 -22 -63 -49z"/>
<path d="M4088 4952 c-26 -15 -28 -22 -28 -76 0 -92 -50 -157 -91 -120 -14 13
-19 31 -19 70 0 51 -1 53 -22 45 -17 -6 -24 -21 -33 -63 -13 -66 -38 -108 -65
-108 -41 0 -54 86 -24 160 13 32 14 43 4 55 -7 8 -16 15 -20 15 -5 0 -22 -36
-39 -80 -51 -131 -37 -210 36 -210 45 0 100 26 120 57 14 21 18 22 25 9 6 -11
24 -16 58 -16 41 0 55 5 85 31 56 49 68 81 62 162 -2 37 -8 72 -13 77 -5 5
-21 2 -36 -8z"/>
<path d="M5231 4936 c-30 -22 -99 -106 -88 -106 3 0 38 16 78 35 83 40 91 41
113 19 24 -23 19 -56 -14 -103 l-31 -42 28 15 c40 20 84 66 100 104 11 28 11
36 -1 61 -19 35 -33 41 -100 41 -39 0 -60 -6 -85 -24z"/>
<path d="M8943 4936 c-36 -16 -109 -89 -136 -135 l-18 -30 94 45 c103 48 135
53 160 26 31 -34 22 -66 -42 -152 l-24 -32 32 17 c52 27 113 87 133 132 16 37
17 46 5 75 -8 18 -21 39 -30 47 -25 20 -135 25 -174 7z"/>
<path d="M7733 4849 c-24 -17 -43 -32 -43 -35 0 -11 74 -114 80 -112 12 6 80
85 80 95 0 5 -17 25 -37 45 l-38 36 -42 -29z"/>
<path d="M7932 4848 l-43 -30 17 -26 c10 -15 27 -42 38 -59 12 -18 24 -33 28
-33 3 0 24 22 47 48 l40 49 -42 41 -42 40 -43 -30z"/>
<path d="M11291 4809 c-13 -11 -31 -24 -39 -28 -12 -7 -8 -19 23 -70 l38 -62
44 43 c24 23 43 47 43 53 0 11 -71 85 -80 85 -3 -1 -16 -10 -29 -21z"/>
<path d="M11442 4799 l-42 -30 42 -61 41 -62 43 49 42 49 -36 43 c-20 24 -39
43 -42 43 -3 -1 -24 -14 -48 -31z"/>
<path d="M3318 4793 c-18 -15 -34 -28 -36 -29 -1 -1 14 -29 34 -63 20 -34 40
-58 44 -54 3 4 21 27 39 51 l33 42 -34 39 c-18 22 -36 40 -40 40 -3 1 -21 -11
-40 -26z"/>
<path d="M3487 4773 c-20 -15 -36 -31 -37 -35 0 -10 63 -118 70 -118 3 1 21
22 41 48 l37 47 -37 43 -37 43 -37 -28z"/>
<path d="M5397 4675 c-20 -14 -37 -29 -37 -33 0 -4 17 -33 38 -65 l39 -57 43
51 43 51 -39 39 c-21 21 -41 39 -44 39 -3 0 -22 -11 -43 -25z"/>
<path d="M4459 4681 c-51 -16 -119 -62 -119 -82 0 -12 81 2 157 28 78 26 113
21 113 -15 0 -35 -21 -42 -124 -43 -123 0 -163 -13 -193 -59 -41 -65 -67 -92
-97 -105 -42 -17 -268 -24 -273 -8 -8 22 42 41 133 52 49 6 115 19 145 28 l54
18 -65 3 c-36 2 -117 -2 -180 -8 -158 -15 -211 -43 -196 -104 11 -46 59 -59
205 -54 120 4 129 6 196 38 38 19 89 54 113 76 41 39 48 42 120 49 162 15 242
58 242 131 0 54 -19 64 -118 63 -48 0 -99 -4 -113 -8z"/>
<path d="M8290 4550 c-8 -15 -8 -30 0 -56 10 -30 9 -38 -6 -55 -22 -24 -60
-24 -131 1 -63 22 -80 18 -45 -11 43 -35 134 -49 185 -30 38 15 97 71 97 92 0
22 -4 23 -32 8 -16 -8 -24 -8 -35 4 -17 17 -10 37 12 37 9 0 12 6 9 15 -9 22
-41 18 -54 -5z"/>
<path d="M5098 4423 l-47 -38 -1 -107 c0 -59 -4 -118 -10 -132 -14 -37 -46
-33 -87 10 -33 36 -35 36 -48 17 -31 -44 -160 -78 -184 -49 -16 20 -7 46 34
101 l35 45 -58 -26 c-31 -14 -113 -49 -182 -79 -207 -88 -224 -86 -196 27 11
40 21 79 24 86 2 7 -40 -16 -94 -51 -467 -305 -688 -301 -769 13 -31 120 -50
140 -135 140 -72 0 -113 -23 -170 -93 -81 -100 -120 -187 -176 -392 -29 -103
-48 -385 -26 -371 7 4 12 14 12 23 0 35 54 254 86 353 55 167 175 350 228 350
44 0 50 -14 57 -119 8 -107 20 -140 76 -193 104 -99 260 -76 594 88 149 73
167 80 157 58 -10 -20 -8 -29 9 -52 54 -72 106 -66 275 33 70 41 129 75 130
75 2 0 2 -21 0 -48 -3 -40 0 -51 22 -71 26 -25 95 -38 139 -27 14 3 49 25 78
48 30 23 54 37 57 30 2 -6 19 -21 37 -32 38 -24 65 -17 86 21 11 21 11 21 39
-9 38 -42 73 -49 132 -28 45 16 48 16 85 -4 22 -11 57 -20 82 -20 38 0 49 5
82 40 50 52 74 133 84 274 6 90 5 108 -6 104 -107 -43 -102 -38 -95 -77 28
-156 7 -241 -60 -241 -21 0 -24 4 -24 37 l0 37 -28 -27 c-34 -32 -129 -54
-148 -34 -25 27 -38 89 -43 215 l-6 132 -47 -37z"/>
<path d="M12586 3903 c-3 -17 -19 -36 -38 -48 -23 -14 -34 -29 -37 -50 -4 -40
19 -226 29 -220 4 2 10 46 13 97 7 109 21 128 93 128 l44 0 0 43 c0 40 -3 45
-35 60 -49 23 -62 21 -69 -10z"/>
<path d="M5038 3851 l-37 -28 36 -59 c19 -32 36 -60 37 -61 1 -2 19 20 40 47
l38 50 -32 40 c-17 22 -35 40 -38 40 -4 0 -24 -13 -44 -29z"/>
<path d="M5225 3844 c-11 -9 -28 -22 -39 -29 -18 -13 -17 -16 13 -69 18 -31
35 -57 39 -60 4 -2 24 17 44 43 l37 47 -37 42 c-35 39 -38 41 -57 26z"/>
<path d="M3527 3742 l-35 -29 35 -62 35 -62 39 50 40 51 -32 40 c-18 22 -35
40 -39 40 -4 0 -23 -13 -43 -28z"/>
<path d="M9127 3754 c-4 -4 -7 -17 -7 -30 0 -16 -9 -25 -30 -32 -48 -17 -55
-46 -40 -164 18 -141 28 -171 30 -88 2 89 14 168 28 182 6 6 34 13 61 16 l51
5 0 42 c0 38 -3 44 -27 53 -16 5 -35 13 -44 16 -8 4 -18 3 -22 0z"/>
<path d="M3698 3724 c-21 -15 -38 -31 -38 -35 0 -4 15 -33 34 -64 l33 -56 41
49 41 48 -37 43 -37 42 -37 -27z"/>
<path d="M10802 3680 c-7 -11 -21 -20 -31 -20 -27 0 -58 -77 -38 -97 11 -12 9
-22 -15 -70 -34 -68 -34 -74 -4 -103 27 -25 56 -28 101 -10 l29 11 -32 21
c-18 11 -32 26 -32 33 0 32 23 72 60 105 39 35 39 35 26 73 -7 21 -22 47 -32
58 -19 19 -19 19 -32 -1z"/>
<path d="M4005 3602 c-61 -28 -79 -63 -80 -149 0 -93 19 -116 111 -133 l64
-12 -32 -61 c-85 -159 -242 -246 -541 -301 -137 -25 -403 -56 -484 -56 -96 0
-30 -10 199 -30 311 -26 358 -26 456 5 190 60 427 276 481 438 27 79 44 219
31 252 -20 53 -135 80 -205 47z"/>
<path d="M8067 3563 c-20 -14 -37 -29 -37 -32 0 -3 17 -32 39 -64 l38 -58 43
51 43 51 -39 40 c-21 21 -41 39 -44 39 -3 0 -22 -12 -43 -27z"/>
<path d="M8272 3566 c-18 -13 -35 -26 -38 -29 -7 -6 66 -117 76 -117 9 0 80
77 80 86 0 11 -65 84 -75 83 -5 0 -25 -10 -43 -23z"/>
<path d="M11702 3557 l-53 -22 -4 -75 c-3 -41 -1 -81 3 -88 15 -23 101 -3 141
34 38 34 85 104 60 89 -8 -5 -34 -22 -58 -37 -25 -15 -58 -28 -75 -28 l-29 0
21 23 c22 23 67 127 54 127 -4 -1 -31 -11 -60 -23z"/>
<path d="M4970 3522 l-33 -29 32 -56 c18 -31 36 -57 40 -57 8 0 71 80 71 91 0
11 -60 79 -69 79 -4 0 -22 -13 -41 -28z"/>
<path d="M4614 3473 l-51 -25 -16 -87 c-31 -159 -95 -255 -240 -360 -124 -89
-177 -113 -355 -161 -89 -24 -162 -46 -162 -50 0 -14 207 -44 300 -45 87 0
100 3 150 30 30 16 89 63 131 105 59 58 85 94 117 159 45 93 41 96 57 -29 20
-153 148 -251 331 -252 55 0 76 5 127 32 128 67 182 120 220 218 17 43 24 167
10 175 -5 2 -39 0 -76 -6 l-68 -10 8 -46 c20 -114 2 -166 -68 -202 -50 -25
-167 -36 -225 -20 -52 14 -122 74 -145 125 -28 61 -21 240 17 440 3 20 2 36
-2 35 -5 0 -32 -12 -60 -26z"/>
<path d="M12692 2836 c-18 -13 -34 -27 -35 -30 -3 -9 66 -116 75 -116 3 0 25
21 47 47 l42 47 -38 38 c-20 21 -42 38 -48 38 -5 -1 -25 -12 -43 -24z"/>
<path d="M9645 2753 c-22 -14 -42 -27 -44 -29 -3 -3 21 -42 70 -117 7 -10 88
71 89 88 0 6 -17 28 -38 48 l-38 37 -39 -27z"/>
<path d="M5838 2743 c-18 -15 -35 -28 -37 -29 -2 -2 13 -30 34 -64 l37 -60 40
50 40 50 -34 39 c-18 22 -36 40 -40 40 -3 1 -21 -11 -40 -26z"/>
</g>
</svg>
